<svg xmlns="http://www.w3.org/2000/svg" viewBox="0 0 1200 1200"><defs><style>.cls-1{fill:#ececec;}.cls-2{fill:#fff;}.cls-3,.cls-6{fill:#e1e1e1;}.cls-4{opacity:0.3;}.cls-5{fill:none;}.cls-6{fill-rule:evenodd;}.cls-7{fill:#1a2e35;}.cls-8{fill:#ff4f5b;}.cls-9{fill:#375a64;}.cls-10{fill:#fafafa;}.cls-11{fill:#ffbf9d;}.cls-12{opacity:0.6;}.cls-13{fill:#ff9a6c;}</style></defs><g id="Layer_2" data-name="Layer 2"><g id="Layer_1-2" data-name="Layer 1"><rect class="cls-1" width="1200" height="1200"/><rect class="cls-2" x="196.68" y="289.72" width="284.96" height="190.8"/><path class="cls-3" d="M481.64,480.52s0-1.19-.05-3.47,0-5.67,0-10.07c0-8.83-.06-21.78-.11-38.37-.05-33.15-.12-80.8-.21-138.89l.41.41-284.94.1h0l.51-.51c0,68,0,132.61-.05,190.8l-.46-.47,205.29.23,58.65.13,15.6,0,4,0,1.39,0s-.44,0-1.33,0l-4,0-15.51.06-58.54.13-205.6.23h-.47v-.47c0-58.19,0-122.83,0-190.8v-.51h.53l284.94.1h.4v.41c-.09,58.2-.16,105.93-.21,139.14-.05,16.55-.08,29.47-.1,38.28,0,4.37,0,7.72-.05,10S481.64,480.52,481.64,480.52Z"/><path class="cls-3" d="M196.68,306.75c0-.28,63.74-.51,142.35-.51s142.37.23,142.37.51-63.73.51-142.37.51S196.68,307,196.68,306.75Z"/><g class="cls-4"><path class="cls-3" d="M207.92,298.16a2.29,2.29,0,1,1-2.29-2.29A2.28,2.28,0,0,1,207.92,298.16Z"/></g><g class="cls-4"><circle class="cls-3" cx="213.46" cy="298.16" r="2.28"/></g><g class="cls-4"><path class="cls-3" d="M223.46,298.16a2.29,2.29,0,1,1-2.29-2.29A2.28,2.28,0,0,1,223.46,298.16Z"/></g><rect class="cls-3" x="221.17" y="326.64" width="76.01" height="76.01"/><path class="cls-3" d="M442.56,348.13c0,.28-29.65.51-66.21.51s-66.21-.23-66.21-.51,29.64-.51,66.21-.51S442.56,347.85,442.56,348.13Z"/><path class="cls-3" d="M442.56,362.25c0,.29-29.65.52-66.21.52s-66.21-.23-66.21-.52,29.64-.51,66.21-.51S442.56,362,442.56,362.25Z"/><path class="cls-3" d="M442.56,376.38c0,.28-29.65.51-66.21.51s-66.21-.23-66.21-.51,29.64-.51,66.21-.51S442.56,376.1,442.56,376.38Z"/><path class="cls-3" d="M388.4,390.51a18.56,18.56,0,0,1-3.08.19l-8.38.17c-7.08.09-16.87.15-27.67.15s-20.59-.06-27.67-.15l-8.39-.17a18.35,18.35,0,0,1-3.07-.19,17.51,17.51,0,0,1,3.07-.2l8.39-.17c7.08-.09,16.86-.14,27.67-.14s20.59.05,27.67.14l8.38.17A17.72,17.72,0,0,1,388.4,390.51Z"/><rect class="cls-3" x="225.93" y="428.28" width="35.72" height="35.72"/><rect class="cls-3" x="290.71" y="428.28" width="35.72" height="35.72"/><rect class="cls-3" x="355.5" y="428.28" width="35.72" height="35.72"/><rect class="cls-3" x="420.28" y="428.28" width="35.72" height="35.72"/><path class="cls-5" d="M1014.48,351.73a33,33,0,0,1-6.06,6.36l1.58,8-12.31,5.46L992.82,365a32.55,32.55,0,0,1-8.77.22L979.51,372,967,367.15l1.17-8a32.92,32.92,0,0,1-6.35-6.06l-8,1.58-5.46-12.31,6.53-4.87a32.55,32.55,0,0,1-.22-8.77l-6.76-4.54,4.84-12.56,8,1.17a32.92,32.92,0,0,1,6.06-6.35l-1.58-8,12.31-5.46,4.87,6.53a32.94,32.94,0,0,1,8.77-.23l4.53-6.75,12.57,4.84-1.18,8.05a33,33,0,0,1,6.36,6.06l8-1.58,5.46,12.31-6.53,4.86a33,33,0,0,1,.22,8.78l6.76,4.53-4.84,12.57-8-1.18ZM1000.88,338a14.45,14.45,0,1,0-18.68,8.28A14.45,14.45,0,0,0,1000.88,338Z"/><path class="cls-3" d="M1000.88,338a10.91,10.91,0,0,1-1.56,3.22,14.36,14.36,0,0,1-7.81,5.72,14.64,14.64,0,0,1-13.83-3,14.8,14.8,0,0,1-4.6-7.29,14.74,14.74,0,0,1,6.31-16.38,14.07,14.07,0,0,1,4.07-1.81,13.7,13.7,0,0,1,4.23-.51,14.65,14.65,0,0,1,12.25,7.08,14.48,14.48,0,0,1,1.95,9.49,11,11,0,0,1-1,3.44c-.1,0,.43-1.22.69-3.48a14.45,14.45,0,0,0-2.13-9.14,14.14,14.14,0,0,0-11.76-6.63,13.2,13.2,0,0,0-4,.52,13.06,13.06,0,0,0-3.84,1.72,14,14,0,0,0-6,15.49,13.46,13.46,0,0,0,1.69,3.85,13.26,13.26,0,0,0,2.63,3.07,14.13,14.13,0,0,0,13.16,3,14.43,14.43,0,0,0,7.72-5.35C1000.39,339.2,1000.79,338,1000.88,338Z"/><path class="cls-3" d="M1014.48,351.73l.5,0,1.53.19,6,.81-.15.08c1.23-3.22,2.83-7.46,4.78-12.59l.07.25-6.77-4.51-.12-.08v-.14a32.53,32.53,0,0,0-.25-8.71l0-.16.13-.1,6.51-4.89-.09.36-5.49-12.3.36.19-8,1.59-.2,0-.13-.16a32.87,32.87,0,0,0-6.31-6l-.17-.13,0-.21c.36-2.5.76-5.25,1.16-8.05l.24.39-12.58-4.82.46-.15-4.52,6.76-.13.2-.24,0a32.56,32.56,0,0,0-8.67.22l-.24,0-.15-.2-4.86-6.52.49.13-12.31,5.46.23-.45c.5,2.52,1,5.24,1.58,8l0,.25-.19.16a32.81,32.81,0,0,0-6,6.27h0c-.18.07.39-.17-.4.16h-.12l-.12,0-.26,0-.5-.07-1-.15-2-.3-4-.58.45-.26q-2.46,6.36-4.85,12.56l-.15-.49,6.75,4.54.21.13,0,.25a32.62,32.62,0,0,0,.21,8.67l0,.24-.19.15-6.54,4.85.13-.47,5.45,12.31-.42-.22,8-1.56.23-.05.14.18a32.89,32.89,0,0,0,6.27,6l.18.12,0,.22c-.41,2.76-.8,5.43-1.19,8.05l-.22-.37,12.56,4.87-.38.12,4.55-6.75.1-.15.18,0a33,33,0,0,0,8.7-.2l.16,0,.1.13,4.84,6.54-.29-.08,12.33-5.4-.1.2c-.61-3.19-1.11-5.81-1.53-8V358l.06-.05a34.35,34.35,0,0,0,4.75-4.58l1-1.26a3.21,3.21,0,0,1,.35-.42,5.38,5.38,0,0,1-.3.46c-.21.29-.53.74-1,1.31a32.32,32.32,0,0,1-4.68,4.7l0-.13c.45,2.17,1,4.79,1.63,8l0,.15-.14.06-12.28,5.51-.18.08-.12-.15-4.88-6.52.26.11a33.24,33.24,0,0,1-8.86.25l.28-.13-4.51,6.77-.14.21-.24-.09-12.58-4.82-.25-.1,0-.27c.37-2.62.76-5.29,1.16-8.05l.14.34a33.16,33.16,0,0,1-6.43-6.12l.36.14-8,1.58-.3.06-.12-.28L948,342.47l-.13-.29.25-.19,6.53-4.87-.16.39a33.43,33.43,0,0,1-.23-8.89l.18.38-6.76-4.52-.27-.19.11-.3q2.38-6.19,4.84-12.57l.12-.31.33.05,4,.58,2,.3,1,.15.5.07.26,0,.12,0h.12l-.39.17h0a33.56,33.56,0,0,1,6.13-6.43l-.15.41c-.54-2.75-1.08-5.47-1.57-8l-.07-.33.3-.13,12.32-5.45.29-.14.2.26c1.67,2.26,3.33,4.49,4.86,6.54l-.39-.16a33.73,33.73,0,0,1,8.88-.22l-.37.17,4.54-6.75.17-.25.29.11,12.56,4.86.28.1,0,.29c-.42,2.81-.82,5.56-1.19,8.05l-.15-.34a33.62,33.62,0,0,1,6.42,6.13l-.33-.12,8-1.56.25-.05.11.24,5.43,12.32.1.22-.19.14-6.54,4.84.1-.26a33.08,33.08,0,0,1,.19,8.85l-.1-.23,6.74,4.56.14.09-.06.16L1022.65,353l0,.1-.1,0-6-.94-1.54-.26A3.36,3.36,0,0,1,1014.48,351.73Z"/><path class="cls-6" d="M1086.09,313.42a27.37,27.37,0,0,1-5,5.28l1.3,6.62-10.21,4.53-4-5.41a27.24,27.24,0,0,1-7.28.18l-3.76,5.61-10.42-4,1-6.68a27.32,27.32,0,0,1-5.27-5l-6.63,1.3-4.53-10.21,5.42-4a27.74,27.74,0,0,1-.19-7.29l-5.6-3.75,4-10.43,6.68,1a27.42,27.42,0,0,1,5-5.28l-1.31-6.63,10.21-4.53,4,5.42a27.25,27.25,0,0,1,7.28-.18l3.76-5.61,10.43,4-1,6.68a27.07,27.07,0,0,1,5.28,5l6.62-1.31,4.53,10.22-5.41,4a27.25,27.25,0,0,1,.18,7.28l5.61,3.76-4,10.43-6.68-1ZM1074.81,302a12,12,0,1,0-15.5,6.88A12,12,0,0,0,1074.81,302Z"/><path class="cls-6" d="M1042.08,251.18a43,43,0,0,1-7.88,8.27l2,10.39-16,7.1-6.33-8.49a42.72,42.72,0,0,1-11.42.29l-5.9,8.79-16.35-6.3,1.53-10.47a43,43,0,0,1-8.27-7.88l-10.39,2.05-7.1-16,8.49-6.32a42.75,42.75,0,0,1-.29-11.42l-8.79-5.9,6.3-16.35,10.48,1.53a42.93,42.93,0,0,1,7.87-8.27L978,181.79l16-7.11,6.33,8.5a42.72,42.72,0,0,1,11.42-.29l5.89-8.79,16.35,6.3-1.53,10.47a42.69,42.69,0,0,1,8.27,7.88l10.4-2.05,7.1,16-8.49,6.32a43.15,43.15,0,0,1,.28,11.42l8.8,5.9-6.3,16.35-10.48-1.53Zm-17.69-17.86a18.8,18.8,0,1,0-24.3,10.78A18.8,18.8,0,0,0,1024.39,233.32Z"/><path class="cls-3" d="M881.43,164.43a8,8,0,0,1,1.19-1.36l3.46-3.47c2.94-2.91,7-6.89,11.61-11.24l.11-.1v.59c-4.6-4.28-8.73-8.18-11.69-11l-3.48-3.4a7.61,7.61,0,0,1-1.2-1.33,8.39,8.39,0,0,1,1.41,1.1l3.65,3.22c3.06,2.74,7.25,6.57,11.85,10.85l.32.29-.31.29-.11.1c-4.56,4.36-8.73,8.27-11.77,11.07l-3.64,3.29A8.25,8.25,0,0,1,881.43,164.43Z"/><path class="cls-3" d="M845.91,133.09a8,8,0,0,1-1.19,1.36l-3.46,3.47c-2.94,2.91-7,6.89-11.62,11.24l-.1.1v-.59c4.6,4.28,8.73,8.18,11.69,11l3.48,3.41a7.61,7.61,0,0,1,1.2,1.33,7.93,7.93,0,0,1-1.41-1.1l-3.65-3.22c-3.06-2.74-7.26-6.57-11.86-10.85l-.31-.29.31-.29.1-.1c4.57-4.36,8.73-8.27,11.78-11.07l3.63-3.29A8,8,0,0,1,845.91,133.09Z"/><path class="cls-3" d="M855,171.81c-.21-.08,3.52-10.56,8.32-23.41s8.87-23.2,9.08-23.12-3.52,10.56-8.33,23.41S855.23,171.89,855,171.81Z"/><path class="cls-3" d="M921.79,194.23s0-.61,0-1.75,0-2.85,0-5c0-4.43-.05-10.88-.09-19.1,0-16.44-.1-39.93-.17-68.25l.33.34-115.53.06h0l.4-.4c0,34,0,66.17,0,94.14l-.36-.36,83.43.18,23.65.1,6.27,0,1.63,0,.56,0-.52,0-1.58,0-6.21,0-23.57.1-83.66.18h-.35v-.36c0-28,0-60.11,0-94.14v-.4h.41l115.53.06h.34v.34c-.07,28.41-.13,52-.17,68.46,0,8.19-.06,14.61-.08,19,0,2.16,0,3.83,0,5S921.79,194.23,921.79,194.23Z"/><path class="cls-3" d="M922.7,114.06c0,.22-26.08.4-58.25.4s-58.25-.18-58.25-.4,26.08-.41,58.25-.41S922.7,113.84,922.7,114.06Z"/><path class="cls-3" d="M815.68,107.19a1.56,1.56,0,1,1-1.55-1.56A1.55,1.55,0,0,1,815.68,107.19Z"/><ellipse class="cls-3" cx="819.8" cy="107.19" rx="1.56" ry="1.56"/><path class="cls-3" d="M827,107.19a1.56,1.56,0,1,1-1.55-1.56A1.55,1.55,0,0,1,827,107.19Z"/><rect class="cls-2" x="431.31" y="145.5" width="267.13" height="108.51"/><path class="cls-3" d="M698.45,254s0-.66,0-1.94,0-3.16,0-5.62c0-5,0-12.23-.08-21.6,0-18.73-.09-45.82-.16-79.34l.3.29-267.12.13h0l.43-.42c0,38,0,74.67,0,108.5l-.41-.4,191.53.19,55.57.11,14.87,0,3.85,0,1.32,0s-.42,0-1.27,0l-3.81,0-14.78,0-55.47.12-191.81.19h-.4V254c0-33.83,0-70.51,0-108.5v-.43h.44l267.12.13h.3v.3c-.07,33.6-.13,60.75-.17,79.52,0,9.34-.05,16.59-.07,21.53,0,2.44,0,4.3,0,5.57S698.45,254,698.45,254Z"/><path class="cls-3" d="M431.58,160.13c0-.23,59.71-.42,133.35-.42s133.36.19,133.36.42-59.7.42-133.36.42S431.58,160.36,431.58,160.13Z"/><g class="cls-4"><path class="cls-1" d="M442.76,153.59a1.94,1.94,0,1,1-1.93-1.94A1.92,1.92,0,0,1,442.76,153.59Z"/></g><g class="cls-4"><path class="cls-1" d="M449.41,153.59a1.94,1.94,0,1,1-1.94-1.94A1.93,1.93,0,0,1,449.41,153.59Z"/></g><g class="cls-4"><circle class="cls-1" cx="454.02" cy="153.59" r="1.94"/></g><rect class="cls-3" x="454.02" y="177.77" width="64.52" height="64.52"/><path class="cls-3" d="M680,195.06c0,.23-33.21.42-74.16.42s-74.15-.19-74.15-.42,33.19-.43,74.15-.43S680,194.82,680,195.06Z"/><path class="cls-3" d="M680,208.2c0,.24-33.21.42-74.16.42s-74.15-.18-74.15-.42,33.19-.42,74.15-.42S680,208,680,208.2Z"/><path class="cls-3" d="M627.13,221.35a4.69,4.69,0,0,1-1,.08l-2.78.08-10.23.14-33.76.12-33.75-.12-10.23-.14-2.79-.08a4.52,4.52,0,0,1-1-.08,4,4,0,0,1,1-.09l2.79-.08,10.23-.13,33.75-.13,33.76.13,10.23.13,2.78.08A4.18,4.18,0,0,1,627.13,221.35Z"/><path class="cls-7" d="M1116.37,1037.69c0,.33-227.09.59-507.15.59S102,1038,102,1037.69s227.05-.59,507.21-.59S1116.37,1037.36,1116.37,1037.69Z"/><rect class="cls-3" x="711.68" y="332.94" width="318.9" height="259.8"/><rect class="cls-1" x="689" y="349.45" width="318.9" height="259.8"/><rect class="cls-2" x="657.76" y="367.54" width="327.41" height="266.73"/><path class="cls-7" d="M985.17,634.27s0-1.69,0-4.92,0-8-.06-14.24c0-12.48-.07-30.75-.13-54.05-.06-46.56-.15-113.18-.25-193.52l.49.49-327.38.1h0l.6-.59c0,96.45-.05,187.53-.07,266.73l-.53-.53,236.59.26,66.95.14,17.73.07,4.57,0,1.57,0s-.5,0-1.51,0l-4.51,0-17.63.06-66.83.14-236.93.27h-.53v-.53c0-79.2,0-170.28-.06-266.73V367h.62l327.38.09h.5v.5c-.1,80.47-.19,147.2-.25,193.83-.06,23.25-.1,41.49-.13,53.94,0,6.18,0,10.93-.06,14.15S985.17,634.27,985.17,634.27Z"/><path class="cls-8" d="M697.67,406.08l-3.52,1.29,3.52,1.28V410l-5-1.91v-1.38l5-1.91Z"/><path class="cls-8" d="M706,403.68v7.39h-1.71v-3h-3.36v3h-1.71v-7.39h1.71v2.91h3.36v-2.91Z"/><path class="cls-8" d="M709.23,405.07h-2.36v-1.39h6.44v1.39h-2.37v6h-1.71Z"/><path class="cls-8" d="M721,411.07l0-4.44-2.17,3.65H718l-2.16-3.55v4.34h-1.61v-7.39h1.42l2.76,4.59,2.73-4.59h1.4l0,7.39Z"/><path class="cls-8" d="M724.29,403.68H726v6h3.71v1.4h-5.42Z"/><path class="cls-8" d="M735.46,406.68v1.38l-5,1.91v-1.32l3.51-1.28-3.51-1.29v-1.31Z"/><path class="cls-8" d="M694.69,608.35l-3.52,1.29,3.52,1.28v1.32l-5-1.91V609l5-1.92Z"/><path class="cls-8" d="M698.46,604.45h1.46l-3.48,9.94H695Z"/><path class="cls-8" d="M707.11,606v7.39H705.4v-3H702v3h-1.71V606H702v2.91h3.36V606Z"/><path class="cls-8" d="M710.38,607.34H708V606h6.44v1.39h-2.37v6h-1.71Z"/><path class="cls-8" d="M722.09,613.34V608.9l-2.17,3.65h-.77L717,609v4.34h-1.6V606h1.42l2.76,4.59,2.72-4.59h1.41l0,7.39Z"/><path class="cls-8" d="M725.44,606h1.71v6h3.71v1.4h-5.42Z"/><path class="cls-8" d="M736.61,609v1.37l-5,1.91v-1.32l3.51-1.28-3.51-1.29V607Z"/><path d="M720.85,426.31l-3.74,1.45,3.74,1.44v.88l-4.72-1.87v-.91l4.72-1.87Z"/><path d="M729,424.06v7.39H728v-3.29h-4.24v3.29h-1.05v-7.39h1.05v3.18H728v-3.18Z"/><path d="M736.59,430.53v.92h-5.36v-7.39h5.21V425h-4.16v2.27H736v.9h-3.71v2.38Z"/><path d="M743,429.6h-3.93l-.81,1.85h-1.09l3.35-7.39h1l3.36,7.39h-1.11Zm-.37-.84L741,425.14l-1.6,3.62Z"/><path d="M746,424.06h3.12a3.71,3.71,0,1,1,0,7.39H746Zm3,6.47a2.78,2.78,0,1,0,0-5.55h-2v5.55Z"/><path d="M759.05,427.3v.91l-4.73,1.87v-.88l3.76-1.44-3.76-1.45v-.88Z"/><path d="M720.85,451.62l-3.74,1.45,3.74,1.44v.88l-4.72-1.87v-.91l4.72-1.87Z"/><path d="M724.13,450.29H721.6v-.92h6.11v.92h-2.53v6.47h-1Z"/><path d="M728.86,449.37h1v7.39h-1Z"/><path d="M733.59,450.29h-2.53v-.92h6.11v.92h-2.53v6.47h-1Z"/><path d="M738.31,449.37h1.06v6.47h4v.92h-5.06Z"/><path d="M749.94,455.84v.92h-5.36v-7.39h5.21v.92h-4.16v2.27h3.71v.9h-3.71v2.38Z"/><path d="M756,452.61v.91l-4.73,1.87v-.88l3.76-1.44-3.76-1.45v-.88Z"/><path d="M760.62,449.37h1v6.47h4v.92h-5Z"/><path d="M766.14,454a2.91,2.91,0,1,1,2.92,2.86A2.79,2.79,0,0,1,766.14,454Zm4.8,0a1.89,1.89,0,1,0-1.88,2A1.84,1.84,0,0,0,770.94,454Z"/><path d="M776.37,451.11v1a1,1,0,0,0-.24,0,1.67,1.67,0,0,0-1.76,1.89v2.79h-1v-5.59h1v.94A2.13,2.13,0,0,1,776.37,451.11Z"/><path d="M782.59,454.3h-4.54a1.9,1.9,0,0,0,2,1.64,2.07,2.07,0,0,0,1.62-.68l.56.66a3.06,3.06,0,0,1-5.22-2,2.75,2.75,0,0,1,2.81-2.85,2.71,2.71,0,0,1,2.77,2.89C782.61,454.08,782.6,454.21,782.59,454.3Zm-4.54-.73h3.59a1.81,1.81,0,0,0-3.59,0Z"/><path d="M793.3,453.54v3.22h-1v-3.1c0-1.1-.52-1.64-1.44-1.64a1.63,1.63,0,0,0-1.68,1.86v2.88h-1v-3.1c0-1.1-.52-1.64-1.44-1.64a1.63,1.63,0,0,0-1.68,1.86v2.88h-1v-5.59h1V452a2.27,2.27,0,0,1,1.93-.89,2.07,2.07,0,0,1,1.94,1,2.55,2.55,0,0,1,2.15-1A2.15,2.15,0,0,1,793.3,453.54Z"/><path d="M797.81,449.44a.67.67,0,0,1,.69-.67.65.65,0,0,1,.68.64.69.69,0,0,1-1.37,0Zm.18,1.73h1v5.59h-1Z"/><path d="M806.73,454a2.72,2.72,0,0,1-2.83,2.86,2.38,2.38,0,0,1-1.95-.9v2.89h-1v-7.64h1v.88a2.41,2.41,0,0,1,2-.94A2.72,2.72,0,0,1,806.73,454Zm-1,0a1.89,1.89,0,1,0-1.89,2A1.85,1.85,0,0,0,805.7,454Z"/><path d="M807.42,456.17l.42-.8a3.57,3.57,0,0,0,2,.58c.94,0,1.33-.29,1.33-.76,0-1.26-3.53-.17-3.53-2.4,0-1,.89-1.68,2.33-1.68a4.06,4.06,0,0,1,2,.51l-.43.8a3,3,0,0,0-1.62-.44c-.89,0-1.32.33-1.32.77,0,1.32,3.55.24,3.55,2.42,0,1-.93,1.65-2.42,1.65A4,4,0,0,1,807.42,456.17Z"/><path d="M818.62,451.17v5.59h-1v-.84a2.26,2.26,0,0,1-1.9.9,2.19,2.19,0,0,1-2.4-2.43v-3.22h1v3.1c0,1.1.55,1.65,1.51,1.65a1.65,1.65,0,0,0,1.73-1.86v-2.89Z"/><path d="M829.84,453.54v3.22h-1v-3.1c0-1.1-.52-1.64-1.44-1.64a1.63,1.63,0,0,0-1.68,1.86v2.88h-1v-3.1c0-1.1-.53-1.64-1.45-1.64a1.63,1.63,0,0,0-1.68,1.86v2.88h-1v-5.59h1V452a2.27,2.27,0,0,1,1.93-.89,2.06,2.06,0,0,1,1.94,1,2.56,2.56,0,0,1,2.16-1A2.15,2.15,0,0,1,829.84,453.54Z"/><path d="M839,451.62l-3.75,1.45,3.75,1.44v.88l-4.73-1.87v-.91l4.73-1.87Z"/><path d="M842.9,447.87h.92l-3.49,9.95h-.92Z"/><path d="M846.31,450.29h-2.53v-.92h6.11v.92h-2.53v6.47h-1.05Z"/><path d="M851,449.37h1.05v7.39H851Z"/><path d="M855.77,450.29h-2.53v-.92h6.11v.92h-2.53v6.47h-1.05Z"/><path d="M860.49,449.37h1.06v6.47h4v.92h-5.06Z"/><path d="M872.12,455.84v.92h-5.36v-7.39H872v.92h-4.15v2.27h3.7v.9h-3.7v2.38Z"/><path d="M878.15,452.61v.91l-4.73,1.87v-.88l3.76-1.44-3.76-1.45v-.88Z"/><path d="M720.85,476.93l-3.74,1.45,3.74,1.44v.88l-4.72-1.87v-.91l4.72-1.87Z"/><path d="M724.75,473.18h.91l-3.48,9.95h-.92Z"/><path d="M732.73,474.68v7.39h-1.05v-3.29h-4.25v3.29h-1v-7.39h1v3.18h4.25v-3.18Z"/><path d="M740.3,481.15v.92h-5.36v-7.39h5.21v.92H736v2.27h3.7v.9H736v2.38Z"/><path d="M746.71,480.22h-3.92l-.82,1.85h-1.09l3.35-7.39h1l3.35,7.39h-1.1Zm-.37-.84-1.59-3.62-1.59,3.62Z"/><path d="M749.73,474.68h3.11a3.71,3.71,0,1,1,0,7.39h-3.11Zm3,6.47a2.78,2.78,0,1,0,0-5.55h-2v5.55Z"/><path d="M762.76,477.92v.91L758,480.7v-.88l3.76-1.44L758,476.93v-.88Z"/><path d="M701.25,498.89l-3.75,1.45,3.75,1.45v.87l-4.73-1.87v-.9l4.73-1.87Z"/><path d="M709.42,502c0,1.27-1,2-2.83,2h-3.53v-7.38h3.32c1.7,0,2.64.71,2.64,1.91a1.74,1.74,0,0,1-1,1.64A1.79,1.79,0,0,1,709.42,502Zm-5.3-4.54v2.37h2.16c1.08,0,1.69-.41,1.69-1.19s-.61-1.18-1.69-1.18Zm4.23,4.45c0-.85-.63-1.23-1.81-1.23h-2.42v2.46h2.42C707.72,503.18,708.35,502.81,708.35,502Z"/><path d="M710.44,500.34a3.93,3.93,0,1,1,3.94,3.78A3.76,3.76,0,0,1,710.44,500.34Zm6.8,0a2.87,2.87,0,1,0-2.86,2.84A2.77,2.77,0,0,0,717.24,500.34Z"/><path d="M719.9,496.65H723a3.7,3.7,0,1,1,0,7.38H719.9Zm3.05,6.47a2.79,2.79,0,1,0,0-5.56h-2v5.56Z"/><path d="M731.13,501.48V504h-1v-2.57l-2.93-4.81h1.12l2.37,3.89,2.38-3.89h1Z"/><path d="M739.45,499.89v.9l-4.73,1.87v-.87l3.76-1.45-3.76-1.45V498Z"/><path d="M701.25,524.2l-3.75,1.45,3.75,1.45V528l-4.73-1.87v-.9l4.73-1.87Z"/><path d="M709.42,522v7.38h-1.06v-3.29h-4.24v3.29h-1.06V522h1.06v3.17h4.24V522Z"/><path d="M713.31,522v7.38h-1v-6.47H710.6V522Z"/><path d="M719.85,525.2v.9L715.12,528v-.87l3.76-1.45-3.76-1.45v-.87Z"/><path d="M724.59,522h.78v6.71h4.14v.67h-4.92Z"/><path d="M730,526.57a2.83,2.83,0,1,1,2.83,2.83A2.73,2.73,0,0,1,730,526.57Zm4.89,0a2.07,2.07,0,1,0-2.06,2.16A2,2,0,0,0,734.89,526.57Z"/><path d="M740,523.75v.73h-.18a1.8,1.8,0,0,0-1.87,2v2.82h-.75v-5.55h.72v1.09A2.1,2.1,0,0,1,740,523.75Z"/><path d="M746.1,526.8h-4.64a2,2,0,0,0,2.18,1.93,2.17,2.17,0,0,0,1.7-.73l.43.49a2.94,2.94,0,0,1-5.06-1.92,2.67,2.67,0,0,1,2.71-2.82,2.65,2.65,0,0,1,2.69,2.82C746.11,526.63,746.1,526.72,746.1,526.8Zm-4.64-.56h3.94a2,2,0,0,0-3.94,0Z"/><path d="M756.8,526.13v3.21h-.75V526.2c0-1.17-.59-1.77-1.59-1.77a1.78,1.78,0,0,0-1.86,2v2.91h-.75V526.2c0-1.17-.59-1.77-1.6-1.77a1.78,1.78,0,0,0-1.86,2v2.91h-.75v-5.55h.71v1a2.25,2.25,0,0,1,2-1.06,2,2,0,0,1,2,1.17,2.4,2.4,0,0,1,2.19-1.17A2.1,2.1,0,0,1,756.8,526.13Z"/><path d="M761.42,522a.55.55,0,1,1,.55.54A.54.54,0,0,1,761.42,522Zm.17,1.75h.75v5.55h-.75Z"/><path d="M770.05,526.57a2.69,2.69,0,0,1-2.76,2.83,2.41,2.41,0,0,1-2.11-1.1v3.09h-.76v-7.6h.72v1.1a2.43,2.43,0,0,1,2.15-1.14A2.68,2.68,0,0,1,770.05,526.57Zm-.75,0a2.07,2.07,0,1,0-2.07,2.16A2.05,2.05,0,0,0,769.3,526.57Z"/><path d="M770.8,528.71l.34-.59a3.36,3.36,0,0,0,2,.62c1,0,1.48-.36,1.48-.91,0-1.44-3.59-.3-3.59-2.5,0-.9.78-1.58,2.19-1.58a3.7,3.7,0,0,1,2,.52l-.32.6a2.86,2.86,0,0,0-1.64-.48c-1,0-1.45.39-1.45.92,0,1.5,3.6.37,3.6,2.5,0,1-.84,1.59-2.29,1.59A3.75,3.75,0,0,1,770.8,528.71Z"/><path d="M781.73,523.79v5.55H781v-1a2.21,2.21,0,0,1-2,1.07,2.15,2.15,0,0,1-2.34-2.39v-3.22h.75v3.15c0,1.18.61,1.78,1.66,1.78a1.81,1.81,0,0,0,1.9-2v-2.92Z"/><path d="M793,526.13v3.21h-.75V526.2c0-1.17-.59-1.77-1.59-1.77a1.78,1.78,0,0,0-1.86,2v2.91H788V526.2c0-1.17-.59-1.77-1.6-1.77a1.78,1.78,0,0,0-1.86,2v2.91h-.75v-5.55h.72v1a2.24,2.24,0,0,1,2-1.06,2,2,0,0,1,2,1.17,2.4,2.4,0,0,1,2.19-1.17A2.1,2.1,0,0,1,793,526.13Z"/><path d="M802.85,521.51v7.83h-.72v-1.09A2.42,2.42,0,0,1,800,529.4a2.83,2.83,0,0,1,0-5.65,2.43,2.43,0,0,1,2.11,1.1v-3.34Zm-.74,5.06a2.07,2.07,0,1,0-2.06,2.16A2,2,0,0,0,802.11,526.57Z"/><path d="M804.37,526.57a2.83,2.83,0,1,1,2.83,2.83A2.73,2.73,0,0,1,804.37,526.57Zm4.89,0a2.07,2.07,0,1,0-2.06,2.16A2,2,0,0,0,809.26,526.57Z"/><path d="M811.54,521.51h.75v7.83h-.75Z"/><path d="M813.82,526.57a2.83,2.83,0,1,1,2.83,2.83A2.73,2.73,0,0,1,813.82,526.57Zm4.89,0a2.07,2.07,0,1,0-2.06,2.16A2,2,0,0,0,818.71,526.57Z"/><path d="M823.79,523.75v.73h-.18a1.8,1.8,0,0,0-1.87,2v2.82H821v-5.55h.72v1.09A2.09,2.09,0,0,1,823.79,523.75Z"/><path d="M827.21,528.71l.34-.59a3.32,3.32,0,0,0,2,.62c1.06,0,1.49-.36,1.49-.91,0-1.44-3.6-.3-3.6-2.5,0-.9.78-1.58,2.2-1.58a3.7,3.7,0,0,1,2,.52l-.33.6a2.8,2.8,0,0,0-1.63-.48c-1,0-1.45.39-1.45.92,0,1.5,3.6.37,3.6,2.5,0,1-.84,1.59-2.29,1.59A3.73,3.73,0,0,1,827.21,528.71Z"/><path d="M833,522a.54.54,0,0,1,.55-.53.53.53,0,0,1,.55.52.55.55,0,0,1-1.1,0Zm.17,1.75h.75v5.55h-.75Z"/><path d="M838.9,529a1.81,1.81,0,0,1-1.17.39,1.47,1.47,0,0,1-1.63-1.62v-3.35h-1v-.64h1v-1.21h.75v1.21h1.69v.64h-1.69v3.31a.89.89,0,0,0,1,1,1.26,1.26,0,0,0,.83-.28Z"/><path d="M847.21,525.9v3.44h-.72v-.86a2.07,2.07,0,0,1-1.91.92c-1.25,0-2-.66-2-1.62s.54-1.57,2.14-1.57h1.76v-.34c0-1-.54-1.47-1.57-1.47a2.85,2.85,0,0,0-1.85.66l-.34-.56a3.51,3.51,0,0,1,2.26-.75A2,2,0,0,1,847.21,525.9Zm-.75,1.78v-.91h-1.74c-1.08,0-1.42.42-1.42,1s.51,1,1.4,1A1.77,1.77,0,0,0,846.46,527.68Z"/><path d="M858.4,526.13v3.21h-.75V526.2c0-1.17-.59-1.77-1.59-1.77a1.78,1.78,0,0,0-1.86,2v2.91h-.75V526.2c0-1.17-.59-1.77-1.6-1.77a1.78,1.78,0,0,0-1.86,2v2.91h-.75v-5.55H850v1a2.24,2.24,0,0,1,2-1.06,2,2,0,0,1,2,1.17,2.41,2.41,0,0,1,2.2-1.17A2.09,2.09,0,0,1,858.4,526.13Z"/><path d="M865.29,526.8h-4.65a2.06,2.06,0,0,0,2.19,1.93,2.2,2.2,0,0,0,1.7-.73l.42.49a2.94,2.94,0,0,1-5.06-1.92,2.71,2.71,0,1,1,5.41,0C865.3,526.63,865.29,526.72,865.29,526.8Zm-4.65-.56h3.94a2,2,0,0,0-3.94,0Z"/><path d="M869.74,529a1.78,1.78,0,0,1-1.17.39,1.47,1.47,0,0,1-1.62-1.62v-3.35h-1v-.64h1v-1.21h.75v1.21h1.68v.64H867.7v3.31a.89.89,0,0,0,1,1,1.24,1.24,0,0,0,.82-.28Z"/><path d="M871.85,528.82a1.65,1.65,0,0,1-.15.61l-.44,1.46h-.51l.36-1.54a.53.53,0,0,1-.38-.53.56.56,0,0,1,.56-.57A.55.55,0,0,1,871.85,528.82Z"/><path d="M875.65,526.57a2.73,2.73,0,0,1,2.86-2.82,2.41,2.41,0,0,1,2.17,1.1l-.56.38a1.88,1.88,0,0,0-1.61-.83,2.17,2.17,0,0,0,0,4.33,1.86,1.86,0,0,0,1.61-.81l.56.38a2.43,2.43,0,0,1-2.17,1.1A2.74,2.74,0,0,1,875.65,526.57Z"/><path d="M881.49,526.57a2.83,2.83,0,1,1,2.83,2.83A2.73,2.73,0,0,1,881.49,526.57Zm4.89,0a2.07,2.07,0,1,0-2.06,2.16A2,2,0,0,0,886.38,526.57Z"/><path d="M893.77,526.13v3.21H893V526.2a1.55,1.55,0,0,0-1.66-1.77,1.82,1.82,0,0,0-2,2v2.91h-.75v-5.55h.72v1a2.32,2.32,0,0,1,2.11-1.07A2.13,2.13,0,0,1,893.77,526.13Z"/><path d="M895,528.71l.34-.59a3.32,3.32,0,0,0,2,.62c1.06,0,1.49-.36,1.49-.91,0-1.44-3.6-.3-3.6-2.5,0-.9.78-1.58,2.2-1.58a3.75,3.75,0,0,1,2,.52l-.33.6a2.8,2.8,0,0,0-1.63-.48c-1,0-1.45.39-1.45.92,0,1.5,3.6.37,3.6,2.5,0,1-.84,1.59-2.29,1.59A3.7,3.7,0,0,1,895,528.71Z"/><path d="M905.79,526.8h-4.64a2,2,0,0,0,2.18,1.93A2.17,2.17,0,0,0,905,528l.42.49a2.72,2.72,0,0,1-2.14.91,2.75,2.75,0,0,1-2.91-2.83,2.67,2.67,0,0,1,2.71-2.82,2.65,2.65,0,0,1,2.69,2.82C905.8,526.63,905.79,526.72,905.79,526.8Zm-4.64-.56h3.94a2,2,0,0,0-3.94,0Z"/><path d="M906.77,526.57a2.73,2.73,0,0,1,2.86-2.82,2.41,2.41,0,0,1,2.17,1.1l-.56.38a1.89,1.89,0,0,0-1.61-.83,2.17,2.17,0,0,0,0,4.33,1.87,1.87,0,0,0,1.61-.81l.56.38a2.43,2.43,0,0,1-2.17,1.1A2.74,2.74,0,0,1,906.77,526.57Z"/><path d="M916.25,529a1.81,1.81,0,0,1-1.17.39,1.47,1.47,0,0,1-1.63-1.62v-3.35h-1v-.64h1v-1.21h.75v1.21h1.69v.64H914.2v3.31a.89.89,0,0,0,1,1,1.26,1.26,0,0,0,.83-.28Z"/><path d="M922.24,526.8H917.6a2,2,0,0,0,2.18,1.93,2.17,2.17,0,0,0,1.7-.73l.43.49a2.94,2.94,0,0,1-5.06-1.92,2.71,2.71,0,1,1,5.41,0C922.26,526.63,922.24,526.72,922.24,526.8Zm-4.64-.56h3.94a2,2,0,0,0-3.94,0Z"/><path d="M926.7,529a1.8,1.8,0,0,1-1.17.39,1.48,1.48,0,0,1-1.63-1.62v-3.35h-1v-.64h1v-1.21h.76v1.21h1.68v.64h-1.68v3.31a.89.89,0,0,0,1,1,1.24,1.24,0,0,0,.82-.28Z"/><path d="M933.06,523.79v5.55h-.71v-1a2.22,2.22,0,0,1-2,1.07A2.15,2.15,0,0,1,928,527v-3.22h.75v3.15c0,1.18.61,1.78,1.66,1.78a1.8,1.8,0,0,0,1.89-2v-2.92Z"/><path d="M940,526.8h-4.64a2,2,0,0,0,2.18,1.93,2.17,2.17,0,0,0,1.7-.73l.42.49a2.73,2.73,0,0,1-2.14.91,2.76,2.76,0,0,1-2.92-2.83,2.68,2.68,0,0,1,2.72-2.82,2.65,2.65,0,0,1,2.69,2.82C940,526.63,940,526.72,940,526.8Zm-4.64-.56h3.93a2,2,0,0,0-3.93,0Z"/><path d="M944.32,523.75v.73h-.18a1.79,1.79,0,0,0-1.86,2v2.82h-.75v-5.55h.71v1.09A2.1,2.1,0,0,1,944.32,523.75Z"/><path d="M701.05,538.56V542h-.72v-.87a2.09,2.09,0,0,1-1.91.92c-1.25,0-2-.65-2-1.61s.55-1.58,2.15-1.58h1.76v-.33c0-.95-.54-1.47-1.57-1.47a2.83,2.83,0,0,0-1.85.65l-.34-.56a3.57,3.57,0,0,1,2.26-.75A2,2,0,0,1,701.05,538.56Zm-.75,1.77v-.91h-1.74c-1.08,0-1.43.43-1.43,1s.52,1,1.41,1A1.77,1.77,0,0,0,700.3,540.33Z"/><path d="M708.17,534.17V542h-.72v-1.1a2.39,2.39,0,0,1-2.14,1.15,2.83,2.83,0,0,1,0-5.65,2.41,2.41,0,0,1,2.11,1.1v-3.33Zm-.74,5.05a2.07,2.07,0,1,0-2.06,2.17A2,2,0,0,0,707.43,539.22Z"/><path d="M710.08,534.69a.54.54,0,0,1,.55-.52.53.53,0,0,1,.55.51.54.54,0,0,1-.55.55A.55.55,0,0,1,710.08,534.69Zm.17,1.76H711V542h-.75Z"/><path d="M718.72,539.22a2.69,2.69,0,0,1-2.77,2.83,2.41,2.41,0,0,1-2.11-1.1v3.1h-.75v-7.6h.72v1.09A2.43,2.43,0,0,1,716,536.4,2.69,2.69,0,0,1,718.72,539.22Zm-.75,0a2.07,2.07,0,1,0-2.07,2.17A2,2,0,0,0,718,539.22Z"/><path d="M720.07,534.69a.54.54,0,0,1,.55-.52.53.53,0,0,1,.55.51.55.55,0,0,1-1.1,0Zm.17,1.76H721V542h-.75Z"/><path d="M722.31,541.37l.33-.6a3.36,3.36,0,0,0,2,.63c1,0,1.49-.36,1.49-.91,0-1.45-3.6-.31-3.6-2.5,0-.91.78-1.59,2.19-1.59a3.7,3.7,0,0,1,2,.52l-.32.6a2.92,2.92,0,0,0-1.64-.47c-1,0-1.45.39-1.45.92,0,1.5,3.6.37,3.6,2.5,0,1-.84,1.58-2.29,1.58A3.69,3.69,0,0,1,722.31,541.37Z"/><path d="M727.67,539.22a2.74,2.74,0,0,1,2.87-2.82,2.41,2.41,0,0,1,2.17,1.1l-.56.38a1.88,1.88,0,0,0-1.61-.82,2.17,2.17,0,0,0,0,4.33,1.88,1.88,0,0,0,1.61-.82l.56.38a2.43,2.43,0,0,1-2.17,1.1A2.75,2.75,0,0,1,727.67,539.22Z"/><path d="M734,534.69a.54.54,0,0,1,.55-.52.53.53,0,0,1,.55.51.55.55,0,0,1-1.1,0Zm.17,1.76h.75V542h-.75Z"/><path d="M742.12,538.78V542h-.75v-3.15a1.55,1.55,0,0,0-1.67-1.77,1.82,1.82,0,0,0-1.94,2V542H737v-5.55h.71v1a2.37,2.37,0,0,1,2.12-1.07A2.13,2.13,0,0,1,742.12,538.78Z"/><path d="M749.31,536.45v4.87a2.44,2.44,0,0,1-2.78,2.78,3.9,3.9,0,0,1-2.59-.86l.39-.57a3.24,3.24,0,0,0,2.18.76c1.4,0,2-.64,2-2v-.71a2.51,2.51,0,0,1-2.17,1.08,2.7,2.7,0,1,1,0-5.39,2.5,2.5,0,0,1,2.2,1.11v-1.06Zm-.73,2.64a2.11,2.11,0,1,0-2.11,2A2,2,0,0,0,748.58,539.09Z"/><path d="M759,539.46h-4.65a2.06,2.06,0,0,0,2.19,1.93,2.2,2.2,0,0,0,1.7-.73l.42.48a2.69,2.69,0,0,1-2.14.91,2.75,2.75,0,0,1-2.91-2.83,2.7,2.7,0,1,1,5.4,0C759,539.29,759,539.37,759,539.46Zm-4.65-.56h3.94a2,2,0,0,0-3.94,0Z"/><path d="M760.53,534.17h.75V542h-.75Z"/><path d="M763.2,534.69a.54.54,0,0,1,.55-.52.53.53,0,0,1,.55.51.55.55,0,0,1-1.1,0Zm.17,1.76h.75V542h-.75Z"/><path d="M769.13,541.66a1.8,1.8,0,0,1-1.17.39,1.47,1.47,0,0,1-1.63-1.61v-3.36h-1v-.63h1v-1.22h.75v1.22h1.69v.63h-1.69v3.31a.89.89,0,0,0,1,1,1.25,1.25,0,0,0,.83-.29Z"/><path d="M771.24,541.47a1.83,1.83,0,0,1-.15.61l-.44,1.46h-.51l.36-1.53a.53.53,0,0,1-.38-.54.55.55,0,0,1,.56-.57A.56.56,0,0,1,771.24,541.47Z"/><path d="M774.82,541.37l.34-.6a3.33,3.33,0,0,0,2,.63c1.06,0,1.49-.36,1.49-.91,0-1.45-3.6-.31-3.6-2.5,0-.91.78-1.59,2.2-1.59a3.7,3.7,0,0,1,2,.52l-.33.6a2.87,2.87,0,0,0-1.63-.47c-1,0-1.45.39-1.45.92,0,1.5,3.6.37,3.6,2.5,0,1-.84,1.58-2.29,1.58A3.73,3.73,0,0,1,774.82,541.37Z"/><path d="M785.58,539.46h-4.64a2,2,0,0,0,2.18,1.93,2.2,2.2,0,0,0,1.7-.73l.43.48a2.94,2.94,0,0,1-5.06-1.92,2.71,2.71,0,1,1,5.41,0C785.6,539.29,785.58,539.37,785.58,539.46Zm-4.64-.56h3.94a2,2,0,0,0-3.94,0Z"/><path d="M792.18,534.17V542h-.71v-1.1a2.42,2.42,0,0,1-2.15,1.15,2.83,2.83,0,0,1,0-5.65,2.44,2.44,0,0,1,2.12,1.1v-3.33Zm-.73,5.05a2.07,2.07,0,1,0-2.06,2.17A2,2,0,0,0,791.45,539.22Z"/><path d="M802.1,534.17V542h-.72v-1.1a2.4,2.4,0,0,1-2.14,1.15,2.83,2.83,0,0,1,0-5.65,2.43,2.43,0,0,1,2.11,1.1v-3.33Zm-.74,5.05a2.07,2.07,0,1,0-2.06,2.17A2,2,0,0,0,801.36,539.22Z"/><path d="M804,534.69a.54.54,0,0,1,.55-.52.53.53,0,0,1,.55.51.55.55,0,0,1-1.1,0Zm.17,1.76h.75V542h-.75Z"/><path d="M811.21,538.56V542h-.72v-.87a2.09,2.09,0,0,1-1.91.92c-1.26,0-2-.65-2-1.61s.55-1.58,2.14-1.58h1.77v-.33c0-.95-.54-1.47-1.57-1.47a2.83,2.83,0,0,0-1.85.65l-.34-.56a3.55,3.55,0,0,1,2.26-.75A2,2,0,0,1,811.21,538.56Zm-.75,1.77v-.91h-1.74c-1.08,0-1.43.43-1.43,1s.52,1,1.4,1A1.78,1.78,0,0,0,810.46,540.33Z"/><path d="M822.4,538.78V542h-.75v-3.15c0-1.17-.59-1.77-1.59-1.77a1.79,1.79,0,0,0-1.86,2V542h-.75v-3.15c0-1.17-.59-1.77-1.6-1.77a1.79,1.79,0,0,0-1.86,2V542h-.75v-5.55H814v1a2.26,2.26,0,0,1,2-1.06,2,2,0,0,1,2,1.18,2.41,2.41,0,0,1,2.19-1.18A2.1,2.1,0,0,1,822.4,538.78Z"/><path d="M828.82,536.86l-3.75,1.44,3.75,1.45v.88l-4.73-1.87v-.91l4.73-1.87Z"/><path d="M832.71,533.11h.92l-3.49,9.94h-.91Z"/><path d="M840.7,534.61V542h-1.06v-3.29H835.4V542h-1.06v-7.39h1.06v3.18h4.24v-3.18Z"/><path d="M844.59,534.61V542h-1v-6.47h-1.67v-.92Z"/><path d="M851.13,537.85v.91l-4.73,1.87v-.88l3.76-1.45-3.76-1.44V536Z"/><path d="M701.25,562.17l-3.75,1.44,3.75,1.45v.88l-4.73-1.87v-.91l4.73-1.87Z"/><path d="M709,562.5c0,1.6-1.16,2.57-3.08,2.57h-1.82v2.24h-1.06v-7.39h2.88C707.86,559.92,709,560.89,709,562.5Zm-1,0c0-1.06-.71-1.66-2.06-1.66h-1.79v3.31h1.79C707.26,564.15,708,563.55,708,562.5Z"/><path d="M715,563.16v.91l-4.73,1.87v-.88l3.76-1.45-3.76-1.44v-.88Z"/><path d="M724,562.17l-3.75,1.44,3.75,1.45v.88l-4.73-1.87v-.91l4.73-1.87Z"/><path d="M725.79,559.92h1.05v7.39h-1.05Z"/><path d="M735.91,567.31v-5.38l-2.68,4.48h-.48L730.07,562v5.35h-1v-7.39h.86l3.08,5.19,3-5.19h.87v7.39Z"/><path d="M744.25,563.57h1v2.88a4.33,4.33,0,0,1-2.8.94,3.78,3.78,0,1,1,0-7.55,3.7,3.7,0,0,1,2.84,1.14l-.65.65a2.93,2.93,0,0,0-2.15-.85,2.84,2.84,0,1,0,0,5.67,3.11,3.11,0,0,0,1.73-.47Z"/><path d="M749.43,566.46l.39-.82a3.79,3.79,0,0,0,2.44.86c1.27,0,1.82-.5,1.82-1.14,0-1.81-4.47-.67-4.47-3.41,0-1.14.88-2.11,2.83-2.11a4.35,4.35,0,0,1,2.37.65l-.35.84a3.81,3.81,0,0,0-2-.6c-1.26,0-1.8.53-1.8,1.17,0,1.81,4.48.68,4.48,3.39,0,1.13-.91,2.1-2.86,2.1A4.38,4.38,0,0,1,749.43,566.46Z"/><path d="M761.59,567.31,760,565l-.46,0h-1.83v2.25h-1.06v-7.39h2.89c1.92,0,3.08,1,3.08,2.58a2.34,2.34,0,0,1-1.63,2.33l1.75,2.48Zm0-4.81c0-1.06-.71-1.66-2.06-1.66h-1.79v3.32h1.79C760.85,564.16,761.56,563.55,761.56,562.5Z"/><path d="M763.72,563.61a3.73,3.73,0,0,1,3.91-3.77,3.65,3.65,0,0,1,2.81,1.15l-.68.66a2.74,2.74,0,0,0-2.08-.87,2.84,2.84,0,1,0,0,5.67,2.75,2.75,0,0,0,2.08-.88l.68.66a3.66,3.66,0,0,1-2.82,1.16A3.73,3.73,0,0,1,763.72,563.61Z"/><path d="M771.54,562h4.73v.83h-4.73Zm0,2.5h4.73v.83h-4.73Z"/><path d="M780.47,559.92h.89l-.07,2.85h-.75Zm1.91,0h.89l-.07,2.85h-.75Z"/><path d="M785,559.92h1.06v6.47h4v.92H785Z"/><path d="M790.56,564.51a2.91,2.91,0,1,1,2.92,2.86A2.79,2.79,0,0,1,790.56,564.51Zm4.8,0a1.89,1.89,0,1,0-3.77,0,1.89,1.89,0,1,0,3.77,0Z"/><path d="M800.79,561.66v1h-.23a1.68,1.68,0,0,0-1.77,1.89v2.79h-1v-5.6h1v.94A2.15,2.15,0,0,1,800.79,561.66Z"/><path d="M807,564.85h-4.54a1.9,1.9,0,0,0,2,1.64,2.1,2.1,0,0,0,1.61-.68l.56.65a2.76,2.76,0,0,1-2.2.91,2.8,2.8,0,0,1-3-2.86,2.74,2.74,0,0,1,2.81-2.85,2.69,2.69,0,0,1,2.76,2.88C807,564.63,807,564.75,807,564.85Zm-4.54-.73h3.59a1.81,1.81,0,0,0-3.59,0Z"/><path d="M817.72,564.09v3.22h-1v-3.1c0-1.1-.53-1.64-1.45-1.64a1.63,1.63,0,0,0-1.68,1.86v2.88h-1v-3.1c0-1.1-.53-1.64-1.45-1.64a1.63,1.63,0,0,0-1.68,1.86v2.88h-1v-5.6h1v.84a2.28,2.28,0,0,1,1.94-.89,2.07,2.07,0,0,1,1.94,1,2.5,2.5,0,0,1,2.15-1A2.15,2.15,0,0,1,817.72,564.09Z"/><path d="M822.23,560a.67.67,0,0,1,.69-.66.66.66,0,0,1,.69.64.69.69,0,0,1-1.38,0Zm.18,1.73h1v5.6h-1Z"/><path d="M831.15,564.51a2.72,2.72,0,0,1-2.83,2.86,2.36,2.36,0,0,1-2-.91v2.9h-1v-7.65h1v.89a2.38,2.38,0,0,1,2-.94A2.71,2.71,0,0,1,831.15,564.51Zm-1,0a1.89,1.89,0,1,0-1.89,2A1.85,1.85,0,0,0,830.13,564.51Z"/><path d="M831.84,566.72l.42-.8a3.69,3.69,0,0,0,2,.58c.94,0,1.33-.29,1.33-.76,0-1.26-3.54-.17-3.54-2.4,0-1,.9-1.68,2.33-1.68a4,4,0,0,1,2,.51l-.43.8a2.92,2.92,0,0,0-1.62-.44c-.88,0-1.32.32-1.32.77,0,1.32,3.55.24,3.55,2.42,0,1-.93,1.65-2.42,1.65A4,4,0,0,1,831.84,566.72Z"/><path d="M843.05,561.71v5.6h-1v-.85a2.26,2.26,0,0,1-1.89.91,2.2,2.2,0,0,1-2.41-2.44v-3.22h1v3.11c0,1.1.55,1.64,1.51,1.64a1.64,1.64,0,0,0,1.73-1.85v-2.9Z"/><path d="M854.26,564.09v3.22h-1v-3.1c0-1.1-.53-1.64-1.45-1.64a1.63,1.63,0,0,0-1.68,1.86v2.88h-1v-3.1c0-1.1-.53-1.64-1.45-1.64a1.63,1.63,0,0,0-1.68,1.86v2.88h-1v-5.6h1v.84a2.28,2.28,0,0,1,1.94-.89,2.07,2.07,0,0,1,1.94,1,2.5,2.5,0,0,1,2.15-1A2.15,2.15,0,0,1,854.26,564.09Z"/><path d="M855.82,559.92h.89l-.08,2.85h-.74Zm1.91,0h.89l-.07,2.85h-.75Z"/><path d="M864.72,563.16v.91L860,565.94v-.88l3.75-1.45L860,562.17v-.88Z"/><path d="M870.85,562.17l-3.74,1.44,3.74,1.45v.88l-4.73-1.87v-.91l4.73-1.87Z"/><path d="M874.74,558.42h.92l-3.48,9.94h-.92Z"/><path d="M882.34,562.5c0,1.6-1.16,2.57-3.08,2.57h-1.83v2.24h-1v-7.39h2.88C881.18,559.92,882.34,560.89,882.34,562.5Zm-1.06,0c0-1.06-.7-1.66-2-1.66h-1.8v3.31h1.8C880.58,564.15,881.28,563.55,881.28,562.5Z"/><path d="M888.32,563.16v.91l-4.73,1.87v-.88l3.76-1.45-3.76-1.44v-.88Z"/><path d="M701.25,587.48l-3.75,1.44,3.75,1.45v.88l-4.73-1.87v-.91l4.73-1.87Z"/><path d="M705.14,583.73h.92l-3.49,9.94h-.91Z"/><path d="M713.13,590.62c0,1.27-1,2-2.83,2h-3.53v-7.39h3.32c1.7,0,2.65.72,2.65,1.91a1.88,1.88,0,0,0,.39,3.48Zm-5.3-4.54v2.37H710c1.08,0,1.69-.4,1.69-1.18s-.61-1.19-1.69-1.19Zm4.23,4.46c0-.86-.63-1.24-1.8-1.24h-2.43v2.46h2.43C711.43,591.76,712.06,591.39,712.06,590.54Z"/><path d="M714.15,588.92a3.93,3.93,0,1,1,3.94,3.78A3.75,3.75,0,0,1,714.15,588.92Zm6.8,0a2.87,2.87,0,1,0-2.86,2.84A2.78,2.78,0,0,0,721,588.92Z"/><path d="M723.61,585.23h3.12a3.71,3.71,0,1,1,0,7.39h-3.12Zm3.06,6.47a2.78,2.78,0,1,0,0-5.55h-2v5.55Z"/><path d="M734.84,590.06v2.56h-1.05V590l-2.93-4.81H732l2.36,3.89,2.38-3.89h1Z"/><path d="M743.16,588.47v.91l-4.73,1.87v-.88l3.76-1.45-3.76-1.44v-.88Z"/><path class="cls-7" d="M985.17,389.73c0,.33-73,.59-163.11.59s-163.13-.26-163.13-.59,73-.59,163.13-.59S985.17,389.4,985.17,389.73Z"/><path class="cls-7" d="M668.71,378.08a2.1,2.1,0,1,1-2.1-2.1A2.1,2.1,0,0,1,668.71,378.08Z"/><circle class="cls-7" cx="674.67" cy="378.08" r="2.1"/><path class="cls-7" d="M684.83,378.08a2.1,2.1,0,1,1-2.1-2.1A2.1,2.1,0,0,1,684.83,378.08Z"/><path class="cls-3" d="M679.65,636.47c-.33,0-.59-55.37-.59-123.66s.26-123.66.59-123.66.59,55.35.59,123.66S680,636.47,679.65,636.47Z"/><rect class="cls-8" x="222.79" y="149.45" width="134.84" height="96.12"/><path class="cls-2" d="M358.69,163.71c0,.33-30.43.59-68,.59s-68-.26-68-.59,30.44-.59,68-.59S358.69,163.38,358.69,163.71Z"/><path class="cls-2" d="M233.8,156.7a1.83,1.83,0,1,1-1.82-1.6A1.71,1.71,0,0,1,233.8,156.7Z"/><path class="cls-2" d="M240.42,156.7a1.83,1.83,0,1,1-1.82-1.6A1.72,1.72,0,0,1,240.42,156.7Z"/><ellipse class="cls-2" cx="245.22" cy="156.7" rx="1.82" ry="1.59"/><path class="cls-2" d="M272.66,202.05c0,5.77-4.18,9.25-11.07,9.25h-7.28v8.56h-2.86v-27.1h10.14C268.48,192.76,272.66,196.24,272.66,202.05Zm-2.86,0c0-4.34-2.86-6.82-8.29-6.82h-7.2v13.56h7.2C266.94,208.79,269.8,206.31,269.8,202.05Z"/><path class="cls-2" d="M301.5,192.76v27.1h-2.83V207.35h-17v12.51h-2.86v-27.1h2.86v12.08h17V192.76Z"/><path class="cls-2" d="M331.53,202.05c0,5.77-4.18,9.25-11.07,9.25h-7.28v8.56h-2.86v-27.1h10.14C327.35,192.76,331.53,196.24,331.53,202.05Zm-2.86,0c0-4.34-2.87-6.82-8.29-6.82h-7.2v13.56h7.2C325.8,208.79,328.67,206.31,328.67,202.05Z"/><rect class="cls-8" x="955.99" y="517.04" width="121.9" height="86.89"/><path class="cls-2" d="M997.1,557.39v17.24h-4v-7.07h-7.84v7.07h-4V557.39h4v6.8h7.84v-6.8Z"/><path class="cls-2" d="M1004.76,560.64h-5.52v-3.25h15v3.25h-5.52v14h-4Z"/><path class="cls-2" d="M1016.42,557.39h4v14h8.65v3.25h-12.64Z"/><path class="cls-2" d="M1047,574.63l0-10.34-5.08,8.52h-1.79l-5.06-8.3v10.12h-3.74V557.39h3.3l6.46,10.72,6.35-10.72h3.28l0,17.24Z"/><path class="cls-2" d="M1078.84,529.93c0,.21-27.51.39-61.45.39s-61.45-.18-61.45-.39,27.51-.38,61.45-.38S1078.84,529.72,1078.84,529.93Z"/><path class="cls-2" d="M965.94,523.59a1.66,1.66,0,1,1-1.64-1.44A1.55,1.55,0,0,1,965.94,523.59Z"/><path class="cls-2" d="M971.92,523.59a1.65,1.65,0,1,1-1.64-1.44A1.54,1.54,0,0,1,971.92,523.59Z"/><path class="cls-2" d="M977.9,523.59a1.65,1.65,0,1,1-1.64-1.44A1.54,1.54,0,0,1,977.9,523.59Z"/><rect class="cls-8" x="158.09" y="515.79" width="89.86" height="64.05"/><path class="cls-2" d="M248.65,525.29c0,.16-20.28.29-45.3.29s-45.3-.13-45.3-.29,20.28-.28,45.3-.28S248.65,525.14,248.65,525.29Z"/><path class="cls-2" d="M165.42,520.62a1.22,1.22,0,1,1-1.21-1.06A1.15,1.15,0,0,1,165.42,520.62Z"/><path class="cls-2" d="M169.83,520.62a1.22,1.22,0,1,1-1.21-1.06A1.15,1.15,0,0,1,169.83,520.62Z"/><path class="cls-2" d="M174.24,520.62a1.22,1.22,0,1,1-1.21-1.06A1.15,1.15,0,0,1,174.24,520.62Z"/><path class="cls-8" d="M693.52,268.94c0-9.81,7.45-17.07,17.45-17.07,4.77,0,9,1.54,12,4.66l-1.54,1.59a14.08,14.08,0,0,0-10.34-4c-8.61,0-15.1,6.35-15.1,14.81s6.49,14.81,15.1,14.81a14.15,14.15,0,0,0,10.34-4L723,281.3c-2.93,3.13-7.21,4.71-12,4.71C701,286,693.52,278.75,693.52,268.94Z"/><path class="cls-8" d="M727.57,281.45l1.1-1.83c2.31,2.4,6.59,4.23,11.11,4.23,6.74,0,9.72-2.93,9.72-6.59,0-10.1-21-4-21-16.45,0-4.76,3.66-8.94,11.93-8.94a18,18,0,0,1,10.15,3l-.92,2a16.66,16.66,0,0,0-9.23-2.84c-6.54,0-9.48,3-9.48,6.74,0,10.1,21,4.13,21,16.35,0,4.76-3.8,8.89-12.12,8.89C734.83,286,730,284.14,727.57,281.45Z"/><path class="cls-8" d="M756.85,281.45l1.11-1.83c2.31,2.4,6.59,4.23,11.11,4.23,6.73,0,9.71-2.93,9.71-6.59,0-10.1-21-4-21-16.45,0-4.76,3.65-8.94,11.93-8.94a18,18,0,0,1,10.14,3l-.91,2A16.68,16.68,0,0,0,769.7,254c-6.55,0-9.48,3-9.48,6.74,0,10.1,21,4.13,21,16.35,0,4.76-3.8,8.89-12.12,8.89C764.11,286,759.31,284.14,756.85,281.45Z"/><path class="cls-8" d="M809.9,312.71s0-.62-.06-1.78,0-2.92-.05-5.13c0-4.51-.07-11.08-.12-19.48-.06-16.82-.14-41-.24-70.46l.47.47L660,216.46h0l.59-.6c0,34.4,0,67.14,0,96.85l-.55-.54,107.87.26,30.94.15,8.26.07,2.14,0,.75,0a5.56,5.56,0,0,1-.69,0l-2.08,0-8.15.07-30.81.15-108.23.27h-.54v-.55c0-29.71,0-62.45,0-96.85v-.59h.6l149.95.13h.47v.46c-.1,29.61-.18,53.86-.24,70.76,0,8.34-.09,14.88-.12,19.37,0,2.17,0,3.85,0,5S809.9,312.71,809.9,312.71Z"/><path class="cls-8" d="M809.9,230.23c0,.33-33.59.6-75,.6s-75-.27-75-.6,33.58-.59,75-.59S809.9,229.91,809.9,230.23Z"/><path class="cls-8" d="M671,223.17a1.85,1.85,0,1,1-1.83-1.61A1.73,1.73,0,0,1,671,223.17Z"/><path class="cls-8" d="M677.7,223.17a1.85,1.85,0,1,1-1.83-1.61A1.73,1.73,0,0,1,677.7,223.17Z"/><path class="cls-8" d="M684.37,223.17a1.85,1.85,0,1,1-1.83-1.61A1.73,1.73,0,0,1,684.37,223.17Z"/><path class="cls-9" d="M376.8,643.67l59.46,200.69a21,21,0,0,0,20.11,15l241.22.66a22.29,22.29,0,0,0,22.33-23.48h0a22.29,22.29,0,0,0-22.27-21.12H605.41L531.54,609.61H402.23A26.52,26.52,0,0,0,376.8,643.67Z"/><path class="cls-7" d="M580.88,831.92c0,.47-24.59.85-54.92.85s-54.94-.38-54.94-.85,24.59-.85,54.94-.85S580.88,831.46,580.88,831.92Z"/><path class="cls-7" d="M394.54,616c.45-.15,16.87,47.9,36.68,107.3S466.74,831,466.3,831.15s-16.87-47.89-36.69-107.32S394.09,616.13,394.54,616Z"/><polygon class="cls-9" points="570.85 1037.69 556.15 1037.34 556.15 859.38 570.85 859.38 570.85 1037.69"/><polygon class="cls-9" points="495.08 1036.88 631.92 1036.88 569.93 1015.33 555.23 1015.33 495.08 1036.88"/><path class="cls-8" d="M460.47,563.6l22.64,113.12-4,84.77,152.2-25.31-6-74.24-.12-61.43,37.32,72.33,29.06-56.13-53.2-96.37h0a89.67,89.67,0,0,0-34.81-22.53,71.58,71.58,0,0,0-21.81-4.18h0a87.56,87.56,0,0,1-52.69,0c-2.14.27-5.11.55-8.85,1l-.68.08c-32.3,3.93-56.95,30.79-58.73,63.28Z"/><path class="cls-8" d="M520.19,494.66s-62.53.47-70.28,66.52l-1.05,48.43,53.86-.46Z"/><path class="cls-10" d="M669.6,579.62c0,.47-49.21.85-109.9.85s-109.91-.38-109.91-.85,49.2-.85,109.91-.85S669.6,579.15,669.6,579.62Z"/><path class="cls-10" d="M669.6,590.09c0,.47-49.21.85-109.9.85s-109.91-.38-109.91-.85,49.2-.85,109.91-.85S669.6,589.62,669.6,590.09Z"/><path class="cls-10" d="M666.07,571c0,.46-48.42.85-108.13.85s-108.15-.39-108.15-.85,48.41-.85,108.15-.85S666.07,570.48,666.07,571Z"/><path class="cls-7" d="M624.37,672.84c-.47,0-.26-26.78.46-59.78s1.7-59.76,2.17-59.75.26,26.77-.47,59.79S624.84,672.85,624.37,672.84Z"/><path class="cls-11" d="M603,629.43s29.58,2.11,34.9,9.93,13.44,30.13,10.37,30.29A8.42,8.42,0,0,1,643,668l-8.11-14.37s1.3,13.88-3.54,14.16-28.87,5.08-28.87,5.08Z"/><path class="cls-8" d="M448.88,596.72,448.77,673a29,29,0,0,0,35.1,26.74l119.27-24.57-.26-48.91L500,646l-1.38-51.76Z"/><path class="cls-7" d="M516.93,693.61a8,8,0,0,1,1.57-.44l4.62-1,17.53-3.71,62.08-12.69-.61.75c0-15.36,0-32.32-.08-50.23l1,.82-21,4-82,15.6-.89.17,0-.89,1.89-55c.27-6.51.49-11.68.64-15.36.09-1.67.17-3,.22-4a6.54,6.54,0,0,1,.16-1.38,6.51,6.51,0,0,1,.07,1.39c0,1,0,2.37,0,4-.06,3.69-.14,8.86-.24,15.37-.31,13.39-.75,32.29-1.28,55l-.86-.73,81.91-15.85,21-4,1-.19v1c0,17.91-.05,34.87-.08,50.23v.62l-.61.12-62.2,12.09-17.61,3.29-4.67.81A8.56,8.56,0,0,1,516.93,693.61Z"/><path class="cls-7" d="M585.34,494.66c.06,0,.22.36.49,1.12a22.3,22.3,0,0,1,.92,3.37,27.51,27.51,0,0,1-.56,12.83,33.72,33.72,0,0,1-10.35,16,32.14,32.14,0,0,1-21.71,8.2,29.48,29.48,0,0,1-21.46-8.72,30.18,30.18,0,0,1-8-17.27,27.25,27.25,0,0,1,1.5-12.76,18,18,0,0,1,1.53-3.14c.41-.69.65-1,.7-1s-.72,1.52-1.61,4.36a28.43,28.43,0,0,0-.93,12.39,29.5,29.5,0,0,0,7.92,16.33,28.23,28.23,0,0,0,20.33,8.11,31,31,0,0,0,20.68-7.68A33.29,33.29,0,0,0,585,511.64a28.87,28.87,0,0,0,1.06-12.39C585.71,496.3,585.17,494.71,585.34,494.66Z"/><path class="cls-10" d="M591.1,679.19c-.24,0-.15-2.9,0-7.52s.4-11,.45-18.08-.11-13.45-.23-18.09-.18-7.5.06-7.52.71,2.82,1.14,7.45.77,11.06.73,18.17-.46,13.52-.95,18.15S591.32,679.21,591.1,679.19Z"/><path class="cls-10" d="M584.94,680.44c-.24,0-.26-2.87-.21-7.47,0-5.26.12-11.3.19-18s0-12.71,0-18c0-4.6.05-7.46.29-7.47s.6,2.82.92,7.43.54,11,.51,18-.33,13.41-.69,18S585.17,680.45,584.94,680.44Z"/><path class="cls-8" d="M704.38,983.44l22.54,62.07,32,44a6.76,6.76,0,0,1-1.87,9.71h0a6.72,6.72,0,0,1-6.17.53c-12.9-5.35-60.25-25.27-61.64-29.91-1.62-5.37-32.18-72.13-32.18-72.13Z"/><g class="cls-12"><path class="cls-2" d="M757,1099.18l-69.43-33.53,1,2.61a10.1,10.1,0,0,0,4.64,5.27c5.7,3.08,21.61,11.21,57.41,26.26a6.76,6.76,0,0,0,6.36-.61Z"/></g><g class="cls-12"><path class="cls-2" d="M692.5,1040.88a4.1,4.1,0,0,1,3,4.58,3.94,3.94,0,0,1-4.51,3c-2-.43-3.74-2.94-3.14-4.86s3.24-3.49,5-2.6"/></g><path class="cls-7" d="M732.5,1077.77c.41,0,.55-3.73,3.53-6.89s6.63-3.7,6.56-4.11c0-.17-1-.35-2.49,0a10.49,10.49,0,0,0-5.14,3.12,10.65,10.65,0,0,0-2.67,5.39C732.07,1076.83,732.33,1077.78,732.5,1077.77Z"/><path class="cls-7" d="M740.09,1084.3c.4.16,1.59-2.61,4.42-4.77s5.76-2.69,5.71-3.11-3.41-.54-6.6,2S739.71,1084.26,740.09,1084.3Z"/><path class="cls-7" d="M720.23,1070.38c.4.18,2.22-4.09,6.32-7.82s8.45-5.27,8.3-5.68-4.93.56-9.28,4.62S719.86,1070.32,720.23,1070.38Z"/><path class="cls-7" d="M711.8,1052.08c.31.31,3.15-2.44,7.51-4.32s8.29-2.18,8.27-2.62-4.18-.78-8.85,1.29S711.49,1051.87,711.8,1052.08Z"/><path class="cls-7" d="M704.72,1034c.33.28,2.95-3.1,7.71-4.71s8.87-.7,9-1.12c0-.17-.92-.68-2.66-1a14.72,14.72,0,0,0-12.51,4.38C705,1032.92,704.58,1033.93,704.72,1034Z"/><path class="cls-7" d="M711,1025.93a5.75,5.75,0,0,0-.82-2.36,17.39,17.39,0,0,0-4.23-5.38c-1.11-.89-2.37-2.09-4.41-2.23a2.71,2.71,0,0,0-2.63,1.68,4.38,4.38,0,0,0,.11,3.15c1.58,3.89,6.4,6.36,11,5.21a11.1,11.1,0,0,0,8.05-9.36,3.87,3.87,0,0,0-1-3,2.66,2.66,0,0,0-3.12-.3,9.42,9.42,0,0,0-3.23,3.68,19.39,19.39,0,0,0-2.34,6.42,5.9,5.9,0,0,0-.12,2.49c.28.08.38-3.62,3.33-8.37a8.86,8.86,0,0,1,2.9-3.15,1.43,1.43,0,0,1,1.7.16,2.6,2.6,0,0,1,.53,2,9.9,9.9,0,0,1-7.07,8c-3.88,1-8.11-1.18-9.42-4.29a3.22,3.22,0,0,1-.17-2.2,1.48,1.48,0,0,1,1.44-1c1.39,0,2.7,1,3.77,1.82C709.63,1022.49,710.73,1026.09,711,1025.93Z"/><path class="cls-8" d="M799.54,967.2l-1.95,50.45s50.63,18.92,51.18,28.28l-98-.26-.19-78.73Z"/><g class="cls-12"><path class="cls-2" d="M767.31,1013.32a4,4,0,0,0-2.77,4.56,3.84,3.84,0,0,0,4.49,2.8c1.91-.48,3.56-3,2.92-4.85s-3.26-3.31-5-2.38"/></g><g class="cls-12"><path class="cls-2" d="M750.81,1045.67l0-7.85,94.12,3.13s4.36,1.91,3.86,5Z"/></g><path class="cls-7" d="M799.18,1017.16c0,.47-2.41.68-4.77,2.22s-3.61,3.54-4,3.34.28-3,3.17-4.75S799.29,1016.72,799.18,1017.16Z"/><path class="cls-7" d="M809.44,1021.43c.11.47-2,1.28-3.59,3.29s-2.11,4.16-2.58,4.14-.78-2.73,1.3-5.2S809.44,1021,809.44,1021.43Z"/><path class="cls-7" d="M815.25,1033.75c-.44.1-1.1-2.29.14-4.91s3.47-3.65,3.67-3.25-1.18,1.79-2.16,4S815.72,1033.7,815.25,1033.75Z"/><path class="cls-7" d="M798.35,1005.61c-.2.43-2.39-.23-5.1-.05s-4.81,1-5.06.61,1.78-2.11,5-2.28S798.59,1005.23,798.35,1005.61Z"/><g class="cls-4"><polygon points="799.14 977.19 798.81 986.18 750.67 985.61 750.63 977.51 799.14 977.19"/></g><path class="cls-7" d="M798.56,995.42c0,.2-1.89.49-4.91,0a22.92,22.92,0,0,1-5.13-1.59,23.41,23.41,0,0,1-2.81-1.51,5.79,5.79,0,0,1-1.48-1.16,2.07,2.07,0,0,1-.21-2.54,2.64,2.64,0,0,1,2.1-1.09,6.63,6.63,0,0,1,1.84.26,17.5,17.5,0,0,1,7.56,4c2.27,2.11,3,3.9,2.87,4s-1.32-1.34-3.62-3.09a20.19,20.19,0,0,0-4.37-2.48,18.21,18.21,0,0,0-2.82-.87c-1-.28-1.92-.29-2.18.17-.1.18-.11.25.1.55a5.23,5.23,0,0,0,1.09.85,24.54,24.54,0,0,0,2.59,1.49,27.79,27.79,0,0,0,4.73,1.83C796.72,995,798.56,995.17,798.56,995.42Z"/><path class="cls-7" d="M797.93,996.11c-.17.07-1.11-1.65-1.28-4.74a16,16,0,0,1,.68-5.37,16.5,16.5,0,0,1,1.26-3,4.08,4.08,0,0,1,3.14-2.47,2.29,2.29,0,0,1,2,1.38,6.54,6.54,0,0,1,.5,1.8,11.06,11.06,0,0,1,0,3.3,11.36,11.36,0,0,1-2.11,5.06c-1.92,2.54-3.92,3.1-4,2.94s1.51-1.16,3-3.59a11.21,11.21,0,0,0,1.56-4.61,10,10,0,0,0-.08-2.83c-.15-1-.54-1.89-.93-1.78s-1.31.77-1.72,1.6a17,17,0,0,0-1.22,2.66,17.4,17.4,0,0,0-1,4.89C797.69,994.24,798.19,996,797.93,996.11Z"/><path class="cls-7" d="M750.72,725.36c-57.87,6-134.58,13.84-134.58,13.84l10.46,94.19S739.31,803.61,738.5,806s5.22,200.41,5.22,200.41H811.6l1.27-224.22A56.35,56.35,0,0,0,750.72,725.36Z"/><path class="cls-7" d="M477.67,763.35v29.21c0,19.88,22.64,41,42.52,41h15.38c12.11,0,31.09-8.82,40.88-16l5.87-4.29L653,1032.21s80.87-14.49,80.87-17-54.76-179.33-80-261.38c-10.32-33.5-46.22-53-79.37-41.61-1.13.39-2.27.81-3.4,1.26C534.82,727.93,477.67,763.35,477.67,763.35Z"/><path class="cls-9" d="M733.86,1015.17a4.24,4.24,0,0,1-.35-.78l-.9-2.35c-.77-2.06-1.88-5.12-3.2-9.08-2.72-7.92-6.43-19.45-10.95-33.71-9-28.53-21.1-68-34.26-111.76-6.54-21.87-12.77-42.69-18.45-61.66-2.82-9.47-5.49-18.48-8-26.91l-3.64-12.2a106.35,106.35,0,0,0-3.68-11.07A45.35,45.35,0,0,0,639,729.48a97,97,0,0,0-12-9.31c-3.46-2.33-6.22-4-8.1-5.18l-2.13-1.33a3.47,3.47,0,0,1-.69-.5,3.05,3.05,0,0,1,.78.35l2.21,1.18c1.94,1,4.76,2.67,8.29,4.92a92.17,92.17,0,0,1,12.24,9.17,46,46,0,0,1,11.88,16.4,111.36,111.36,0,0,1,3.83,11.16l3.73,12.17c2.55,8.42,5.28,17.42,8.15,26.87,5.71,19,12,39.77,18.58,61.62,13.17,43.64,25.1,83.14,33.78,111.89,4.37,14.2,7.92,25.73,10.43,33.86,1.22,3.89,2.19,7,2.9,9.18.29,1,.54,1.76.73,2.4A2.78,2.78,0,0,1,733.86,1015.17Z"/><path class="cls-9" d="M750.92,777.77c.42.3-3.43,6.07-6.65,13.92s-4.65,14.62-5.15,14.53.22-7.14,3.58-15.18S750.59,777.5,750.92,777.77Z"/><path class="cls-9" d="M763.89,786.88c.2.47-5.64,3-11.71,7.84s-10,9.83-10.4,9.53,3-5.91,9.35-10.86S763.77,786.47,763.89,786.88Z"/><path class="cls-9" d="M653.76,1032.21c-.45.15-19.54-58.45-42.65-130.85s-41.47-131.24-41-131.38,19.54,58.44,42.64,130.86S654.2,1032.07,653.76,1032.21Z"/><polygon class="cls-9" points="567.02 690.65 798.36 692.88 841.5 570.95 673.23 572.08 634.18 681.73 567.02 682.74 567.02 690.65"/><path class="cls-2" d="M742.41,642.42a9.37,9.37,0,1,1,10.59-8A9.37,9.37,0,0,1,742.41,642.42Z"/><path class="cls-7" d="M548.15,360.61c2.18-8.11,8.28-12.11,16.23-14.82a26.21,26.21,0,0,1,23.9,3.88c4.47,3.4,8,8.35,13.28,10.19,8.74,3,19-3.5,27.36.42A11.94,11.94,0,0,1,623.27,383c5.71,2.08,7.48,10.22,4.15,15.29s-10.18,7-16.15,5.88-11.17-4.73-15.69-8.79-8.56-8.65-13.38-12.34-10.68-6.47-16.74-6.15c-8.21.45-15.26,6.63-18.91,14s-4.51,15.77-5,24-.6,16.55-3,24.41c-.28.92-.72,2-1.64,2.23-1.33.41-2.47-1-3.13-2.23A120.61,120.61,0,0,1,520,394.43c-.93-9.1-.69-17.71,4.31-25.36s17.64-13.3,23.84-8.46"/><path class="cls-11" d="M532.27,398.7l-4.2,92.08c-.71,15.65,1.44,38.8,26.25,38.8h0c21.52-1.62,27.89-21.74,28.54-36.35.31-6.93.58-12.71.66-13.42,0,0,23.54-1.14,26.29-24.26,1.33-11.17,2.19-34.41,2.73-55.45a43.38,43.38,0,0,0-38.79-44.21l-2.23-.24C547.28,354.49,532.76,374.43,532.27,398.7Z"/><path class="cls-13" d="M583.59,479.48s-14.76-.37-29.27-11.79c0,0,5.36,17.42,28.69,17.79Z"/><path class="cls-7" d="M604.14,414.89a3.32,3.32,0,0,1-3.54,3,3.18,3.18,0,0,1-3.09-3.34,3.32,3.32,0,0,1,3.54-3A3.17,3.17,0,0,1,604.14,414.89Z"/><path class="cls-7" d="M606.35,410.94c-.45.39-2.76-1.74-6.32-2.1s-6.35,1.13-6.69.65c-.17-.21.33-.95,1.55-1.65a9.06,9.06,0,0,1,5.42-1.06,8.76,8.76,0,0,1,5,2.21C606.29,410,606.58,410.77,606.35,410.94Z"/><path class="cls-7" d="M569.12,412.39a3.32,3.32,0,0,1-3.55,3,3.18,3.18,0,0,1-3.09-3.34,3.34,3.34,0,0,1,3.54-3A3.19,3.19,0,0,1,569.12,412.39Z"/><path class="cls-7" d="M571.31,407.88c-.46.39-2.77-1.73-6.32-2.1s-6.36,1.13-6.7.65c-.17-.21.33-.94,1.56-1.65a9.1,9.1,0,0,1,5.41-1.06,8.76,8.76,0,0,1,5,2.21C571.24,406.89,571.53,407.71,571.31,407.88Z"/><path class="cls-7" d="M581.41,435.64c0-.2,2.26-.35,5.89-.43.92,0,1.8-.08,2-.69a4.64,4.64,0,0,0-.32-2.75l-2-7.21c-2.68-10.25-4.52-18.63-4.11-18.74s2.93,8.12,5.61,18.37l1.83,7.23c.24,1.07.7,2.3.09,3.62a2.29,2.29,0,0,1-1.63,1.17,6.56,6.56,0,0,1-1.57.05C583.64,436.07,581.41,435.84,581.41,435.64Z"/><path class="cls-7" d="M570.68,437c.58,0,.18,3.89,3.19,7s7.17,3.11,7.15,3.65c0,.25-1,.65-2.74.51a9.65,9.65,0,0,1-6-2.82,8.41,8.41,0,0,1-2.43-5.83C569.89,437.85,570.42,436.94,570.68,437Z"/><path class="cls-7" d="M573.71,394c-.45.93-4,.1-8.18.16s-7.73.83-8.19-.09c-.2-.45.48-1.29,1.94-2.08a14.17,14.17,0,0,1,12.47,0C573.22,392.75,573.91,393.59,573.71,394Z"/><path class="cls-7" d="M606.14,400.5c-.71.74-3.07-.36-6-.71s-5.51,0-6-.94c-.21-.44.27-1.21,1.44-1.86a8.43,8.43,0,0,1,5-.8,8.32,8.32,0,0,1,4.63,2.14C606.21,399.27,606.46,400.14,606.14,400.5Z"/><path class="cls-11" d="M532.34,416c-.38-.21-15.41-6.4-16.59,9.49s15,13.79,15.07,13.33S532.34,416,532.34,416Z"/><path class="cls-13" d="M526.42,432.49c-.07-.06-.29.17-.78.35a2.8,2.8,0,0,1-2.07-.11c-1.63-.74-2.85-3.51-2.71-6.38a9.13,9.13,0,0,1,1.07-3.9,3.17,3.17,0,0,1,2.24-2,1.39,1.39,0,0,1,1.57.88c.18.46.06.77.14.8s.36-.24.28-.91a1.75,1.75,0,0,0-.55-1,2.1,2.1,0,0,0-1.5-.52,3.9,3.9,0,0,0-3.07,2.25,9.41,9.41,0,0,0-1.29,4.36c-.14,3.21,1.28,6.32,3.53,7.16a3,3,0,0,0,2.56-.24C526.36,432.87,526.47,432.52,526.42,432.49Z"/><path class="cls-7" d="M618,395.82A33.59,33.59,0,0,1,589,386c-5.13-5.37-8.74-12.7-15.57-15.62-4.59-2-10-1.51-14.59.43a36.61,36.61,0,0,0-12,8.86c3.22,12.25-1.18,25.06-5.53,36.95a6.33,6.33,0,0,1-2.23,3.46c-2,1.24-4.71-.18-6.16-2.07-2.32-3-2.92-7-3.19-10.77a65.46,65.46,0,0,1,2.88-25.66,44.5,44.5,0,0,1,14.57-21.08,42.24,42.24,0,0,1,30.64-8,51.85,51.85,0,0,1,28.77,13.88c3.67,3.43,6.95,7.46,8.53,12.23"/><path class="cls-8" d="M173,885.19c8.12-4.18,17.67-4.73,26.67-3.24,4.84.8,9.89,2.25,13.18,5.88s3.92,10,.14,13.16c-2.25,1.85-5.39,2.14-8.31,2.1-7.05-.08-14.88-1.32-20.51,2.92-3.21,2.42-5.35,6.45-9.19,7.64s-8-1.06-10-4.45-2.06-7.63-1.13-11.46A17.5,17.5,0,0,1,173,885.19Z"/><path class="cls-8" d="M154.39,849.31c5,7.09,14.6,4.74,19.07.42s6.36-10.6,8.08-16.58c3.93-13.65,7.89-28,5-41.89-.88-4.15-2.43-8.3-5.35-11.39S173.74,775,169.64,776c-4.86,1.28-7.89,6.05-10.07,10.58a99.81,99.81,0,0,0-9.87,42.85c0,6.9.79,14.14,4.69,19.84"/><path class="cls-8" d="M140.76,859.48c5.39-6.4,6.41-15.72,4-23.73s-7.81-14.82-14.05-20.38a75.54,75.54,0,0,0-25.16-14.85c-3.64-1.28-7.48-2.29-11.32-1.92s-7.7,2.33-9.49,5.75c-2.65,5-.11,11.17,2.63,16.17a192.15,192.15,0,0,0,16.53,25.17c5,6.38,10.63,12.68,18.18,15.57s15.39,2.55,19.39-2.69"/><path class="cls-7" d="M154.05,956.19a15.94,15.94,0,0,0,.45-3.22c.23-2.34.51-5.29.85-8.79a126.51,126.51,0,0,1,2-12.88A99.79,99.79,0,0,1,162,916.09a56.25,56.25,0,0,1,7.77-13.77,29,29,0,0,1,9.82-8.16,27.82,27.82,0,0,1,8.27-2.58,15.69,15.69,0,0,0,3.21-.46,15,15,0,0,0-3.27,0,25.13,25.13,0,0,0-8.62,2.24,29.07,29.07,0,0,0-10.36,8.24,54.6,54.6,0,0,0-8.05,14,93.43,93.43,0,0,0-4.65,15.46,109.32,109.32,0,0,0-1.71,13.05c-.28,3.73-.39,6.75-.44,8.84A15.58,15.58,0,0,0,154.05,956.19Z"/><path class="cls-7" d="M154.66,949.43a7,7,0,0,0,.08-1.5c0-1.12,0-2.53,0-4.27,0-3.7,0-9.07.19-15.69.33-13.25,1.47-27.51,3.67-47.62,2.09-18.9,4.89-40.9,7.85-55.21.63-3.25,1.27-6.18,1.87-8.74s1.06-4.79,1.53-6.58.74-3.06,1-4.15a5.6,5.6,0,0,0,.26-1.48,6.78,6.78,0,0,0-.52,1.41c-.32,1.07-.73,2.42-1.24,4.09s-1.11,4-1.75,6.53-1.38,5.48-2.07,8.73a484.44,484.44,0,0,0-8.25,51.22c-2.21,20.15-3.2,38.49-3.29,51.78-.08,6.64.06,12,.23,15.73.11,1.73.2,3.14.26,4.27A6.08,6.08,0,0,0,154.66,949.43Z"/><path class="cls-7" d="M154.74,914.05a26.72,26.72,0,0,0,0-4.46c-.16-2.87-.56-7-1.36-12.09a160.43,160.43,0,0,0-3.94-17.62A144,144,0,0,0,142.05,859c-6.11-14.5-14.41-26.35-21.63-33.69a57.17,57.17,0,0,0-5.09-4.73c-.78-.66-1.47-1.32-2.18-1.84l-2-1.36a28.37,28.37,0,0,0-3.76-2.4c-.21.29,5.32,3.55,12.32,11s15,19.19,21.09,33.57a165.36,165.36,0,0,1,7.41,20.65,179.27,179.27,0,0,1,4.18,17.44c.92,5,1.46,9.13,1.78,12A29.07,29.07,0,0,0,154.74,914.05Z"/><polygon class="cls-7" points="120.55 976.46 124.09 1025.03 186.49 1025.03 190.03 976.46 120.55 976.46"/><rect class="cls-7" x="114.52" y="957.32" width="82.96" height="19.14"/><polygon class="cls-9" points="114.52 1023.17 114.52 1028.48 118.42 1028.48 196.11 1028.48 196.11 1023.17 114.52 1023.17"/><polygon class="cls-9" points="122.24 1037.82 118.42 1028.48 193.14 1028.48 188.68 1037.82 122.24 1037.82"/><path class="cls-3" d="M188.87,992.33s-.08.17-.29.45l-.93,1.24L184,998.67l-.16.2-.16-.21-8.93-12.35h.51l-8.79,12.45-.28.39-.3-.37-10.43-12.41h.6l-.57.72c-3.24,4-6.37,8-9.33,11.69l-.31.39-.28-.41c-3.17-4.48-6.13-8.66-8.8-12.45l.51,0-10.83,12.34-.19.22-.15-.25c-1.43-2.4-2.57-4.31-3.39-5.7-.36-.61-.64-1.11-.87-1.51a2.58,2.58,0,0,1-.27-.54,2.09,2.09,0,0,1,.36.48c.26.38.57.86,1,1.46l3.56,5.59-.34,0,10.66-12.49.27-.31.24.34,8.88,12.39-.6,0,9.3-11.71c.2-.24.39-.49.57-.72l.3-.37.3.37,10.4,12.43-.58,0,8.88-12.39.26-.36.25.36c3.52,5,6.51,9.29,8.74,12.49h-.31l3.78-4.54,1-1.17A2.33,2.33,0,0,1,188.87,992.33Z"/><path class="cls-9" d="M190.9,976.14c0,.21-15.63.39-34.91.39s-34.92-.18-34.92-.39,15.63-.39,34.92-.39S190.9,975.92,190.9,976.14Z"/><path class="cls-7" d="M194.05,1029c0,.22-17,.39-37.94.39s-38-.17-38-.39,17-.39,38-.39S194.05,1028.79,194.05,1029Z"/><polygon class="cls-7" points="931.68 469.84 888.34 651.13 900.46 651.13 943.16 469.84 931.68 469.84"/><path class="cls-7" d="M915,589.24c-.79,3.33,19.63,102.15,19.63,102.15h-9.83l-15.42-78.32Z"/><rect class="cls-8" x="856.33" y="822.04" width="203.06" height="215.27"/><rect class="cls-7" x="1059.39" y="853.5" width="9.97" height="9.97"/><rect class="cls-7" x="1059.39" y="885.15" width="9.97" height="9.97"/><rect class="cls-7" x="1059.39" y="916.81" width="9.97" height="9.97"/><rect class="cls-7" x="1059.39" y="948.46" width="9.97" height="9.97"/><path class="cls-7" d="M1069.73,919.72a14.3,14.3,0,0,1,3.06-.67,50.66,50.66,0,0,1,8.54-.81,23,23,0,0,1,12.34,3.25,14.29,14.29,0,0,1,6.86,13.67,17.16,17.16,0,0,1-2.59,7.8,20.57,20.57,0,0,1-5.25,5.56,27,27,0,0,1-11.88,4.69,39.22,39.22,0,0,1-8.58.29,12.36,12.36,0,0,1-3.11-.44,20.53,20.53,0,0,1,3.13,0,46.84,46.84,0,0,0,8.43-.66,27,27,0,0,0,11.36-4.74,17.49,17.49,0,0,0,7.31-12.58,13.29,13.29,0,0,0-6.27-12.65,22.71,22.71,0,0,0-11.76-3.33,63.78,63.78,0,0,0-8.47.43A16.14,16.14,0,0,1,1069.73,919.72Z"/><path class="cls-7" d="M1067.24,888.26a3.53,3.53,0,0,1,1-.58,20.9,20.9,0,0,1,3-1.2,23.39,23.39,0,0,1,11.66-.64,10.59,10.59,0,0,1,3.72,1.47,6.48,6.48,0,0,1,2.62,3.55,10.22,10.22,0,0,1-2.28,9.08,10.12,10.12,0,0,1-4.2,3.09,6.56,6.56,0,0,1-5.5-.29A5.62,5.62,0,0,1,1074,898a5.75,5.75,0,0,1,3.23-4.94,8.83,8.83,0,0,1,5.81-.61,12,12,0,0,1,5.06,2.42,13.61,13.61,0,0,1,5.06,9,12.78,12.78,0,0,1-2.59,9,18.4,18.4,0,0,1-6.25,5.27,29.88,29.88,0,0,1-11.31,3c-1.38.11-2.44.15-3.17.15a3.85,3.85,0,0,1-1.11,0c0-.1,1.52-.21,4.23-.56a31.42,31.42,0,0,0,11-3.23,17.71,17.71,0,0,0,5.84-5.11,11.82,11.82,0,0,0,2.31-8.31,12.64,12.64,0,0,0-4.7-8.26,10.8,10.8,0,0,0-4.58-2.17,7.71,7.71,0,0,0-5,.5,4.59,4.59,0,0,0-2.6,3.88,4.46,4.46,0,0,0,2.53,3.76,5.4,5.4,0,0,0,4.56.26,9,9,0,0,0,3.75-2.73,9.28,9.28,0,0,0,2.18-8.11c-.71-2.66-3.3-4-5.58-4.48a24,24,0,0,0-11.35.28C1068.65,887.64,1067.29,888.36,1067.24,888.26Z"/><path class="cls-7" d="M1067.35,857.36a5.47,5.47,0,0,1,2.21-.41,16.27,16.27,0,0,1,6.09.85,17.49,17.49,0,0,1,7.59,5.12,17.3,17.3,0,0,1,.65,21.16,17.53,17.53,0,0,1-7.26,5.57,16.33,16.33,0,0,1-6,1.22,5.52,5.52,0,0,1-2.23-.27c0-.26,3.3.34,7.93-1.72a17.29,17.29,0,0,0,6.71-5.45,16.58,16.58,0,0,0-.61-19.81,17.27,17.27,0,0,0-7-5C1070.62,856.82,1067.33,857.62,1067.35,857.36Z"/><path class="cls-7" d="M916.63,707.67a20.6,20.6,0,0,1,1.7,4,77.4,77.4,0,0,1,2.7,12.22c.84,5.38,1.55,12,2.25,19.68s1.36,16.45,2.59,26.06c.32,2.4.7,4.85,1.19,7.33a32.36,32.36,0,0,0,2.2,7.33,26.34,26.34,0,0,0,5,6.15,39.24,39.24,0,0,0,6.56,5.07,38.73,38.73,0,0,0,16.4,5.57,32.24,32.24,0,0,0,17.93-3.1,21.71,21.71,0,0,0,11.59-14.55,16.64,16.64,0,0,0-.68-9.67,17.12,17.12,0,0,0-6.31-7.62,19,19,0,0,0-9.6-3.2,15.21,15.21,0,0,0-9.73,2.86,10.73,10.73,0,0,0-3.29,3.89,8.08,8.08,0,0,0-.64,5,12.07,12.07,0,0,0,6.3,8,29.08,29.08,0,0,0,10.37,2.87,96.09,96.09,0,0,0,10.81.75,168.35,168.35,0,0,0,21.19-1.2c13.85-1.55,27.22-3.77,40.14-3.91s25.34,1.65,35.73,6.75a41.75,41.75,0,0,1,13.3,9.93,30.68,30.68,0,0,1,6.91,13.65,36.81,36.81,0,0,1-4,25.61,43.27,43.27,0,0,1-13.49,14.4,50.13,50.13,0,0,1-11.15,5.69,36.15,36.15,0,0,1-4.18,1.27s.34-.15,1-.39,1.72-.59,3-1.1a52.51,52.51,0,0,0,11-5.85,43.1,43.1,0,0,0,13.17-14.34,36.17,36.17,0,0,0,3.71-25.11,30,30,0,0,0-6.77-13.23,41.21,41.21,0,0,0-13.05-9.65c-10.22-5-22.54-6.78-35.29-6.54s-26.12,2.4-40,4a170.17,170.17,0,0,1-21.34,1.23,96.07,96.07,0,0,1-10.94-.76,30.2,30.2,0,0,1-10.79-3,13.19,13.19,0,0,1-6.89-8.83,9.21,9.21,0,0,1,.73-5.69,11.9,11.9,0,0,1,3.66-4.32,16.37,16.37,0,0,1,10.48-3.09,20.16,20.16,0,0,1,10.2,3.41,18.22,18.22,0,0,1,6.72,8.15,17.7,17.7,0,0,1,.72,10.34A22.84,22.84,0,0,1,975.63,799a33.33,33.33,0,0,1-18.54,3.16,40.08,40.08,0,0,1-23.51-11,26.94,26.94,0,0,1-5.14-6.43,33.06,33.06,0,0,1-2.24-7.56c-.48-2.51-.85-5-1.16-7.39-1.19-9.66-1.75-18.43-2.42-26.11s-1.28-14.3-2-19.67a83.1,83.1,0,0,0-2.46-12.22A26.48,26.48,0,0,0,917,708.7C916.75,708,916.63,707.67,916.63,707.67Z"/><path class="cls-7" d="M1047.84,1028.3s0-.33,0-1,0-1.56,0-2.75c0-2.45,0-6-.06-10.67,0-9.35-.08-23-.14-40.32-.06-34.65-.15-84-.26-143.11l.52.52-183.55.07h0l.6-.59c0,72.72-.06,140.67-.09,197.8l-.51-.5,133,.26,37.29.13,9.84.06c2.24,0,3.42,0,3.42,0s-1.11,0-3.31.06l-9.75.06-37.17.13-133.34.26h-.5v-.51c0-57.13-.06-125.08-.09-197.8v-.59h.61l183.55.07h.52v.52c-.11,59.21-.2,108.71-.26,143.44-.06,17.28-.11,30.88-.14,40.2,0,4.61,0,8.15-.06,10.57q0,1.76,0,2.7C1047.86,1028,1047.84,1028.3,1047.84,1028.3Z"/><path class="cls-7" d="M996.14,854.83a.94.94,0,1,1-.94-1A.94.94,0,0,1,996.14,854.83Z"/><path class="cls-7" d="M1001.33,854.83a.95.95,0,0,1-1.89,0,.95.95,0,1,1,1.89,0Z"/><path class="cls-7" d="M1006.52,854.83a.95.95,0,1,1-.95-1A.95.95,0,0,1,1006.52,854.83Z"/><path class="cls-7" d="M1011.7,854.83a.95.95,0,0,1-1.89,0,.95.95,0,1,1,1.89,0Z"/><path class="cls-7" d="M1016.89,854.83a.95.95,0,0,1-1.89,0,.95.95,0,1,1,1.89,0Z"/><path class="cls-7" d="M1022.08,854.83a.95.95,0,1,1-1-1A.95.95,0,0,1,1022.08,854.83Z"/><path class="cls-7" d="M1027.26,854.83a.95.95,0,0,1-1.89,0,.95.95,0,1,1,1.89,0Z"/><circle class="cls-7" cx="1023.93" cy="858.31" r="0.94"/><circle class="cls-7" cx="1018.62" cy="858.31" r="0.94"/><path class="cls-7" d="M1014.26,858.31a.95.95,0,1,1-1.89,0,.95.95,0,0,1,1.89,0Z"/><circle class="cls-7" cx="1008.01" cy="858.31" r="0.94"/><circle class="cls-7" cx="1002.7" cy="858.31" r="0.94"/><path class="cls-7" d="M998.34,858.31a.95.95,0,1,1-.94-.94A.95.95,0,0,1,998.34,858.31Z"/><path class="cls-7" d="M996.14,862.26a.94.94,0,1,1-.94-1A.94.94,0,0,1,996.14,862.26Z"/><path class="cls-7" d="M1001.33,862.26a.95.95,0,0,1-1.89,0,.95.95,0,1,1,1.89,0Z"/><path class="cls-7" d="M1006.52,862.26a.95.95,0,1,1-.95-1A.95.95,0,0,1,1006.52,862.26Z"/><path class="cls-7" d="M1011.7,862.26a.95.95,0,0,1-1.89,0,.95.95,0,1,1,1.89,0Z"/><path class="cls-7" d="M1016.89,862.26a.95.95,0,0,1-1.89,0,.95.95,0,1,1,1.89,0Z"/><path class="cls-7" d="M1022.08,862.26a.95.95,0,1,1-1-1A.95.95,0,0,1,1022.08,862.26Z"/><path class="cls-7" d="M1027.26,862.26a.95.95,0,0,1-1.89,0,.95.95,0,1,1,1.89,0Z"/><path class="cls-7" d="M1024.87,865.74a.95.95,0,1,1-.94-.94A.95.95,0,0,1,1024.87,865.74Z"/><path class="cls-7" d="M1019.57,865.74a.95.95,0,1,1-1.89,0,.95.95,0,0,1,1.89,0Z"/><path class="cls-7" d="M1014.26,865.74a.95.95,0,1,1-1.89,0,.95.95,0,0,1,1.89,0Z"/><path class="cls-7" d="M1009,865.74a.95.95,0,1,1-.94-.94A.95.95,0,0,1,1009,865.74Z"/><path class="cls-7" d="M1003.65,865.74a.95.95,0,1,1-1.89,0,.95.95,0,0,1,1.89,0Z"/><path class="cls-7" d="M998.34,865.74a.95.95,0,1,1-.94-.94A.95.95,0,0,1,998.34,865.74Z"/><path class="cls-7" d="M996.14,869.69a.94.94,0,1,1-.94-1A.94.94,0,0,1,996.14,869.69Z"/><path class="cls-7" d="M1001.33,869.69a.95.95,0,0,1-1.89,0,.95.95,0,1,1,1.89,0Z"/><path class="cls-7" d="M1006.52,869.69a.95.95,0,1,1-.95-1A.95.95,0,0,1,1006.52,869.69Z"/><path class="cls-7" d="M1011.7,869.69a.95.95,0,0,1-1.89,0,.95.95,0,1,1,1.89,0Z"/><path class="cls-7" d="M1016.89,869.69a.95.95,0,1,1-.94-1A.94.94,0,0,1,1016.89,869.69Z"/><path class="cls-7" d="M1022.08,869.69a.95.95,0,1,1-1-1A.95.95,0,0,1,1022.08,869.69Z"/><path class="cls-7" d="M1027.26,869.69a.95.95,0,0,1-1.89,0,.95.95,0,1,1,1.89,0Z"/><circle class="cls-7" cx="1023.93" cy="873.17" r="0.94"/><circle class="cls-7" cx="1018.62" cy="873.17" r="0.94"/><path class="cls-7" d="M1014.26,873.17a.95.95,0,1,1-1.89,0,.95.95,0,0,1,1.89,0Z"/><circle class="cls-7" cx="1008.01" cy="873.17" r="0.94"/><circle class="cls-7" cx="1002.7" cy="873.17" r="0.94"/><path class="cls-7" d="M998.34,873.17a.95.95,0,1,1-.94-.94A.95.95,0,0,1,998.34,873.17Z"/><path class="cls-3" d="M924.37,642.18a11.29,11.29,0,0,1,3.7.65,20.71,20.71,0,0,1,9,5.86c3.25,3.44,6,8.67,7.93,15a146.32,146.32,0,0,1,5,22c2.54,16.56,2.9,36.54,1.45,58.6-.55,5.49-1.73,11.33-5.09,16.26a20.7,20.7,0,0,1-6.42,6.21,14.41,14.41,0,0,1-8.87,2.11,13.79,13.79,0,0,1-8.44-3.93,10.46,10.46,0,0,1-2.49-4.13,8.78,8.78,0,0,1-.06-4.9,10.46,10.46,0,0,1,6.35-7.15,7.49,7.49,0,0,1,5,0,9.13,9.13,0,0,1,4,3,12.4,12.4,0,0,1,2.21,9.44,25.9,25.9,0,0,1-3.28,9,35.16,35.16,0,0,1-13,13.06,34.76,34.76,0,0,1-33.7.47,39.43,39.43,0,0,1-12.28-10.59A51.26,51.26,0,0,1,868,759.79c-3.53-9.28-4.55-18.54-5-26.87s0-15.92-.81-22.47a37.61,37.61,0,0,0-2.12-8.89,25.24,25.24,0,0,0-3.8-6.64,19,19,0,0,0-8.45-6.25,24.33,24.33,0,0,0-3.62-.86,11.8,11.8,0,0,1,3.7.64,18.73,18.73,0,0,1,8.72,6.18,25.31,25.31,0,0,1,4,6.73,37.61,37.61,0,0,1,2.24,9c.91,6.63.49,14.21,1,22.51s1.55,17.45,5.06,26.55a50.5,50.5,0,0,0,7.37,13.07,38.62,38.62,0,0,0,12,10.27,33.68,33.68,0,0,0,32.6-.51,34.1,34.1,0,0,0,12.51-12.64,24.87,24.87,0,0,0,3.14-8.54,11.22,11.22,0,0,0-2-8.55,8,8,0,0,0-3.48-2.64,6.33,6.33,0,0,0-4.23,0,9.33,9.33,0,0,0-5.6,6.34,8.17,8.17,0,0,0,2.26,7.92,12.53,12.53,0,0,0,7.7,3.58,13.21,13.21,0,0,0,8.18-1.94,19.38,19.38,0,0,0,6.06-5.86c3.22-4.68,4.39-10.32,5-15.72,1.5-21.94,1.22-41.91-1.19-58.38a150.51,150.51,0,0,0-4.8-21.91c-1.9-6.32-4.5-11.49-7.64-14.91a21.1,21.1,0,0,0-8.7-6A25.74,25.74,0,0,0,924.37,642.18Z"/><rect class="cls-3" x="830.91" y="675.11" width="75.6" height="14.4"/><rect class="cls-7" x="262.2" y="824.02" width="98.61" height="212.26"/><path class="cls-9" d="M352.33,1013.93s0-.32,0-.92,0-1.5,0-2.64c0-2.35,0-5.75-.07-10.15,0-8.88-.09-21.75-.16-37.92-.07-32.36-.16-77.92-.27-130.93l.57.56-82.5,0h0l.59-.59c-.06,70.91-.12,135.31-.16,182.56l-.43-.43,60.24.23,16.46.11,4.31,0c1,0,1.5,0,1.5,0s-.47,0-1.42,0l-4.23,0-16.36.11-60.5.23h-.43v-.43c0-47.25-.1-111.65-.16-182.56v-.59h.6l82.5,0h.56v.56c-.11,53.17-.2,98.86-.27,131.31-.07,16.12-.12,28.94-.15,37.79,0,4.35-.06,7.71-.08,10,0,1.1,0,2,0,2.57S352.33,1013.93,352.33,1013.93Z"/><path class="cls-9" d="M347.23,846.82s-.06-.79-.11-2.21-.09-3.56-.15-6.15l.26.25c-12.76.2-40.11.34-71.74.34h0l.59-.59h0v8.34l-.59-.59c20.07,0,37.9.13,50.8.25l15.27.18,4.17.08a11.74,11.74,0,0,1,1.5.08,7.87,7.87,0,0,1-1.35.08l-4,.08-15.13.18c-12.88.11-30.92.24-51.23.25h-.59v-8.93h0l.59-.6h0c31.63,0,59,.14,71.74.33h.27v.26c-.06,2.65-.11,4.74-.15,6.3A13.61,13.61,0,0,1,347.23,846.82Z"/><path class="cls-9" d="M282.71,852.83c0,.33-1.48.59-3.31.59s-3.3-.26-3.3-.59,1.48-.59,3.3-.59S282.71,852.5,282.71,852.83Z"/><path class="cls-9" d="M345.31,863.78c0,.33-15.27.59-34.1.59s-34.1-.26-34.1-.59,15.26-.59,34.1-.59S345.31,863.45,345.31,863.78Z"/><path class="cls-9" d="M345.61,877c0,.33-15,.59-33.52.59s-33.51-.26-33.51-.59,15-.59,33.51-.59S345.61,876.68,345.61,877Z"/><circle class="cls-8" cx="311.21" cy="907.92" r="5.43"/><path class="cls-9" d="M295.92,907.67c0,.33-3.25.6-7.26.6s-7.25-.27-7.25-.6,3.25-.59,7.25-.59S295.92,907.35,295.92,907.67Z"/><path class="cls-9" d="M340,906.28c0,.32-3.09.59-6.91.59s-6.9-.27-6.9-.59,3.09-.6,6.9-.6S340,906,340,906.28Z"/><path class="cls-7" d="M265.58,930.54a20.19,20.19,0,0,1-3.69-.68,32.16,32.16,0,0,1-9.76-4.51,41.69,41.69,0,0,1-11.77-12.28,70.89,70.89,0,0,1-8.59-20.85A85.29,85.29,0,0,1,229.05,865a55.84,55.84,0,0,1,10.35-29.44,46.69,46.69,0,0,1,12.37-11.74,42.21,42.21,0,0,1,7.93-4,43.63,43.63,0,0,1,8.79-2.09c6-.84,12.16-.72,18.32-1.08s12.41-1.33,18-4.15,10-7.76,11.18-13.74a19.18,19.18,0,0,0-19.16-23.44,13.64,13.64,0,0,0-7.6,2.82,8.24,8.24,0,0,0-3.18,6.86,11,11,0,0,0,10.15,9.81c5.08.34,9.83-2.36,13-5.85a31.07,31.07,0,0,0,6.29-12.35,107.08,107.08,0,0,0,2.63-12.77c2.31-16.5,1.53-30.09,1.2-39.38-.23-4.61-.41-8.22-.54-10.73-.06-1.19-.1-2.11-.13-2.8a6.79,6.79,0,0,1,0-1,5,5,0,0,1,.13.94c.06.69.14,1.61.25,2.79.19,2.45.48,6.06.76,10.72.47,9.3,1.39,22.9-.83,39.53a106.62,106.62,0,0,1-2.58,12.9A32.26,32.26,0,0,1,310,789.7c-3.33,3.67-8.3,6.57-13.82,6.23A12.06,12.06,0,0,1,285,785.14a9.33,9.33,0,0,1,3.57-7.78,14.65,14.65,0,0,1,8.22-3.09,20.33,20.33,0,0,1,20.39,24.82,19.81,19.81,0,0,1-4.18,8.6,23.42,23.42,0,0,1-7.62,5.94c-5.83,2.94-12.27,3.93-18.47,4.27s-12.34.25-18.24,1.06a42.94,42.94,0,0,0-8.55,2,41.61,41.61,0,0,0-7.71,3.82,45.73,45.73,0,0,0-12.1,11.44A55,55,0,0,0,230,865.1,84.83,84.83,0,0,0,232.58,892a71,71,0,0,0,8.34,20.7A41.41,41.41,0,0,0,252.39,925a33.09,33.09,0,0,0,9.56,4.67c1.18.35,2.09.57,2.71.69A6,6,0,0,1,265.58,930.54Z"/><rect class="cls-7" x="231.98" y="494.75" width="233.5" height="160.34"/><rect class="cls-7" x="330.68" y="633.23" width="31.79" height="60.48"/><polygon class="cls-7" points="255.22 691.39 255.22 713.15 375.69 713.15 375.69 1037.34 386.78 1037.34 386.78 713.15 889.94 715.64 889.94 1037.34 900.81 1037.34 900.81 715.03 978.46 715.66 978.46 689.51 255.22 691.39"/><polygon class="cls-7" points="332.32 708.92 379.82 743.13 375.69 747.09 327.8 711 332.32 708.92"/><polygon class="cls-7" points="945.58 712.11 890.46 751.37 894.59 755.33 950.1 714.2 945.58 712.11"/><rect class="cls-7" x="430.42" y="683.37" width="124.52" height="9.16"/></g></g></svg>