<svg xmlns="http://www.w3.org/2000/svg" xmlns:xlink="http://www.w3.org/1999/xlink" viewBox="0 0 1200 1200"><defs><style>.cls-1{fill:#fceaff;}.cls-2{opacity:0.3;fill:url(#linear-gradient);}.cls-3{fill:url(#linear-gradient-2);}.cls-4{fill:url(#linear-gradient-3);}.cls-5{fill:url(#linear-gradient-4);}.cls-6{fill:url(#linear-gradient-5);}.cls-7{fill:url(#linear-gradient-6);}.cls-8{fill:url(#linear-gradient-7);}.cls-9{fill:url(#linear-gradient-8);}.cls-10{fill:url(#linear-gradient-9);}.cls-11{fill:url(#linear-gradient-10);}.cls-12{fill:url(#linear-gradient-11);}.cls-13{fill:url(#linear-gradient-12);}.cls-14{fill:url(#linear-gradient-13);}.cls-15{fill:url(#linear-gradient-14);}.cls-16{fill:url(#linear-gradient-15);}.cls-17{fill:url(#linear-gradient-16);}.cls-18{fill:url(#linear-gradient-17);}.cls-19{fill:url(#linear-gradient-18);}.cls-20{fill:url(#linear-gradient-19);}.cls-21{fill:url(#linear-gradient-20);}.cls-22,.cls-25,.cls-27{fill:#fff;}.cls-22{opacity:0.6;}.cls-23{fill:url(#linear-gradient-21);}.cls-24{fill:url(#linear-gradient-22);}.cls-26{fill:url(#linear-gradient-23);}.cls-27{opacity:0.32;}.cls-28{fill:url(#New_Gradient_Swatch_19);}.cls-29{fill:url(#New_Gradient_Swatch_1);}.cls-30{fill:url(#New_Gradient_Swatch_19-2);}.cls-31{fill:url(#linear-gradient-24);}.cls-32{fill:url(#linear-gradient-25);}.cls-33{fill:url(#New_Gradient_Swatch_1-2);}.cls-34{fill:url(#linear-gradient-26);}.cls-35{fill:url(#New_Gradient_Swatch_1-3);}.cls-36{fill:url(#linear-gradient-27);}.cls-37{fill:url(#linear-gradient-28);}.cls-38{fill:url(#New_Gradient_Swatch_1-4);}.cls-39{fill:url(#linear-gradient-29);}.cls-40{fill:url(#linear-gradient-30);}.cls-41{fill:url(#linear-gradient-31);}.cls-42{fill:url(#linear-gradient-32);}.cls-43{fill:url(#linear-gradient-33);}.cls-44{fill:url(#linear-gradient-34);}.cls-45{fill:url(#New_Gradient_Swatch_1-5);}.cls-46{fill:url(#linear-gradient-35);}</style><linearGradient id="linear-gradient" x1="1267.29" y1="1445.64" x2="321.03" y2="270.45" gradientUnits="userSpaceOnUse"><stop offset="0" stop-color="#b37cff"/><stop offset="1" stop-color="#f895e7"/></linearGradient><linearGradient id="linear-gradient-2" x1="98.21" y1="618.2" x2="1105.05" y2="618.2" gradientUnits="userSpaceOnUse"><stop offset="0" stop-color="#a737d5"/><stop offset="1" stop-color="#ef497a"/></linearGradient><linearGradient id="linear-gradient-3" x1="184.94" y1="561.89" x2="1029.42" y2="561.89" xlink:href="#linear-gradient-2"/><linearGradient id="linear-gradient-4" x1="184.77" y1="953.29" x2="970.28" y2="953.29" xlink:href="#linear-gradient-2"/><linearGradient id="linear-gradient-5" x1="98" y1="630.49" x2="1089.38" y2="630.49" xlink:href="#linear-gradient-2"/><linearGradient id="linear-gradient-6" x1="329.03" y1="51.68" x2="286.87" y2="354.53" gradientUnits="userSpaceOnUse"><stop offset="0" stop-color="#53d8ff"/><stop offset="1" stop-color="#3840f7"/></linearGradient><linearGradient id="linear-gradient-7" x1="323.1" y1="169.94" x2="210.38" y2="475.15" xlink:href="#linear-gradient-6"/><linearGradient id="linear-gradient-8" x1="1081.69" y1="171.03" x2="1039.54" y2="473.88" xlink:href="#linear-gradient-6"/><linearGradient id="linear-gradient-9" x1="1075.77" y1="289.29" x2="963.05" y2="594.49" xlink:href="#linear-gradient-6"/><linearGradient id="linear-gradient-10" x1="217.46" y1="792.01" x2="185.46" y2="1021.91" xlink:href="#linear-gradient-6"/><linearGradient id="linear-gradient-11" x1="212.85" y1="882.09" x2="128" y2="1111.83" xlink:href="#linear-gradient-6"/><linearGradient id="linear-gradient-12" x1="999.12" y1="811.26" x2="967.12" y2="1041.17" xlink:href="#linear-gradient-6"/><linearGradient id="linear-gradient-13" x1="994.51" y1="901.35" x2="909.66" y2="1131.09" xlink:href="#linear-gradient-6"/><linearGradient id="linear-gradient-14" x1="724.6" y1="-6.93" x2="691.73" y2="229.16" xlink:href="#linear-gradient-6"/><linearGradient id="linear-gradient-15" x1="719.87" y1="85.55" x2="632.66" y2="321.68" xlink:href="#linear-gradient-6"/><linearGradient id="linear-gradient-16" x1="137.48" y1="439.67" x2="104.61" y2="675.76" xlink:href="#linear-gradient-6"/><linearGradient id="linear-gradient-17" x1="132.75" y1="532.14" x2="45.54" y2="768.28" xlink:href="#linear-gradient-6"/><linearGradient id="linear-gradient-18" x1="1099.58" y1="519.52" x2="1066.71" y2="755.6" xlink:href="#linear-gradient-6"/><linearGradient id="linear-gradient-19" x1="1094.85" y1="611.99" x2="1007.64" y2="848.13" xlink:href="#linear-gradient-6"/><linearGradient id="linear-gradient-20" x1="360.17" y1="-3763.91" x2="764.74" y2="-3763.91" gradientTransform="matrix(0.22, -1.02, 1.01, 0.22, 4088.03, 2262.46)" gradientUnits="userSpaceOnUse"><stop offset="0" stop-color="#a737d5"/><stop offset="0.39" stop-color="#c33eb2"/><stop offset="1" stop-color="#ef497a"/></linearGradient><linearGradient id="linear-gradient-21" x1="-1439.25" y1="1235.2" x2="-1829.4" y2="1047.82" gradientTransform="matrix(-0.97, 0.24, 0.24, 0.97, -972.58, 208.45)" xlink:href="#linear-gradient"/><linearGradient id="linear-gradient-22" x1="816.65" y1="136.65" x2="536.27" y2="931.96" xlink:href="#linear-gradient-6"/><linearGradient id="linear-gradient-23" x1="764.39" y1="359.32" x2="214.42" y2="1653.37" xlink:href="#linear-gradient-6"/><linearGradient id="New_Gradient_Swatch_19" x1="880.56" y1="52.75" x2="782.17" y2="301.79" gradientUnits="userSpaceOnUse"><stop offset="0" stop-color="#fdf53f"/><stop offset="1" stop-color="#d93c65"/></linearGradient><linearGradient id="New_Gradient_Swatch_1" x1="-1900.03" y1="494.16" x2="-1940.52" y2="592.06" gradientTransform="matrix(-0.99, 0.16, 0.16, 0.99, -1182.88, 585.15)" gradientUnits="userSpaceOnUse"><stop offset="0" stop-color="#2b3582"/><stop offset="1" stop-color="#150e42"/></linearGradient><linearGradient id="New_Gradient_Swatch_19-2" x1="-2193.31" y1="869.49" x2="-2174.87" y2="1427.3" gradientTransform="matrix(-1, 0, 0, 1, -1396.03, 0)" xlink:href="#New_Gradient_Swatch_19"/><linearGradient id="linear-gradient-24" x1="-2300.03" y1="921.49" x2="-2177.85" y2="1216.61" gradientTransform="matrix(-1, 0, 0, 1, -1396.03, 0)" gradientUnits="userSpaceOnUse"><stop offset="0" stop-color="#f9b776"/><stop offset="1" stop-color="#f47960"/></linearGradient><linearGradient id="linear-gradient-25" x1="-5239.69" y1="920.86" x2="-5117.52" y2="1215.98" gradientTransform="translate(5927.1)" xlink:href="#linear-gradient-24"/><linearGradient id="New_Gradient_Swatch_1-2" x1="-2191.5" y1="959.66" x2="-2197.85" y2="1216.75" gradientTransform="matrix(1, 0, 0, -1, 2990.22, 2050.79)" xlink:href="#New_Gradient_Swatch_1"/><linearGradient id="linear-gradient-26" x1="-2193" y1="991.64" x2="-2186.02" y2="831.9" gradientTransform="matrix(-1, 0, 0, 1, -1396.03, 0)" xlink:href="#linear-gradient-6"/><linearGradient id="New_Gradient_Swatch_1-3" x1="-2103.91" y1="1101.63" x2="-2037.15" y2="1101.63" gradientTransform="matrix(-1, 0.01, 0.01, 1, -1390.25, 28.96)" xlink:href="#New_Gradient_Swatch_1"/><linearGradient id="linear-gradient-27" x1="-2028.95" y1="1102.46" x2="-2087.57" y2="1101.76" gradientTransform="matrix(-1, 0.01, 0.01, 1, -1390.25, 28.96)" gradientUnits="userSpaceOnUse"><stop offset="0" stop-color="#cb236d"/><stop offset="1" stop-color="#4c246d"/></linearGradient><linearGradient id="linear-gradient-28" x1="-2074.11" y1="994.02" x2="-2144.58" y2="1184.91" xlink:href="#linear-gradient-24"/><linearGradient id="New_Gradient_Swatch_1-4" x1="-5752.08" y1="1082.04" x2="-5685.28" y2="1082.04" gradientTransform="matrix(1, -0.02, 0.02, 1, 6613.46, -82.8)" xlink:href="#New_Gradient_Swatch_1"/><linearGradient id="linear-gradient-29" x1="-5677.1" y1="1082.82" x2="-5735.53" y2="1082.12" gradientTransform="matrix(1, -0.02, 0.02, 1, 6613.46, -82.8)" xlink:href="#linear-gradient-27"/><linearGradient id="linear-gradient-30" x1="-2215.3" y1="936.49" x2="-2285.82" y2="1127.48" xlink:href="#linear-gradient-24"/><linearGradient id="linear-gradient-31" x1="-2044.24" y1="990.33" x2="-2227.44" y2="1127.96" gradientTransform="matrix(-1, 0, 0, 1, -1396.03, 0)" xlink:href="#linear-gradient-27"/><linearGradient id="linear-gradient-32" x1="-2209.82" y1="1113.73" x2="-2257.84" y2="991.29" gradientTransform="matrix(-1, 0, 0, 1, -1396.03, 0)" xlink:href="#linear-gradient-27"/><linearGradient id="linear-gradient-33" x1="-2192.77" y1="945.86" x2="-2194.4" y2="804.42" xlink:href="#linear-gradient-24"/><linearGradient id="linear-gradient-34" x1="-1916.56" y1="589.34" x2="-1911.85" y2="474.98" gradientTransform="matrix(-0.99, 0.16, 0.16, 0.99, -1182.88, 585.15)" xlink:href="#linear-gradient-24"/><linearGradient id="New_Gradient_Swatch_1-5" x1="-1902.51" y1="493.07" x2="-1942.64" y2="590.1" xlink:href="#New_Gradient_Swatch_1"/><linearGradient id="linear-gradient-35" x1="-2168.06" y1="829.77" x2="-2160.68" y2="650.56" gradientTransform="matrix(-1, 0.03, 0.03, 1, -1365.68, 108.16)" xlink:href="#linear-gradient-24"/></defs><g id="Layer_2" data-name="Layer 2"><g id="Layer_1-2" data-name="Layer 1"><rect class="cls-1" width="1200" height="1200"/><path class="cls-2" d="M1007.83,981.59c-21.78,22.84-42.39,37.58-58.67,49.22-191.42,136.85-417.91,97-466,87.22-71.08-14.39-208.48-42.2-307.82-158.59C25,783.34,48.4,505.89,165,322.75c21.33-33.5,134-219.43,362.9-249.25,138.55-18,300,18.35,417,116C1190.38,394.42,1172.9,808.43,1007.83,981.59Z"/><path class="cls-3" d="M514.76,1099.57a3.18,3.18,0,0,1-1.51-.37l-3.69-2a3.21,3.21,0,0,1,3-5.67l2.6,1.38,8.45-2.1a3.21,3.21,0,0,1,1.55,6.23l-9.64,2.4A3.44,3.44,0,0,1,514.76,1099.57Zm24.58-6.12a3.21,3.21,0,0,1-.77-6.32l13.7-3.41a3.21,3.21,0,0,1,1.55,6.23l-13.7,3.41A3.46,3.46,0,0,1,539.34,1093.45Zm-41.88-3.06a3.23,3.23,0,0,1-1.5-.37l-12.47-6.63a3.21,3.21,0,1,1,3-5.66l12.47,6.62a3.21,3.21,0,0,1-1.51,6Zm70.52-4.07a3.21,3.21,0,0,1-.77-6.32l13.7-3.41a3.21,3.21,0,1,1,1.55,6.22l-13.7,3.42A3.46,3.46,0,0,1,568,1086.32Zm28.65-7.13a3.21,3.21,0,0,1-.78-6.32l13.7-3.41a3.21,3.21,0,1,1,1.55,6.22l-13.7,3.41A3,3,0,0,1,596.63,1079.19Zm-125.24-2.64a3.24,3.24,0,0,1-1.5-.38l-12.47-6.62a3.21,3.21,0,0,1,3-5.67l12.47,6.62a3.21,3.21,0,0,1-1.51,6Zm153.88-4.49a3.21,3.21,0,0,1-.77-6.32l13.7-3.41a3.21,3.21,0,0,1,1.55,6.22l-13.7,3.41A3,3,0,0,1,625.27,1072.06Zm28.64-7.13a3.21,3.21,0,0,1-.77-6.33l13.7-3.41a3.21,3.21,0,1,1,1.55,6.23l-13.7,3.41A3,3,0,0,1,653.91,1064.93Zm-208.59-2.23a3.23,3.23,0,0,1-1.5-.37l-12.47-6.63a3.21,3.21,0,1,1,3-5.66l12.47,6.62a3.21,3.21,0,0,1-1.51,6Zm237.24-4.9a3.21,3.21,0,0,1-.78-6.33l13.7-3.41a3.21,3.21,0,0,1,1.55,6.23l-13.7,3.41A3.46,3.46,0,0,1,682.56,1057.8Zm28.64-7.14a3.21,3.21,0,0,1-.77-6.32l13.7-3.41a3.21,3.21,0,0,1,1.55,6.23l-13.7,3.41A3.46,3.46,0,0,1,711.2,1050.66Zm-292-1.8a3.24,3.24,0,0,1-1.5-.38l-12.47-6.62a3.21,3.21,0,0,1,3-5.67l12.47,6.62a3.21,3.21,0,0,1-1.51,6Zm320.59-5.33a3.21,3.21,0,0,1-.77-6.32l13.7-3.41a3.21,3.21,0,1,1,1.55,6.23l-13.7,3.41A3.46,3.46,0,0,1,739.84,1043.53Zm28.65-7.13a3.21,3.21,0,0,1-.78-6.32l13.7-3.41a3.21,3.21,0,1,1,1.55,6.22l-13.7,3.41A3,3,0,0,1,768.49,1036.4ZM393.18,1035a3.23,3.23,0,0,1-1.5-.37L379.21,1028a3.21,3.21,0,1,1,3-5.66l12.47,6.62a3.21,3.21,0,0,1-1.51,6Zm404-5.74a3.21,3.21,0,0,1-.77-6.32l13.7-3.41a3.21,3.21,0,1,1,1.55,6.22l-13.7,3.41A3,3,0,0,1,797.13,1029.27Zm28.64-7.13a3.21,3.21,0,0,1-.77-6.33l13.7-3.41a3.21,3.21,0,1,1,1.55,6.23l-13.7,3.41A3,3,0,0,1,825.77,1022.14Zm-458.66-1a3.12,3.12,0,0,1-1.5-.38l-12.47-6.62a3.21,3.21,0,0,1,3-5.67l12.47,6.62a3.21,3.21,0,0,1-1.51,6ZM854.42,1015a3.21,3.21,0,0,1-.78-6.33l13.7-3.41a3.21,3.21,0,1,1,1.55,6.23l-13.7,3.41A3.46,3.46,0,0,1,854.42,1015Zm28.64-7.14a3.21,3.21,0,0,1-.77-6.32l13.7-3.41a3.21,3.21,0,0,1,1.55,6.23l-13.7,3.41A3.46,3.46,0,0,1,883.06,1007.87Zm-542-.55a3.23,3.23,0,0,1-1.5-.37l-12.47-6.63a3.21,3.21,0,1,1,3-5.66l12.47,6.62a3.21,3.21,0,0,1-1.51,6Zm570.66-6.58a3.21,3.21,0,0,1-.77-6.32l13.7-3.41a3.21,3.21,0,1,1,1.55,6.23l-13.7,3.41A3.46,3.46,0,0,1,911.7,1000.74Zm28.65-7.13a3.21,3.21,0,0,1-.78-6.32l13.7-3.41a3.21,3.21,0,1,1,1.55,6.22l-13.69,3.41A3.09,3.09,0,0,1,940.35,993.61ZM315,993.48a3.12,3.12,0,0,1-1.5-.38L301,986.48a3.21,3.21,0,0,1,3-5.67l12.47,6.62a3.21,3.21,0,0,1-1.51,6.05Zm652.89-8.34a3.2,3.2,0,0,1-3-4.48l5.6-13a3.21,3.21,0,0,1,5.89,2.54l-5.6,13A3.19,3.19,0,0,1,967.86,985.14Zm-679-5.51a3.23,3.23,0,0,1-1.5-.37l-12.47-6.63a3.21,3.21,0,1,1,3-5.66l12.47,6.62a3.21,3.21,0,0,1-1.51,6Zm-26.07-13.84a3.12,3.12,0,0,1-1.5-.38l-12.47-6.62a3.21,3.21,0,0,1,3-5.67l12.47,6.62a3.21,3.21,0,0,1-1.51,6ZM979.56,958a3.2,3.2,0,0,1-2.94-4.48l5.59-13a3.21,3.21,0,0,1,5.9,2.55l-5.6,13A3.21,3.21,0,0,1,979.56,958Zm-742.8-6.1a3.26,3.26,0,0,1-1.5-.37l-12.47-6.63a3.21,3.21,0,1,1,3-5.66l12.47,6.62a3.21,3.21,0,0,1-1.51,6ZM210.69,938.1a3.15,3.15,0,0,1-1.5-.38l-12.47-6.62a3.21,3.21,0,0,1,3-5.67l12.47,6.62a3.21,3.21,0,0,1-1.51,6.05Zm780.58-7.16a3.2,3.2,0,0,1-2.95-4.48l5.6-13a3.21,3.21,0,1,1,5.89,2.55l-5.6,13A3.19,3.19,0,0,1,991.27,930.94ZM187,922.36a3.2,3.2,0,0,1-3.1-2.4l-3.57-13.66a3.21,3.21,0,0,1,6.21-1.62l3.56,13.66a3.19,3.19,0,0,1-2.29,3.91A2.82,2.82,0,0,1,187,922.36Zm816-18.51a3.22,3.22,0,0,1-2.94-4.49l5.59-13a3.21,3.21,0,0,1,5.9,2.55l-5.6,13A3.23,3.23,0,0,1,1003,903.85ZM179.56,893.8a3.22,3.22,0,0,1-3.1-2.4l-3.57-13.66a3.21,3.21,0,0,1,6.21-1.62l3.57,13.66a3.23,3.23,0,0,1-3.11,4Zm835.11-17a3.22,3.22,0,0,1-2.94-4.48l5.6-13a3.21,3.21,0,1,1,5.89,2.54l-5.6,13A3.21,3.21,0,0,1,1014.67,876.75ZM172.1,865.24a3.22,3.22,0,0,1-3.1-2.4l-3.57-13.66a3.21,3.21,0,0,1,6.21-1.62l3.57,13.66a3.2,3.2,0,0,1-2.29,3.91A3.36,3.36,0,0,1,172.1,865.24Zm854.28-15.59a3.2,3.2,0,0,1-2.94-4.48l5.59-13a3.21,3.21,0,0,1,5.89,2.54l-5.59,13A3.21,3.21,0,0,1,1026.38,849.65Zm-861.73-13a3.22,3.22,0,0,1-3.11-2.4L158,820.62a3.21,3.21,0,0,1,6.21-1.62l3.56,13.66a3.2,3.2,0,0,1-2.29,3.91A3.29,3.29,0,0,1,164.65,836.68Zm873.44-14.13a3.2,3.2,0,0,1-2.95-4.48l5.6-13a3.21,3.21,0,1,1,5.89,2.55l-5.6,13A3.19,3.19,0,0,1,1038.09,822.55Zm-880.9-14.43a3.2,3.2,0,0,1-3.1-2.4l-3.57-13.66a3.21,3.21,0,1,1,6.21-1.62l3.57,13.66a3.23,3.23,0,0,1-3.11,4Zm892.6-12.67a3.2,3.2,0,0,1-2.94-4.48l5.59-13a3.21,3.21,0,0,1,5.9,2.55l-5.6,13A3.22,3.22,0,0,1,1049.79,795.45ZM149.73,779.56a3.22,3.22,0,0,1-3.1-2.4l-3.57-13.66a3.21,3.21,0,1,1,6.21-1.62l3.57,13.66a3.23,3.23,0,0,1-3.11,4Zm911.77-11.2a3.22,3.22,0,0,1-3-4.48l5.6-13a3.21,3.21,0,1,1,5.89,2.54l-5.6,13A3.2,3.2,0,0,1,1061.5,768.36ZM142.27,751a3.22,3.22,0,0,1-3.1-2.4l-3.57-13.66a3.21,3.21,0,1,1,6.21-1.62L145.38,747a3.21,3.21,0,0,1-2.29,3.91A3.3,3.3,0,0,1,142.27,751Zm930.93-9.74a3.22,3.22,0,0,1-2.94-4.48l5.59-13a3.21,3.21,0,1,1,5.9,2.54l-5.6,13A3.23,3.23,0,0,1,1073.2,741.26ZM134.82,722.44a3.22,3.22,0,0,1-3.11-2.4l-3.56-13.66a3.21,3.21,0,1,1,6.21-1.62l3.56,13.66a3.21,3.21,0,0,1-2.29,3.91A3.29,3.29,0,0,1,134.82,722.44Zm950.09-8.28a3.2,3.2,0,0,1-3-4.48l5.6-13a3.21,3.21,0,0,1,5.89,2.54l-5.6,13A3.19,3.19,0,0,1,1084.91,714.16ZM127.36,693.88a3.2,3.2,0,0,1-3.1-2.4l-3.57-13.66a3.21,3.21,0,1,1,6.21-1.62l3.57,13.66a3.23,3.23,0,0,1-3.11,4Zm969.25-6.82a3.2,3.2,0,0,1-2.94-4.48l4.81-11.15-.38-1.68a3.21,3.21,0,1,1,6.25-1.43l.41,1.79v0l.21.9a3.2,3.2,0,0,1-.18,2l-5.23,12.12A3.22,3.22,0,0,1,1096.61,687.06ZM119.9,665.32a3.22,3.22,0,0,1-3.1-2.4l-3.57-13.66a3.21,3.21,0,1,1,6.21-1.62L123,661.3a3.23,3.23,0,0,1-3.11,4Zm977.89-8.09a3.21,3.21,0,0,1-3.12-2.49L1091.52,641a3.21,3.21,0,0,1,6.26-1.43l3.14,13.77a3.19,3.19,0,0,1-2.41,3.84A2.94,2.94,0,0,1,1097.79,657.23ZM112.44,636.76a3.22,3.22,0,0,1-3.1-2.4l-3.56-13.66a3.2,3.2,0,1,1,6.2-1.62l3.57,13.66a3.21,3.21,0,0,1-2.29,3.91A3.3,3.3,0,0,1,112.44,636.76Zm978.78-8.31a3.2,3.2,0,0,1-3.12-2.49L1085,612.2a3.21,3.21,0,1,1,6.26-1.43l3.14,13.76a3.19,3.19,0,0,1-2.41,3.84A2.94,2.94,0,0,1,1091.22,628.45ZM105,608.2a3.22,3.22,0,0,1-3.11-2.4l-3.56-13.66a3.21,3.21,0,1,1,6.21-1.62l3.56,13.66a3.23,3.23,0,0,1-3.1,4Zm979.66-8.52a3.21,3.21,0,0,1-3.13-2.5l-3.14-13.76a3.21,3.21,0,0,1,6.26-1.43l3.14,13.76a3.22,3.22,0,0,1-2.41,3.85A3.69,3.69,0,0,1,1084.65,599.68ZM108.79,581.29a3.18,3.18,0,0,1-1.67-.47,3.21,3.21,0,0,1-1.07-4.41l7.35-12a3.21,3.21,0,0,1,5.48,3.34l-7.35,12A3.19,3.19,0,0,1,108.79,581.29Zm969.29-10.39a3.21,3.21,0,0,1-3.13-2.49l-3.14-13.77a3.21,3.21,0,1,1,6.25-1.43l3.15,13.77a3.22,3.22,0,0,1-2.42,3.84A3.51,3.51,0,0,1,1078.08,570.9ZM124.16,556.09a3.18,3.18,0,0,1-1.67-.47,3.21,3.21,0,0,1-1.07-4.41l7.35-12.05a3.21,3.21,0,0,1,5.48,3.34l-7.35,12A3.18,3.18,0,0,1,124.16,556.09Zm947.34-14a3.2,3.2,0,0,1-3.12-2.49l-3.15-13.76a3.21,3.21,0,1,1,6.26-1.43l3.14,13.76a3.19,3.19,0,0,1-2.41,3.84A2.94,2.94,0,0,1,1071.5,542.12Zm-932-11.23A3.2,3.2,0,0,1,136.8,526l7.35-12a3.21,3.21,0,0,1,5.48,3.34l-7.36,12.06A3.19,3.19,0,0,1,139.53,530.89Zm925.4-17.54a3.21,3.21,0,0,1-3.12-2.5l-3.15-13.76a3.21,3.21,0,0,1,6.26-1.43l3.14,13.76a3.21,3.21,0,0,1-2.41,3.85A3.53,3.53,0,0,1,1064.93,513.35Zm-910-7.65a3.24,3.24,0,0,1-1.66-.47,3.2,3.2,0,0,1-1.07-4.41l7.35-12.06a3.21,3.21,0,0,1,5.48,3.35l-7.35,12.05A3.22,3.22,0,0,1,154.9,505.7Zm903.46-21.13a3.21,3.21,0,0,1-3.13-2.49l-3.14-13.77a3.21,3.21,0,0,1,6.26-1.43l3.14,13.77a3.22,3.22,0,0,1-2.41,3.84A3.61,3.61,0,0,1,1058.36,484.57ZM170.28,480.5a3.27,3.27,0,0,1-1.67-.47,3.22,3.22,0,0,1-1.07-4.41l7.35-12.06a3.21,3.21,0,0,1,5.48,3.35L173,479A3.22,3.22,0,0,1,170.28,480.5Zm881.51-24.71a3.2,3.2,0,0,1-3.13-2.49l-3.14-13.76a3.21,3.21,0,1,1,6.25-1.43l3.15,13.76a3.21,3.21,0,0,1-2.42,3.84A2.92,2.92,0,0,1,1051.79,455.79Zm-866.14-.49a3.18,3.18,0,0,1-1.67-.47,3.22,3.22,0,0,1-1.07-4.41l7.35-12.05a3.21,3.21,0,0,1,5.48,3.34l-7.35,12.05A3.2,3.2,0,0,1,185.65,455.3ZM201,430.1a3.2,3.2,0,0,1-2.73-4.88l7.35-12.05a3.21,3.21,0,0,1,5.48,3.34l-7.36,12.05A3.2,3.2,0,0,1,201,430.1ZM1045.21,427a3.21,3.21,0,0,1-3.12-2.5l-3.15-13.76a3.21,3.21,0,0,1,6.26-1.43l3.14,13.76a3.21,3.21,0,0,1-2.41,3.85A3.53,3.53,0,0,1,1045.21,427ZM216.39,404.9a3.2,3.2,0,0,1-2.73-4.88L221,388a3.21,3.21,0,1,1,5.48,3.34l-7.35,12.05A3.23,3.23,0,0,1,216.39,404.9Zm822.25-6.66a3.21,3.21,0,0,1-3.12-2.5L1032.37,382a3.21,3.21,0,0,1,6.26-1.43l3.14,13.77a3.2,3.2,0,0,1-2.41,3.84A3.53,3.53,0,0,1,1038.64,398.24ZM231.77,379.7a3.18,3.18,0,0,1-1.67-.47,3.21,3.21,0,0,1-1.07-4.41l7.35-12.05a3.21,3.21,0,0,1,5.48,3.34l-7.35,12.05A3.22,3.22,0,0,1,231.77,379.7Zm796.45-7.7a3.17,3.17,0,0,1-1.89-.62l-11.41-8.31a3.21,3.21,0,1,1,3.78-5.18l11.41,8.31a3.21,3.21,0,0,1-1.89,5.8Zm-23.86-17.38a3.22,3.22,0,0,1-1.89-.61l-11.41-8.31a3.21,3.21,0,0,1,3.78-5.19l11.41,8.31a3.21,3.21,0,0,1-1.89,5.8Zm-757.22-.12a3.18,3.18,0,0,1-1.67-.47,3.21,3.21,0,0,1-1.07-4.41l7.35-12.05a3.21,3.21,0,1,1,5.48,3.34l-7.35,12A3.2,3.2,0,0,1,247.14,354.5ZM980.5,337.24a3.22,3.22,0,0,1-1.89-.61l-11.41-8.31a3.21,3.21,0,0,1,3.78-5.19l11.41,8.31a3.21,3.21,0,0,1-1.89,5.8Zm-718-7.94a3.18,3.18,0,0,1-1.67-.47,3.21,3.21,0,0,1-1.07-4.41l7.36-12.05a3.2,3.2,0,1,1,5.47,3.34l-7.35,12.05A3.2,3.2,0,0,1,262.51,329.3Zm694.13-9.43a3.17,3.17,0,0,1-1.89-.62l-11.41-8.31a3.21,3.21,0,0,1,3.78-5.19l11.41,8.31a3.21,3.21,0,0,1-1.89,5.81ZM277.88,304.1a3.15,3.15,0,0,1-1.66-.47,3.19,3.19,0,0,1-1.07-4.41l7.35-12.05a3.21,3.21,0,1,1,5.48,3.34l-7.36,12.05A3.18,3.18,0,0,1,277.88,304.1Zm654.9-1.61a3.17,3.17,0,0,1-1.89-.62l-11.41-8.31a3.21,3.21,0,0,1,3.78-5.19l11.41,8.32a3.21,3.21,0,0,1-1.89,5.8Zm-23.86-17.38a3.17,3.17,0,0,1-1.89-.62l-11.41-8.31A3.21,3.21,0,1,1,899.4,271l11.41,8.31a3.21,3.21,0,0,1-1.89,5.8ZM293.26,278.9a3.21,3.21,0,0,1-2.74-4.88l7.35-12a3.21,3.21,0,0,1,5.48,3.34L296,277.36A3.19,3.19,0,0,1,293.26,278.9Zm591.8-11.17a3.22,3.22,0,0,1-1.89-.61l-11.41-8.31a3.21,3.21,0,0,1,3.78-5.19L887,261.93a3.21,3.21,0,0,1-1.89,5.8Zm-576.43-14a3.18,3.18,0,0,1-1.67-.47,3.21,3.21,0,0,1-1.07-4.41l4.24-6.94a3.18,3.18,0,0,1,1.94-1.44l5.79-1.49a3.21,3.21,0,0,1,1.6,6.21l-4.53,1.17-3.56,5.84A3.19,3.19,0,0,1,308.63,253.7Zm552.57-3.35a3.22,3.22,0,0,1-1.89-.61l-11.41-8.31a3.21,3.21,0,0,1,3.78-5.19l11.41,8.31a3.2,3.2,0,0,1,.7,4.48A3.16,3.16,0,0,1,861.2,250.35Zm-527.63-8.93a3.21,3.21,0,0,1-.8-6.32l13.67-3.53a3.21,3.21,0,1,1,1.6,6.22l-13.67,3.52A3.21,3.21,0,0,1,333.57,241.42ZM362.15,234a3.21,3.21,0,0,1-.8-6.31L375,224.2a3.21,3.21,0,1,1,1.6,6.22L363,233.94A3.08,3.08,0,0,1,362.15,234ZM837.34,233a3.17,3.17,0,0,1-1.89-.62L824,224.05a3.21,3.21,0,0,1,3.78-5.19l11.41,8.31a3.21,3.21,0,0,1-1.89,5.81Zm-446.61-6.31a3.21,3.21,0,0,1-.8-6.32l13.67-3.52a3.21,3.21,0,0,1,1.61,6.21l-13.67,3.53A3.21,3.21,0,0,1,390.73,226.67Zm28.59-7.37a3.21,3.21,0,0,1-.8-6.32l13.67-3.52a3.21,3.21,0,0,1,1.6,6.21l-13.67,3.53A3.73,3.73,0,0,1,419.32,219.3Zm394.16-3.7a3.17,3.17,0,0,1-1.89-.62l-11.41-8.31a3.21,3.21,0,0,1,3.78-5.19l11.41,8.32a3.21,3.21,0,0,1-1.89,5.8ZM447.9,211.93a3.21,3.21,0,0,1-.8-6.32l13.67-3.53a3.21,3.21,0,1,1,1.6,6.22l-13.67,3.52A3.21,3.21,0,0,1,447.9,211.93Zm28.58-7.38a3.21,3.21,0,0,1-.8-6.31l13.67-3.53a3.21,3.21,0,1,1,1.6,6.21l-13.67,3.53A3.13,3.13,0,0,1,476.48,204.55Zm313.14-6.33a3.22,3.22,0,0,1-1.89-.61l-11.41-8.32a3.21,3.21,0,1,1,3.78-5.18l11.41,8.31a3.21,3.21,0,0,1-1.89,5.8Zm-284.56-1a3.21,3.21,0,0,1-.8-6.32l13.67-3.52a3.21,3.21,0,0,1,1.61,6.21l-13.67,3.53A3.21,3.21,0,0,1,505.06,197.18Zm28.58-7.37a3.21,3.21,0,0,1-.79-6.32L546.52,180a3.21,3.21,0,0,1,1.6,6.21l-13.67,3.53A3.74,3.74,0,0,1,533.64,189.81Zm28.59-7.37a3.21,3.21,0,0,1-.8-6.32l13.67-3.53a3.21,3.21,0,0,1,1.6,6.22L563,182.33A3.21,3.21,0,0,1,562.23,182.44Zm203.53-1.6a3.22,3.22,0,0,1-1.89-.61l-11.41-8.31a3.21,3.21,0,1,1,3.78-5.19L767.65,175a3.21,3.21,0,0,1-1.89,5.8Zm-175-5.78a3.21,3.21,0,0,1-.8-6.31l13.67-3.53a3.21,3.21,0,1,1,1.6,6.21L591.61,175A3.19,3.19,0,0,1,590.81,175.06Zm28.58-7.37a3.21,3.21,0,0,1-.8-6.32l13.67-3.52a3.21,3.21,0,0,1,1.61,6.21l-13.67,3.53A3.21,3.21,0,0,1,619.39,167.69Zm122.51-4.23a3.22,3.22,0,0,1-1.89-.61l-11.41-8.31a3.21,3.21,0,1,1,3.78-5.19l11.41,8.31a3.2,3.2,0,0,1,.7,4.48A3.16,3.16,0,0,1,741.9,163.46ZM648,160.32a3.21,3.21,0,0,1-.8-6.32l13.67-3.53a3.21,3.21,0,0,1,1.61,6.22l-13.67,3.52A3.22,3.22,0,0,1,648,160.32Zm28.59-7.38a3.2,3.2,0,0,1-.8-6.31l13.67-3.53a3.21,3.21,0,1,1,1.6,6.22l-13.67,3.52A3.19,3.19,0,0,1,676.56,152.94ZM718,146.09a3.17,3.17,0,0,1-1.89-.62l-2.67-1.95-7.54,1.95a3.21,3.21,0,1,1-1.6-6.21l9-2.33a3.19,3.19,0,0,1,2.69.52l3.9,2.83a3.21,3.21,0,0,1-1.89,5.81Z"/><path class="cls-4" d="M967.07,987a3.21,3.21,0,0,1-3.07-2.29l-2.56-8.53a3.21,3.21,0,0,1,6.15-1.84l.32,1.07a3.2,3.2,0,0,1,2.86,3.5l-.5,5.19a3.22,3.22,0,0,1-2.89,2.88Zm2-20.52-.31,0a3.22,3.22,0,0,1-2.89-3.5l1.37-14a3.21,3.21,0,1,1,6.38.62l-1.36,14A3.21,3.21,0,0,1,969.06,966.44Zm-9-2.76a3.21,3.21,0,0,1-3.07-2.29l-4-13.52a3.21,3.21,0,1,1,6.14-1.85l4.06,13.53a3.23,3.23,0,0,1-3.08,4.13Zm11.82-26.62-.32,0a3.21,3.21,0,0,1-2.88-3.5l1.36-14a3.21,3.21,0,1,1,6.39.62l-1.36,14A3.21,3.21,0,0,1,971.91,937.06Zm-20.29-1.66a3.2,3.2,0,0,1-3.08-2.29l-4-13.52a3.21,3.21,0,0,1,6.15-1.84l4.05,13.52a3.21,3.21,0,0,1-2.15,4A3.3,3.3,0,0,1,951.62,935.4ZM188.15,925.14a3,3,0,0,1-.6,0,3.22,3.22,0,0,1-2.55-3.76l2.65-13.86a3.21,3.21,0,0,1,6.36.63l7.27-10.81a3.21,3.21,0,1,1,5.32,3.58l-7.87,11.71a3.21,3.21,0,0,1-4.45.88,3.17,3.17,0,0,1-1-1.13l-1.95,10.21A3.21,3.21,0,0,1,188.15,925.14Zm786.6-17.46-.31,0a3.21,3.21,0,0,1-2.89-3.5l1.36-14a3.21,3.21,0,1,1,6.39.62l-1.36,14A3.21,3.21,0,0,1,974.75,907.68Zm-31.61-.55a3.2,3.2,0,0,1-3.07-2.29L936,891.32a3.21,3.21,0,0,1,6.15-1.85L946.21,903a3.2,3.2,0,0,1-2.15,4A3.32,3.32,0,0,1,943.14,907.13Zm-749.44-11a3.15,3.15,0,0,1-.61-.06,3.21,3.21,0,0,1-2.55-3.75l2.65-13.87a3.21,3.21,0,1,1,6.3,1.21l-2.65,13.86A3.21,3.21,0,0,1,193.7,896.15Zm18.83-6.65a3.2,3.2,0,0,1-2.66-5l7.88-11.72a3.21,3.21,0,1,1,5.32,3.58l-7.87,11.71A3.2,3.2,0,0,1,212.53,889.5Zm722.13-10.65a3.2,3.2,0,0,1-3.07-2.28L927.54,863a3.2,3.2,0,1,1,6.14-1.84l4.06,13.52a3.22,3.22,0,0,1-2.15,4A3.31,3.31,0,0,1,934.66,878.85Zm42.94-.55-.32,0a3.21,3.21,0,0,1-2.88-3.5l1.36-14a3.21,3.21,0,1,1,6.39.62l-1.37,14A3.2,3.2,0,0,1,977.6,878.3ZM199.24,867.16a3.15,3.15,0,0,1-.61-.06,3.21,3.21,0,0,1-2.55-3.75l2.65-13.87a3.21,3.21,0,1,1,6.3,1.21l-2.65,13.86A3.2,3.2,0,0,1,199.24,867.16ZM229,865a3.21,3.21,0,0,1-2.66-5l7.87-11.72a3.21,3.21,0,0,1,5.33,3.58l-7.88,11.72A3.2,3.2,0,0,1,229,865Zm697.19-14.43a3.22,3.22,0,0,1-3.08-2.29l-4.05-13.52a3.21,3.21,0,1,1,6.15-1.84l4,13.52a3.2,3.2,0,0,1-2.15,4A3.32,3.32,0,0,1,926.19,850.58Zm54.25-1.66-.31,0a3.21,3.21,0,0,1-2.89-3.5l1.36-14A3.21,3.21,0,1,1,985,832L983.63,846A3.21,3.21,0,0,1,980.44,848.92Zm-735-8.41a3.22,3.22,0,0,1-2.66-5l7.88-11.72a3.21,3.21,0,0,1,5.33,3.58l-7.88,11.72A3.21,3.21,0,0,1,245.46,840.51Zm-40.68-2.34a3.22,3.22,0,0,1-3.16-3.82l2.65-13.86a3.21,3.21,0,0,1,6.31,1.2l-2.65,13.87A3.22,3.22,0,0,1,204.78,838.17ZM917.71,822.3a3.19,3.19,0,0,1-3.07-2.28l-4.06-13.53a3.21,3.21,0,0,1,6.15-1.84l4,13.52a3.19,3.19,0,0,1-3.07,4.13Zm65.57-2.76-.31,0a3.21,3.21,0,0,1-2.88-3.5l1.36-14a3.2,3.2,0,1,1,6.38.61l-1.36,14.06A3.2,3.2,0,0,1,983.28,819.54ZM261.93,816a3.21,3.21,0,0,1-2.66-5l7.88-11.72a3.21,3.21,0,1,1,5.32,3.58l-7.87,11.72A3.22,3.22,0,0,1,261.93,816Zm-51.61-6.84a3.22,3.22,0,0,1-3.16-3.81l2.65-13.86a3.21,3.21,0,0,1,6.31,1.2l-2.65,13.87A3.22,3.22,0,0,1,210.32,809.17ZM909.23,794a3.21,3.21,0,0,1-3.07-2.29l-4-13.52a3.2,3.2,0,1,1,6.14-1.84l4.06,13.52a3.21,3.21,0,0,1-2.15,4A3,3,0,0,1,909.23,794ZM278.4,791.51a3.18,3.18,0,0,1-1.79-.54,3.22,3.22,0,0,1-.87-4.46l7.87-11.71a3.21,3.21,0,1,1,5.33,3.58l-7.88,11.71A3.18,3.18,0,0,1,278.4,791.51Zm707.73-1.35-.31,0a3.21,3.21,0,0,1-2.89-3.5l1.36-14a3.21,3.21,0,0,1,6.39.61l-1.36,14.06A3.22,3.22,0,0,1,986.13,790.16Zm-770.27-10a3.23,3.23,0,0,1-.61-.06,3.19,3.19,0,0,1-2.54-3.75l2.65-13.87a3.21,3.21,0,1,1,6.3,1.21L219,777.57A3.22,3.22,0,0,1,215.86,780.18Zm79-13.17a3.17,3.17,0,0,1-1.78-.54,3.22,3.22,0,0,1-.88-4.45l7.88-11.72a3.21,3.21,0,0,1,5.33,3.58l-7.88,11.71A3.18,3.18,0,0,1,294.86,767Zm605.9-1.26a3.19,3.19,0,0,1-3.07-2.28l-4.06-13.53a3.21,3.21,0,0,1,6.15-1.84l4.05,13.52a3.21,3.21,0,0,1-2.15,4A3.3,3.3,0,0,1,900.76,765.75Zm88.21-5h-.31a3.2,3.2,0,0,1-2.88-3.5l1.36-14a3.2,3.2,0,1,1,6.38.61l-1.36,14.06A3.2,3.2,0,0,1,989,760.77ZM221.4,751.19a3.05,3.05,0,0,1-.6-.06,3.2,3.2,0,0,1-2.55-3.76l2.65-13.86a3.21,3.21,0,0,1,6.3,1.2l-2.65,13.87A3.21,3.21,0,0,1,221.4,751.19Zm89.93-8.67a3.21,3.21,0,0,1-2.66-5l7.88-11.72a3.21,3.21,0,1,1,5.32,3.58L314,741.1A3.22,3.22,0,0,1,311.33,742.52Zm581-5a3.21,3.21,0,0,1-3.07-2.29l-4.05-13.52a3.2,3.2,0,1,1,6.14-1.84l4.06,13.52a3.2,3.2,0,0,1-2.16,4A2.89,2.89,0,0,1,892.28,737.48Zm99.54-6.09h-.32a3.21,3.21,0,0,1-2.88-3.5l1.36-14a3.21,3.21,0,0,1,6.39.61l-1.36,14A3.21,3.21,0,0,1,991.82,731.39Zm-764.88-9.2a4,4,0,0,1-.6-.05,3.22,3.22,0,0,1-2.55-3.76l2.65-13.86a3.21,3.21,0,0,1,6.3,1.2l-2.65,13.87A3.21,3.21,0,0,1,226.94,722.19ZM327.8,718a3.21,3.21,0,0,1-2.66-5L333,701.3a3.21,3.21,0,0,1,5.33,3.58l-7.88,11.72A3.2,3.2,0,0,1,327.8,718Zm556-8.82a3.21,3.21,0,0,1-3.08-2.28l-4.05-13.53a3.21,3.21,0,0,1,6.15-1.84l4,13.52a3.21,3.21,0,0,1-2.15,4A3.3,3.3,0,0,1,883.81,709.2ZM994.66,702h-.31a3.22,3.22,0,0,1-2.89-3.5l1.37-14.06a3.21,3.21,0,1,1,6.38.62l-1.36,14.05A3.21,3.21,0,0,1,994.66,702Zm-650.4-8.49a3.21,3.21,0,0,1-2.65-5l7.87-11.71a3.21,3.21,0,1,1,5.33,3.58l-7.88,11.71A3.21,3.21,0,0,1,344.26,693.52Zm-111.78-.32a3.05,3.05,0,0,1-.6-.06,3.21,3.21,0,0,1-2.55-3.75L232,675.52a3.21,3.21,0,1,1,6.3,1.21l-2.65,13.86A3.21,3.21,0,0,1,232.48,693.2Zm642.85-12.27a3.2,3.2,0,0,1-3.07-2.29l-4.06-13.52a3.21,3.21,0,0,1,6.15-1.84l4,13.52a3.19,3.19,0,0,1-2.15,4A3,3,0,0,1,875.33,680.93Zm122.18-8.3h-.32a3.21,3.21,0,0,1-2.88-3.5l1.36-14.06a3.21,3.21,0,0,1,6.39.62l-1.36,14.05A3.21,3.21,0,0,1,997.51,672.63ZM360.73,669a3.2,3.2,0,0,1-2.66-5L366,652.31a3.21,3.21,0,1,1,5.32,3.58L363.4,667.6A3.22,3.22,0,0,1,360.73,669ZM238,664.21a3.15,3.15,0,0,1-.61-.06,3.21,3.21,0,0,1-2.55-3.75l2.65-13.87a3.21,3.21,0,0,1,6.3,1.2l-2.65,13.87A3.2,3.2,0,0,1,238,664.21Zm628.82-11.55a3.21,3.21,0,0,1-3.07-2.29l-4-13.52a3.21,3.21,0,1,1,6.14-1.85l4.06,13.53a3.21,3.21,0,0,1-2.15,4A3.33,3.33,0,0,1,866.85,652.66ZM377.2,644.52a3.2,3.2,0,0,1-2.66-5l7.87-11.72a3.21,3.21,0,0,1,5.33,3.58l-7.88,11.72A3.18,3.18,0,0,1,377.2,644.52Zm623.15-1.27H1000a3.21,3.21,0,0,1-2.89-3.5l1.36-14.06a3.21,3.21,0,0,1,6.39.62l-1.36,14.05A3.21,3.21,0,0,1,1000.35,643.25Zm-756.78-8a3.18,3.18,0,0,1-3.16-3.81l2.65-13.86a3.21,3.21,0,0,1,6.31,1.2l-2.65,13.87A3.22,3.22,0,0,1,243.57,635.21Zm614.81-10.83a3.22,3.22,0,0,1-3.08-2.29l-4-13.52a3.21,3.21,0,0,1,6.15-1.84l4.05,13.52a3.21,3.21,0,0,1-2.15,4A3.3,3.3,0,0,1,858.38,624.38ZM393.67,620a3.21,3.21,0,0,1-2.66-5l7.87-11.72a3.21,3.21,0,0,1,5.33,3.58l-7.88,11.72A3.2,3.2,0,0,1,393.67,620Zm609.53-6.16h-.32a3.21,3.21,0,0,1-2.88-3.51l1.36-14.05a3.21,3.21,0,0,1,6.39.62L1006.38,611A3.2,3.2,0,0,1,1003.2,613.87Zm-754.09-7.65a3.22,3.22,0,0,1-3.16-3.81l2.65-13.87a3.21,3.21,0,0,1,6.31,1.21l-2.65,13.86A3.22,3.22,0,0,1,249.11,606.22ZM849.9,596.11a3.21,3.21,0,0,1-3.07-2.29l-4.06-13.52a3.21,3.21,0,0,1,6.15-1.85L853,592a3.22,3.22,0,0,1-3.07,4.13Zm-439.77-.58a3.16,3.16,0,0,1-1.78-.55,3.2,3.2,0,0,1-.88-4.45l7.88-11.72a3.21,3.21,0,1,1,5.32,3.58l-7.87,11.72A3.22,3.22,0,0,1,410.13,595.53Zm595.91-11h-.31a3.21,3.21,0,0,1-2.89-3.51l1.36-14.05a3.21,3.21,0,0,1,6.39.62l-1.36,14.05A3.21,3.21,0,0,1,1006,584.49Zm-751.39-7.26a3.23,3.23,0,0,1-.61-.06,3.19,3.19,0,0,1-2.54-3.75l2.65-13.87a3.21,3.21,0,1,1,6.3,1.21l-2.65,13.86A3.22,3.22,0,0,1,254.65,577.23Zm172-6.2a3.21,3.21,0,0,1-2.66-5l7.87-11.71a3.21,3.21,0,1,1,5.33,3.58l-7.88,11.71A3.19,3.19,0,0,1,426.6,571Zm414.82-3.2a3.21,3.21,0,0,1-3.07-2.29L834.3,552a3.21,3.21,0,0,1,6.15-1.84l4,13.52a3.22,3.22,0,0,1-2.15,4A3.31,3.31,0,0,1,841.42,567.83Zm167.46-12.72h-.31a3.21,3.21,0,0,1-2.88-3.51l1.36-14.05a3.21,3.21,0,0,1,6.38.62l-1.36,14.05A3.2,3.2,0,0,1,1008.88,555.11Zm-748.69-6.87a3.05,3.05,0,0,1-.6-.06,3.21,3.21,0,0,1-2.55-3.76l2.65-13.86a3.21,3.21,0,0,1,6.3,1.2l-2.65,13.87A3.21,3.21,0,0,1,260.19,548.24Zm182.88-1.71a3.18,3.18,0,0,1-1.79-.54,3.21,3.21,0,0,1-.87-4.46l7.87-11.71a3.21,3.21,0,1,1,5.33,3.58l-7.88,11.71A3.18,3.18,0,0,1,443.07,546.53Zm389.88-7a3.2,3.2,0,0,1-3.07-2.29l-4.06-13.52A3.21,3.21,0,1,1,832,521.9l4,13.53a3.2,3.2,0,0,1-2.15,4A3.32,3.32,0,0,1,833,539.56Zm178.78-13.83h-.31a3.21,3.21,0,0,1-2.89-3.51l1.36-14.05a3.21,3.21,0,0,1,6.39.62l-1.36,14.05A3.21,3.21,0,0,1,1011.73,525.73ZM459.53,522a3.15,3.15,0,0,1-1.78-.54,3.2,3.2,0,0,1-.88-4.45l7.88-11.72a3.21,3.21,0,1,1,5.32,3.58l-7.87,11.72A3.21,3.21,0,0,1,459.53,522Zm-193.8-2.79a3.05,3.05,0,0,1-.6-.06,3.21,3.21,0,0,1-2.55-3.75l2.65-13.87a3.21,3.21,0,0,1,6.3,1.21l-2.65,13.86A3.21,3.21,0,0,1,265.73,519.24Zm558.74-8A3.21,3.21,0,0,1,821.4,509l-4-13.52a3.2,3.2,0,1,1,6.14-1.84l4.06,13.52a3.2,3.2,0,0,1-3.08,4.13ZM476,497.54a3.21,3.21,0,0,1-2.66-5l7.87-11.72a3.21,3.21,0,0,1,5.33,3.58l-7.88,11.72A3.19,3.19,0,0,1,476,497.54Zm538.57-1.19h-.31a3.21,3.21,0,0,1-2.88-3.51l1.36-14.05a3.21,3.21,0,0,1,6.38.62l-1.36,14.05A3.21,3.21,0,0,1,1014.57,496.35Zm-743.29-6.1a3.15,3.15,0,0,1-.61-.06,3.21,3.21,0,0,1-2.55-3.75l2.65-13.87a3.21,3.21,0,1,1,6.3,1.21l-2.65,13.86A3.21,3.21,0,0,1,271.28,490.25ZM816,483a3.22,3.22,0,0,1-3.08-2.29l-4-13.52a3.21,3.21,0,1,1,6.15-1.85l4.05,13.53a3.2,3.2,0,0,1-2.15,4A3.32,3.32,0,0,1,816,483ZM492.47,473a3.21,3.21,0,0,1-2.66-5l7.87-11.72A3.21,3.21,0,0,1,503,459.9l-7.88,11.72A3.2,3.2,0,0,1,492.47,473ZM1017.42,467l-.32,0a3.2,3.2,0,0,1-2.88-3.5l1.36-14.05a3.21,3.21,0,0,1,6.39.62l-1.36,14.05A3.21,3.21,0,0,1,1017.42,467Zm-740.6-5.71a3.15,3.15,0,0,1-.61-.06,3.22,3.22,0,0,1-2.55-3.76l2.65-13.86a3.21,3.21,0,1,1,6.3,1.2L280,458.65A3.2,3.2,0,0,1,276.82,461.26Zm530.7-6.53a3.19,3.19,0,0,1-3.07-2.29l-4.06-13.52a3.21,3.21,0,0,1,6.15-1.84l4.05,13.52a3.21,3.21,0,0,1-2.15,4A3.3,3.3,0,0,1,807.52,454.73Zm-298.59-6.19a3.16,3.16,0,0,1-1.78-.55,3.2,3.2,0,0,1-.88-4.45l7.88-11.71a3.2,3.2,0,1,1,5.32,3.57l-7.87,11.72A3.21,3.21,0,0,1,508.93,448.54Zm511.33-11-.31,0a3.21,3.21,0,0,1-2.89-3.5l1.36-14.05a3.21,3.21,0,0,1,6.39.62l-1.36,14.05A3.21,3.21,0,0,1,1020.26,437.59Zm-737.9-5.33a4.18,4.18,0,0,1-.61-.05,3.22,3.22,0,0,1-2.55-3.76l2.65-13.86a3.21,3.21,0,0,1,6.31,1.2l-2.65,13.87A3.22,3.22,0,0,1,282.36,432.26ZM799,426.46a3.21,3.21,0,0,1-3.07-2.29l-4.05-13.52a3.2,3.2,0,1,1,6.14-1.84l4.06,13.52a3.21,3.21,0,0,1-2.15,4A3.33,3.33,0,0,1,799,426.46ZM525.4,424a3.18,3.18,0,0,1-1.79-.54,3.21,3.21,0,0,1-.87-4.46l7.88-11.71a3.21,3.21,0,1,1,5.32,3.58l-7.87,11.71A3.22,3.22,0,0,1,525.4,424Zm497.71-15.83-.32,0a3.21,3.21,0,0,1-2.88-3.5l1.36-14.05a3.21,3.21,0,1,1,6.39.62l-1.36,14.05A3.21,3.21,0,0,1,1023.11,408.21ZM287.9,403.27a3.22,3.22,0,0,1-3.16-3.81l2.65-13.87a3.21,3.21,0,0,1,6.31,1.21l-2.65,13.86A3.22,3.22,0,0,1,287.9,403.27Zm254-3.72a3.21,3.21,0,0,1-2.66-5l7.87-11.72a3.21,3.21,0,0,1,5.33,3.58l-7.88,11.72A3.2,3.2,0,0,1,541.87,399.55Zm248.7-1.37a3.19,3.19,0,0,1-3.07-2.28l-4.06-13.53a3.21,3.21,0,0,1,6.15-1.84l4,13.52a3.21,3.21,0,0,1-2.15,4A3.3,3.3,0,0,1,790.57,398.18ZM1026,378.83l-.31,0a3.2,3.2,0,0,1-2.9-3.3l-8.3-1.54a3.21,3.21,0,1,1,1.17-6.31l11.19,2.08a3.21,3.21,0,0,1,2.6,3.46l-.26,2.73A3.21,3.21,0,0,1,1026,378.83Zm-467.62-3.78a3.22,3.22,0,0,1-2.66-5l7.88-11.72a3.21,3.21,0,0,1,5.32,3.58L561,373.63A3.21,3.21,0,0,1,558.33,375.05Zm-264.89-.77a3.23,3.23,0,0,1-.61-.06,3.2,3.2,0,0,1-2.54-3.76l2.65-13.86a3.21,3.21,0,0,1,6.3,1.2l-2.65,13.87A3.22,3.22,0,0,1,293.44,374.28Zm706.45-3.08a2.94,2.94,0,0,1-.59-.05l-13.88-2.58a3.21,3.21,0,1,1,1.17-6.31l13.88,2.58a3.21,3.21,0,0,1-.58,6.36Zm-217.8-1.29a3.21,3.21,0,0,1-3.07-2.29L775,354.1a3.21,3.21,0,1,1,6.15-1.84l4,13.52a3.22,3.22,0,0,1-3.07,4.13Zm188.78-4.1a3,3,0,0,1-.59-.06l-13.88-2.58a3.21,3.21,0,0,1,1.17-6.31l13.88,2.58a3.21,3.21,0,0,1-.58,6.37Zm-29-5.4a3.92,3.92,0,0,1-.59-.05l-13.88-2.58a3.21,3.21,0,1,1,1.17-6.31l13.88,2.58a3.21,3.21,0,0,1-.58,6.36Zm-29-5.4a2.88,2.88,0,0,1-.59-.05l-13.88-2.58a3.21,3.21,0,1,1,1.17-6.31l13.88,2.58a3.21,3.21,0,0,1-.58,6.36Zm-338-4.46a3.21,3.21,0,0,1-2.66-5L580,333.83a3.21,3.21,0,0,1,5.32,3.58l-7.87,11.72A3.22,3.22,0,0,1,574.8,350.55Zm309-.93a2.88,2.88,0,0,1-.59-.06L869.34,347a3.21,3.21,0,1,1,1.17-6.31l13.88,2.58a3.21,3.21,0,0,1-.58,6.37ZM299,345.28a4,4,0,0,1-.6,0,3.21,3.21,0,0,1-2.55-3.76l2.65-13.86a3.21,3.21,0,0,1,6.3,1.2l-2.65,13.87A3.21,3.21,0,0,1,299,345.28Zm555.81-1.06a2.88,2.88,0,0,1-.59-.06l-13.88-2.58a3.21,3.21,0,1,1,1.17-6.31l13.88,2.59a3.21,3.21,0,0,1-.58,6.36Zm-81.18-2.59a3.2,3.2,0,0,1-3.07-2.28L767.13,328l-13.87-2.58a3.21,3.21,0,0,1,1.17-6.31l13.88,2.58.47.13a3.2,3.2,0,0,1,3.85,2.19l4.06,13.52a3.22,3.22,0,0,1-2.15,4A3.31,3.31,0,0,1,773.61,341.63Zm52.16-2.81a2.88,2.88,0,0,1-.59-.05l-13.88-2.58a3.21,3.21,0,0,1,1.17-6.31l13.88,2.58a3.21,3.21,0,0,1-.58,6.36Zm-29-5.39a2.88,2.88,0,0,1-.59-.06l-13.88-2.58a3.21,3.21,0,0,1,1.17-6.31l13.88,2.58a3.21,3.21,0,0,1-.58,6.37Zm-205.48-7.38a3.26,3.26,0,0,1-1.79-.54,3.22,3.22,0,0,1-.87-4.46l7.87-11.71a3.21,3.21,0,1,1,5.33,3.58l-7.88,11.71A3.2,3.2,0,0,1,591.27,326.05Zm147.44-3.42a3.81,3.81,0,0,1-.59-.05L724.24,320a3.21,3.21,0,1,1,1.17-6.31l13.88,2.58a3.21,3.21,0,0,1-.58,6.36Zm-29-5.4a2.88,2.88,0,0,1-.59-.05l-13.88-2.58a3.21,3.21,0,1,1,1.17-6.31l13.88,2.58a3.21,3.21,0,0,1-.58,6.36Zm-405.17-.94a3.05,3.05,0,0,1-.6-.06,3.21,3.21,0,0,1-2.55-3.75L304,298.61a3.21,3.21,0,1,1,6.3,1.21l-2.65,13.86A3.21,3.21,0,0,1,304.52,316.29Zm460.62-2.93a3.2,3.2,0,0,1-3.07-2.29L758,297.55a3.21,3.21,0,1,1,6.15-1.84l4.05,13.52a3.2,3.2,0,0,1-2.15,4A3,3,0,0,1,765.14,313.36Zm-84.47-1.52a2.88,2.88,0,0,1-.59-.06L666.2,309.2a3.21,3.21,0,1,1,1.17-6.31l13.88,2.58a3.21,3.21,0,0,1-.58,6.37Zm-29-5.4a4,4,0,0,1-.6-.05l-13.87-2.59a3.2,3.2,0,1,1,1.17-6.3l13.88,2.58a3.21,3.21,0,0,1-.58,6.36Zm-43.92-4.89A3.17,3.17,0,0,1,606,301a3.23,3.23,0,0,1-.88-4.46l.51-.75a3.3,3.3,0,0,1,0-1.13,3.2,3.2,0,0,1,2.47-2.55l4.89-7.28a3.21,3.21,0,1,1,5.32,3.58l-3.19,4.75,8.13,1.51A3.21,3.21,0,1,1,622,301l-10.85-2-.78,1.16A3.18,3.18,0,0,1,607.73,301.55Zm-14.13-5.9a3,3,0,0,1-.59-.06L579.14,293a3.21,3.21,0,0,1,1.17-6.31l13.88,2.58a3.21,3.21,0,0,1-.59,6.37Zm-29-5.4a3,3,0,0,1-.59-.06l-13.88-2.58a3.21,3.21,0,0,1,1.18-6.31l13.88,2.59a3.21,3.21,0,0,1-.59,6.36ZM310.07,287.3a3.15,3.15,0,0,1-.61-.06,3.21,3.21,0,0,1-2.55-3.75l2.65-13.87a3.21,3.21,0,1,1,6.3,1.2l-2.65,13.87A3.21,3.21,0,0,1,310.07,287.3Zm446.59-2.22a3.2,3.2,0,0,1-3.07-2.28l-4.05-13.53a3.2,3.2,0,0,1,6.14-1.84L759.74,281a3.2,3.2,0,0,1-3.08,4.13Zm-221.1-.23a4,4,0,0,1-.59-.05l-13.88-2.58a3.21,3.21,0,0,1,1.18-6.31l13.88,2.58a3.21,3.21,0,0,1-.59,6.36Zm-29-5.4a3,3,0,0,1-.59-.05l-13.88-2.58a3.21,3.21,0,0,1,1.18-6.31l13.88,2.58a3.21,3.21,0,0,1-.59,6.36Zm117.66-2.39a3.21,3.21,0,0,1-2.66-5l7.88-11.72a3.21,3.21,0,1,1,5.32,3.58l-7.87,11.72A3.22,3.22,0,0,1,624.2,277.06Zm-146.68-3a3,3,0,0,1-.59-.06l-13.88-2.58a3.21,3.21,0,0,1,1.18-6.31l13.88,2.58a3.21,3.21,0,0,1-.59,6.37Zm-29-5.4a4,4,0,0,1-.59-.05L434,266a3.2,3.2,0,0,1,1.18-6.3l13.88,2.58a3.21,3.21,0,0,1-.59,6.36Zm-29-5.4a3,3,0,0,1-.59-.05L405,260.63a3.21,3.21,0,0,1,1.18-6.31l13.88,2.58a3.21,3.21,0,0,1-.59,6.36Zm-103.87-5a3.14,3.14,0,0,1-.61-.05,3.22,3.22,0,0,1-2.55-3.76l2.65-13.86a3.21,3.21,0,0,1,3.76-2.55l.12,0,.15,0L333,240.71a3.21,3.21,0,1,1-1.17,6.31l-11-2.05-2.06,10.73A3.2,3.2,0,0,1,315.61,258.3Zm74.85-.43a3,3,0,0,1-.59-.06L376,255.23a3.21,3.21,0,1,1,1.18-6.31l13.88,2.58a3.21,3.21,0,0,1-.59,6.37Zm357.73-1.06a3.22,3.22,0,0,1-3.08-2.29L741.06,241a3.21,3.21,0,0,1,6.15-1.84l4,13.52a3.19,3.19,0,0,1-2.15,4A3,3,0,0,1,748.19,256.81Zm-107.52-4.25a3.21,3.21,0,0,1-2.66-5l7.87-11.72a3.21,3.21,0,0,1,5.33,3.58l-7.88,11.72A3.2,3.2,0,0,1,640.67,252.56Zm-279.23-.09a3,3,0,0,1-.59-.06L347,249.83a3.21,3.21,0,1,1,1.18-6.31L362,246.11a3.21,3.21,0,0,1-.58,6.36Zm378.27-23.93a3.2,3.2,0,0,1-3.07-2.29l-4.06-13.53a3.21,3.21,0,0,1,6.15-1.84l4,13.53a3.22,3.22,0,0,1-3.07,4.13Zm-82.58-.48a3.22,3.22,0,0,1-2.66-5l7.88-11.72a3.21,3.21,0,1,1,5.32,3.58l-7.87,11.72A3.21,3.21,0,0,1,657.13,228.06Zm16.47-24.5a3.29,3.29,0,0,1-1.79-.54,3.22,3.22,0,0,1-.87-4.46l7.88-11.71a3.21,3.21,0,1,1,5.32,3.58l-7.87,11.71A3.22,3.22,0,0,1,673.6,203.56Zm57.63-3.3a3.21,3.21,0,0,1-3.07-2.29l-4-13.52a3.2,3.2,0,1,1,6.14-1.84l4.06,13.52a3.2,3.2,0,0,1-2.15,4A3,3,0,0,1,731.23,200.26Zm-41.16-21.2a3.18,3.18,0,0,1-1.79-.54,3.21,3.21,0,0,1-.87-4.46l7.87-11.71a3.21,3.21,0,0,1,5.33,3.58l-7.88,11.71A3.18,3.18,0,0,1,690.07,179.06ZM722.76,172a3.2,3.2,0,0,1-3.07-2.29l-4.06-13.52a3.21,3.21,0,1,1,6.15-1.85l4.05,13.53a3.2,3.2,0,0,1-2.15,4A3.32,3.32,0,0,1,722.76,172Zm-16.23-17.42a3.22,3.22,0,0,1-2.66-5l7.61-11.32a3.21,3.21,0,0,1,5.74.87l.14.46a3.21,3.21,0,0,1-1.56,3.75l-6.6,9.82A3.21,3.21,0,0,1,706.53,154.57Z"/><path class="cls-5" d="M967.07,987h-.25l-14.07-1.1a3.21,3.21,0,0,1,.5-6.4l14.07,1.1a3.21,3.21,0,0,1-.25,6.41Zm-29.42-2.3h-.26l-14.07-1.11a3.2,3.2,0,1,1,.5-6.39l14.07,1.1a3.21,3.21,0,0,1-.24,6.41Zm-29.43-2.31H908l-14.08-1.1a3.2,3.2,0,1,1,.5-6.39l14.08,1.1a3.21,3.21,0,0,1-.25,6.4Zm-29.43-2.3h-.25l-14.08-1.1a3.2,3.2,0,0,1,.5-6.39l14.08,1.1a3.2,3.2,0,0,1-.25,6.4Zm-29.43-2.3h-.25L835,976.64a3.21,3.21,0,0,1,.5-6.4l14.07,1.11a3.2,3.2,0,0,1-.25,6.4Zm-29.42-2.3h-.26l-14.07-1.1a3.21,3.21,0,0,1,.5-6.4l14.07,1.1a3.21,3.21,0,0,1-.24,6.41Zm-29.43-2.3h-.26L776.18,972a3.21,3.21,0,0,1,.5-6.4l14.07,1.1a3.21,3.21,0,0,1-.24,6.41Zm-29.43-2.3h-.25l-14.08-1.1a3.21,3.21,0,0,1,.5-6.4l14.08,1.1a3.21,3.21,0,0,1-.25,6.41Zm-29.43-2.3h-.25l-14.08-1.1a3.21,3.21,0,0,1,.5-6.4l14.08,1.1a3.21,3.21,0,0,1-.25,6.41Zm-29.43-2.3H702l-14.07-1.1a3.21,3.21,0,0,1,.5-6.4l14.07,1.1a3.21,3.21,0,0,1-.25,6.41Zm-29.43-2.31h-.25l-14.07-1.1a3.2,3.2,0,1,1,.5-6.39l14.07,1.1a3.2,3.2,0,0,1-.25,6.4Zm-29.42-2.3h-.26L629,960.53a3.2,3.2,0,1,1,.5-6.39l14.07,1.1a3.2,3.2,0,0,1-.24,6.4Zm-29.43-2.3h-.26l-14.07-1.1a3.21,3.21,0,0,1,.5-6.4l14.08,1.1a3.21,3.21,0,0,1-.25,6.41ZM584.51,957h-.25l-14.08-1.1a3.21,3.21,0,0,1,.5-6.4l14.08,1.1a3.21,3.21,0,0,1-.25,6.41Zm-29.43-2.3h-.25l-14.07-1.1a3.21,3.21,0,0,1,.5-6.4l14.07,1.1a3.21,3.21,0,0,1-.25,6.41Zm-29.43-2.3h-.25l-14.07-1.1a3.21,3.21,0,0,1,.5-6.4L525.9,946a3.21,3.21,0,0,1-.25,6.41Zm-29.42-2.3H496L481.9,949a3.21,3.21,0,1,1,.5-6.4l14.07,1.1a3.21,3.21,0,0,1-.24,6.41Zm-29.43-2.3h-.26l-14.07-1.1a3.21,3.21,0,0,1,.5-6.4l14.07,1.1a3.21,3.21,0,0,1-.24,6.41Zm-29.43-2.31h-.25L423,944.42a3.2,3.2,0,1,1,.5-6.39l14.08,1.1a3.2,3.2,0,0,1-.25,6.4Zm-29.43-2.3h-.25l-14.08-1.1a3.2,3.2,0,0,1,.5-6.39l14.08,1.1a3.2,3.2,0,0,1-.25,6.4Zm-29.43-2.3h-.25l-14.07-1.1a3.21,3.21,0,0,1,.5-6.4l14.07,1.1a3.21,3.21,0,0,1-.25,6.41Zm-29.42-2.3h-.26l-14.07-1.1a3.21,3.21,0,1,1,.5-6.4l14.07,1.1a3.21,3.21,0,0,1-.24,6.41Zm-29.43-2.3h-.26l-14.07-1.1a3.21,3.21,0,0,1,.5-6.4l14.07,1.1a3.21,3.21,0,0,1-.24,6.41ZM290.23,934H290l-14.08-1.1a3.21,3.21,0,1,1,.5-6.4l14.08,1.1a3.21,3.21,0,0,1-.25,6.41Zm-29.43-2.3h-.25l-14.08-1.1a3.21,3.21,0,0,1,.5-6.4l14.08,1.1a3.21,3.21,0,0,1-.25,6.41Zm-29.43-2.3h-.25l-14.07-1.11a3.2,3.2,0,1,1,.5-6.39l14.07,1.1a3.21,3.21,0,0,1-.25,6.41ZM202,927.12h-.26l-14-1.09a3.2,3.2,0,1,1,.5-6.39l14,1.09a3.2,3.2,0,0,1-.24,6.4Z"/><path class="cls-6" d="M1086.18,673.68h-.26l-14.07-1.14a3.21,3.21,0,0,1,.51-6.4l14.08,1.14a3.21,3.21,0,0,1-.26,6.41Zm-29.42-2.39h-.26l-14.08-1.14a3.21,3.21,0,0,1,.52-6.4l14.07,1.14a3.21,3.21,0,0,1-.25,6.41Zm-29.42-2.39h-.27L1013,667.75a3.21,3.21,0,0,1,.52-6.4l14.07,1.15a3.21,3.21,0,0,1-.25,6.4Zm-29.42-2.39h-.27l-14.07-1.14a3.21,3.21,0,1,1,.52-6.39l14.07,1.14a3.21,3.21,0,0,1-.25,6.4Zm-29.42-2.38-.27,0L954.16,663a3.21,3.21,0,1,1,.52-6.39l14.07,1.14a3.21,3.21,0,0,1-.25,6.41Zm-29.43-2.39h-.26l-14.07-1.15a3.21,3.21,0,1,1,.52-6.39l14.07,1.14a3.21,3.21,0,0,1-.26,6.41Zm-29.42-2.39h-.26l-14.07-1.14a3.21,3.21,0,1,1,.52-6.4l14.07,1.14a3.21,3.21,0,0,1-.26,6.41ZM880.23,657H880l-14.07-1.14a3.21,3.21,0,1,1,.52-6.4l14.07,1.14a3.21,3.21,0,0,1-.26,6.41Zm-29.42-2.39h-.26l-14.07-1.14A3.21,3.21,0,0,1,837,647l14.07,1.15a3.21,3.21,0,0,1-.26,6.4Zm-29.42-2.39h-.26L807.06,651a3.21,3.21,0,1,1,.51-6.39l14.08,1.14a3.21,3.21,0,0,1-.26,6.4ZM792,649.79h-.26l-14.08-1.14a3.21,3.21,0,0,1,.52-6.39l14.07,1.14a3.21,3.21,0,0,1-.25,6.4Zm-29.42-2.38h-.27l-14.07-1.15a3.21,3.21,0,0,1,.52-6.39L762.8,641a3.21,3.21,0,0,1-.25,6.41ZM733.13,645h-.27l-14.07-1.15a3.21,3.21,0,1,1,.52-6.39l14.07,1.14a3.21,3.21,0,0,1-.25,6.41Zm-29.42-2.39h-.27l-14.07-1.14a3.21,3.21,0,1,1,.52-6.4L704,636.22a3.21,3.21,0,0,1-.25,6.41Zm-29.43-2.39H674L660,639.09a3.21,3.21,0,1,1,.52-6.4l14.07,1.14a3.21,3.21,0,0,1-.26,6.41Zm-29.42-2.39h-.26l-14.07-1.14a3.21,3.21,0,1,1,.52-6.4l14.07,1.15a3.21,3.21,0,0,1-.26,6.4Zm-29.42-2.39h-.26l-14.07-1.14a3.21,3.21,0,1,1,.52-6.39l14.07,1.14a3.21,3.21,0,0,1-.26,6.4ZM586,633.08h-.26l-14.07-1.15a3.21,3.21,0,1,1,.52-6.39l14.07,1.14a3.21,3.21,0,0,1-.26,6.41Zm-29.42-2.39h-.26l-14.07-1.15a3.21,3.21,0,1,1,.51-6.39l14.08,1.14a3.21,3.21,0,0,1-.26,6.41Zm-29.42-2.39h-.26l-14.08-1.14a3.21,3.21,0,0,1,.52-6.4l14.07,1.14a3.21,3.21,0,0,1-.25,6.41Zm-29.42-2.39h-.27l-14.07-1.14a3.21,3.21,0,0,1,.52-6.4L498,619.5a3.21,3.21,0,0,1-.25,6.41Zm-29.42-2.39h-.27L454,622.37a3.21,3.21,0,1,1,.52-6.4l14.07,1.15a3.21,3.21,0,0,1-.25,6.4Zm-29.42-2.39h-.27L424.58,620a3.21,3.21,0,1,1,.52-6.39l14.07,1.14a3.21,3.21,0,0,1-.25,6.4Zm-29.43-2.38-.26,0-14.07-1.14a3.21,3.21,0,1,1,.52-6.39l14.07,1.14a3.21,3.21,0,0,1-.26,6.41Zm-29.42-2.39h-.26l-14.07-1.15a3.21,3.21,0,1,1,.52-6.39L380.33,610a3.21,3.21,0,0,1-.26,6.41ZM350.65,614h-.26l-14.07-1.14a3.21,3.21,0,1,1,.52-6.4l14.07,1.14a3.21,3.21,0,0,1-.26,6.41Zm-29.42-2.39H321l-14.07-1.14a3.21,3.21,0,0,1,.52-6.4l14.07,1.14a3.21,3.21,0,0,1-.26,6.41Zm-29.42-2.39h-.26L277.48,608a3.21,3.21,0,0,1,.51-6.4l14.08,1.15a3.21,3.21,0,0,1-.26,6.4Zm-29.42-2.39h-.26l-14.07-1.14a3.21,3.21,0,0,1,.51-6.4l14.08,1.15a3.21,3.21,0,0,1-.26,6.4ZM233,604.41h-.27l-14.07-1.14a3.21,3.21,0,0,1,.52-6.39L233.22,598a3.21,3.21,0,0,1-.25,6.4ZM203.55,602h-.27l-14.07-1.15a3.21,3.21,0,1,1,.52-6.39l14.07,1.14a3.21,3.21,0,0,1-.25,6.41Zm-29.42-2.39h-.27l-14.07-1.14a3.21,3.21,0,1,1,.52-6.4l14.07,1.14a3.21,3.21,0,0,1-.25,6.41Zm-29.42-2.39h-.27l-14.07-1.14a3.21,3.21,0,1,1,.52-6.4L145,590.84a3.21,3.21,0,0,1-.25,6.41Zm-29.43-2.39H115L101,593.71a3.21,3.21,0,0,1,.52-6.4l14.07,1.14a3.21,3.21,0,0,1-.26,6.41Z"/><rect class="cls-7" x="235.96" y="151.2" width="138.6" height="142.45" rx="12"/><rect class="cls-8" x="246.66" y="160.24" width="115.48" height="120.64" rx="12"/><rect class="cls-9" x="988.63" y="270.55" width="138.6" height="142.45" rx="12"/><rect class="cls-10" x="999.33" y="279.59" width="115.48" height="120.64" rx="12"/><rect class="cls-11" x="146.49" y="867.22" width="105.86" height="108.8" rx="12"/><rect class="cls-12" x="154.67" y="874.13" width="88.2" height="92.14" rx="12"/><rect class="cls-13" x="928.15" y="886.48" width="105.86" height="108.8" rx="12"/><rect class="cls-14" x="936.33" y="893.38" width="88.2" height="92.14" rx="12"/><rect class="cls-15" x="651.75" y="70.35" width="108.63" height="111.65" rx="12"/><rect class="cls-16" x="660.15" y="77.44" width="90.51" height="94.55" rx="12"/><rect class="cls-17" x="64.63" y="516.95" width="108.63" height="111.65" rx="12"/><rect class="cls-18" x="73.03" y="524.03" width="90.51" height="94.55" rx="12"/><rect class="cls-19" x="1026.73" y="596.79" width="108.63" height="111.65" rx="12"/><rect class="cls-20" x="1035.13" y="603.88" width="90.51" height="94.55" rx="12"/><path class="cls-21" d="M206,619c3.86,70.59,43,480.38,430.81,510.87,0,0,43.11-276.75-422.19-516.57A6,6,0,0,0,206,619Z"/><path class="cls-22" d="M252.88,672.53c9.35,21.67,19.61,43,30.28,64.08S305,778.51,316.74,799A1259.18,1259.18,0,0,0,393.4,918.17c27.91,38.08,58.31,74.43,92.34,107.08,8.48,8.19,17.27,16,26.25,23.66s18.23,14.91,27.74,21.83A375.09,375.09,0,0,0,600.09,1107h0a2.57,2.57,0,0,1-2.2,4.64h0a380.22,380.22,0,0,1-61-37Q522.55,1064,509,1052.4c-9-7.74-17.83-15.69-26.32-24-34.11-33.06-64.45-69.74-92.25-108.09a1259.65,1259.65,0,0,1-76.24-119.85q-17.43-30.94-33.32-62.72c-10.58-21.18-20.74-42.56-30-64.38a1.08,1.08,0,1,1,2-.86Z"/><path class="cls-23" d="M1087.94,637.38c2.54,60.86,2.85,415.68-330.05,475.78,0,0-60.34-233.54,322.12-479.91A5.15,5.15,0,0,1,1087.94,637.38Z"/><path class="cls-22" d="M1053.75,689c-6.3,19.1-13.33,37.89-20.65,56.59s-15.13,37.19-23.28,55.54-16.74,36.51-25.74,54.46-18.36,35.74-28.35,53.17c-19.87,34.92-41.69,68.8-66.33,100.64l-2.29,3-2.37,2.94-4.75,5.86-4.76,5.86c-1.58,2-3.28,3.82-4.91,5.73-3.32,3.79-6.56,7.65-9.94,11.38l-10.31,11a455.45,455.45,0,0,1-44.7,40.75,2.57,2.57,0,0,1-3.18-4h0l0,0a450.9,450.9,0,0,0,44.41-40L856.92,1041c3.38-3.67,6.62-7.48,9.93-11.21,1.64-1.89,3.33-3.73,4.91-5.66l4.76-5.79,4.75-5.8,2.38-2.9,2.29-3c24.67-31.47,46.61-65.07,66.62-99.74,10.06-17.31,19.47-35,28.59-52.84s17.77-35.9,26-54.17,16.12-36.69,23.58-55.29,14.56-37.36,20.94-56.32v0a1.09,1.09,0,0,1,2.07.69Z"/><path class="cls-24" d="M949.64,575.81a60.31,60.31,0,0,0-34.35-50.55l-256-121.57a60.37,60.37,0,0,0-51.82,0l-256,121.57a60.31,60.31,0,0,0-34.35,50.55c-24,371.14,214,506.37,292,540.53a60.41,60.41,0,0,0,48.52,0C735.68,1082.18,973.66,947,949.64,575.81Z"/><path class="cls-25" d="M556,457.41a6.14,6.14,0,0,1-2.64-11.68L613.83,417a6.14,6.14,0,0,1,5.26,11.09l-60.48,28.73A6.17,6.17,0,0,1,556,457.41Z"/><path class="cls-25" d="M336.75,657.73a6.14,6.14,0,0,1-6.13-5.93c-.81-24.21-.39-49.46,1.27-75a45.58,45.58,0,0,1,26-38.18l172.2-81.79a6.14,6.14,0,0,1,5.27,11.09l-172.2,81.78a33.34,33.34,0,0,0-19,27.89c-1.62,25.18-2,50-1.24,73.84a6.14,6.14,0,0,1-5.93,6.34Z"/><path class="cls-26" d="M887.74,590.29a15.07,15.07,0,0,0-8.58-12.85L639.87,463.79a15.07,15.07,0,0,0-12.92,0L387.66,577.44a15.07,15.07,0,0,0-8.58,12.85c-7.08,138.45,24.9,254,95.11,343.5,53.53,68.26,116.16,104.84,152.85,121.91a15.09,15.09,0,0,0,12.74,0c36.69-17.07,99.32-53.65,152.85-121.91C862.84,844.26,894.82,728.74,887.74,590.29Z"/><circle class="cls-27" cx="640.29" cy="692.03" r="131.33"/><path class="cls-28" d="M639.06,769.86A16.39,16.39,0,0,1,625,761.79l-49.91-84.15a16.76,16.76,0,0,1,5.62-22.82,16.31,16.31,0,0,1,22.54,5.69l34.65,58.41,45.8-91.12a16.33,16.33,0,0,1,22.09-7.27A16.74,16.74,0,0,1,713,642.9L653.7,760.77a16.4,16.4,0,0,1-14.06,9.08Z"/><path class="cls-29" d="M820,782.51c.29.54,9,6.71,9,6.71s6.08,33.53-5.08,50-49.21-12.88-49.21-12.88S753.33,823,742.58,781c-2.46-9.65,13-2.32,30.14-.54C794.87,782.7,820,782.51,820,782.51Z"/><path class="cls-30" d="M858,887.59a78.83,78.83,0,0,0-23.89-11.12c-3.21-.87-20.54,4.17-31.25,3.92-14.7-.34-29.66-7-41.78-4s-21.89,6.92-27.58,11c-17,12.11-27,34.69-33.12,57.06a78,78,0,0,0,26.06,17.1l2.68,108.73,64.29,32.9,73.38-36.85L864.12,960s23.3-10.85,25-14.8S878.51,901.72,858,887.59Z"/><path class="cls-31" d="M888,944.77s31.23,86.57-40,122.15c-14.78-2-9.1-26.52-9.1-26.52s30.94-6.84,21.65-79.06C869.17,954.3,888,944.77,888,944.77Z"/><path class="cls-32" d="M701.83,944.77s-21.48,90.37,40,122.15c14.78-2,9.09-26.52,9.09-26.52s-24.93-12.28-21.64-79.06C720.71,954.3,701.83,944.77,701.83,944.77Z"/><rect class="cls-33" x="726.6" y="977.79" width="140.99" height="95.21" rx="5.05" transform="translate(1594.19 2050.79) rotate(180)"/><path class="cls-34" d="M788.78,1003.57c-.75,5,2,9.64,7,10.39a9.25,9.25,0,0,0,10.5-7.8c.75-5-1.56-10.06-6.61-10.81A10,10,0,0,0,788.78,1003.57Z"/><path class="cls-35" d="M664.77,1101.23c16.13-3.7,53.42-1.71,53.42-1.71l1.52,4.1,2.51,20.42s-35.51,6.4-53,6.39a16.21,16.21,0,0,1-4.91-.74c-.53-.48-1.06-1-1.55-1.51C655.31,1120.07,657.46,1108.15,664.77,1101.23Z"/><path class="cls-36" d="M663.17,1101.63c.5-.14,1-.27,1.6-.4-7.31,6.92-9.46,18.84-2,27,.49.54,1,1,1.55,1.51C651.16,1125.61,649.6,1105.45,663.17,1101.63Z"/><path class="cls-37" d="M728.91,1098.37l-6.32.27a12.13,12.13,0,0,0-8.87,4.58,15,15,0,0,0-3.25,10.24,11.82,11.82,0,0,0,3.41,7.79,9.58,9.58,0,0,0,7.39,2.81l9.66-.69Z"/><path class="cls-38" d="M941.24,1099.27c-16.22-3.21-53.45-.08-53.45-.08l-1.41,4.16-2,20.48s35.66,5.31,53.16,4.76a16.6,16.6,0,0,0,4.89-.89,18.59,18.59,0,0,0,1.51-1.56C951.16,1117.81,948.71,1106,941.24,1099.27Z"/><path class="cls-39" d="M942.85,1099.62c-.51-.13-1.05-.24-1.61-.35,7.47,6.69,9.92,18.54,2.69,26.87a18.59,18.59,0,0,1-1.51,1.56C955.45,1123.21,956.5,1103,942.85,1099.62Z"/><path class="cls-40" d="M877.05,1098.37l6.32.08a12.07,12.07,0,0,1,9,4.31,14.87,14.87,0,0,1,3.51,10.13,11.83,11.83,0,0,1-3.22,7.9,9.62,9.62,0,0,1-7.32,3l-9.67-.39Z"/><path class="cls-41" d="M660.25,1037.22c7.32-16.84,25.22-19.57,40.45-11.7.26.35,96.73,49.79,181.8,71.46a92.6,92.6,0,0,0-4,24.28c0,1.82,0,3.62.09,5.39-65.24-3.35-136-25.11-196.88-44.23C662.88,1076.33,652.14,1055.89,660.25,1037.22Z"/><path class="cls-42" d="M728.44,1122.54a56,56,0,0,0-5.49-26.29c-.11-.37-.24-.72-.36-1.09,4.86-1.51,11.13-3.54,19.38-6.34,60.41-20.67,106.49-41.55,150.48-65.58,17.08-9.33,36.51-3.08,42,17.14,4.88,18-6.2,32.48-22.11,38.87-54.72,22-135.09,42.06-184,45.34C728.38,1123.91,728.42,1123.22,728.44,1122.54Z"/><path class="cls-43" d="M834.06,876.47s-6.5,28.16-38,27.57c-32.13-.58-35-27.66-35-27.66l21-4.49,1.76-23.38,31.57,2.34.58,22.21Z"/><path class="cls-44" d="M812.31,779.58s33.61,65.12-6.26,80.91c-28.13,11.15-45.76-43.24-40.5-58,8.13-22.78,13.48-20.08,13.48-20.08Z"/><path class="cls-25" d="M765.55,802.53c.09-.27.17-.51.25-.73-.13,1.2-.2,2.46-.21,3.75-.05-.92-.1-1.84-.13-2.76Z"/><path class="cls-25" d="M765.8,801.8c.05-.44.1-.88.16-1.31C764.23,803.37,767.56,796.65,765.8,801.8Z"/><path class="cls-45" d="M750,762.1c-18-4.09-5.51,51.62,21.31,42.49s39.3-14.75,43.48-7.39,11.14,37.49,13.46,21.87c2.16-14.6,4.25-41.34-9.83-47.18-8-3.32-15,3.87-20.55,2.07-8.49-2.77-16.67-2.86-21.71,0C766.6,779.51,761.43,764.71,750,762.1Z"/><path class="cls-46" d="M817.77,808s5.82-8.78,8.47.2,1,21.4-4.37,15.63S817.77,808,817.77,808Z"/></g></g></svg>