<svg xmlns="http://www.w3.org/2000/svg" xmlns:xlink="http://www.w3.org/1999/xlink" viewBox="0 0 1200 1200"><defs><style>.cls-1{mask:url(#mask);filter:url(#luminosity-noclip-2);}.cls-2{mix-blend-mode:multiply;fill:url(#linear-gradient);}.cls-3{fill:#3d3144;}.cls-4{fill:#61ed46;}.cls-5{opacity:0.3;}.cls-20,.cls-6{fill:#000072;}.cls-7{fill:#4d5a6a;}.cls-8{opacity:0.55;}.cls-19,.cls-9{fill:#fff;}.cls-10{opacity:0.4;}.cls-11{fill:#fdbd91;}.cls-12{fill:#ac3d50;}.cls-13{opacity:0.2;}.cls-14{fill:#fefefe;}.cls-15{mask:url(#mask-2);}.cls-16{opacity:0.5;fill:url(#linear-gradient-2);}.cls-17{fill:#c6d3e3;}.cls-18{opacity:0.75;}.cls-19,.cls-20{fill-rule:evenodd;}.cls-21{filter:url(#luminosity-noclip);}</style><filter id="luminosity-noclip" x="243.87" y="-9847.48" width="721.23" height="32766" filterUnits="userSpaceOnUse" color-interpolation-filters="sRGB"><feFlood flood-color="#fff" result="bg"/><feBlend in="SourceGraphic" in2="bg"/></filter><mask id="mask" x="243.87" y="-9847.48" width="721.23" height="32766" maskUnits="userSpaceOnUse"><g class="cls-21"/></mask><linearGradient id="linear-gradient" x1="604.49" y1="434.63" x2="600.68" y2="983.69" gradientUnits="userSpaceOnUse"><stop offset="0"/><stop offset="1" stop-color="#fff"/></linearGradient><filter id="luminosity-noclip-2" x="243.87" y="432.12" width="721.23" height="550.11" filterUnits="userSpaceOnUse" color-interpolation-filters="sRGB"><feFlood flood-color="#fff" result="bg"/><feBlend in="SourceGraphic" in2="bg"/></filter><mask id="mask-2" x="243.87" y="432.12" width="721.23" height="550.11" maskUnits="userSpaceOnUse"><g class="cls-1"><polygon class="cls-2" points="819.62 982.22 390.78 982.23 243.87 432.12 965.1 438.41 819.62 982.22"/></g></mask><linearGradient id="linear-gradient-2" x1="604.49" y1="434.63" x2="600.68" y2="983.69" gradientUnits="userSpaceOnUse"><stop offset="0" stop-color="#40e6ff"/><stop offset="1" stop-color="#40e6ff"/></linearGradient></defs><g id="Layer_2" data-name="Layer 2"><g id="Layer_1-2" data-name="Layer 1"><rect class="cls-3" width="1200" height="1200"/><path class="cls-4" d="M965.87,146H874.49a6.38,6.38,0,0,1,0-12.75h91.38a6.38,6.38,0,0,1,0,12.75Z"/><path class="cls-4" d="M786.31,146H412.18a6.38,6.38,0,0,1,0-12.75H786.31a6.38,6.38,0,0,1,0,12.75Z"/><path class="cls-4" d="M353.16,146H249.75a6.38,6.38,0,1,1,0-12.75H353.16a6.38,6.38,0,1,1,0,12.75Z"/><path class="cls-4" d="M965.87,199.13H887.24a6.38,6.38,0,0,1,0-12.75h78.63a6.38,6.38,0,0,1,0,12.75Z"/><path class="cls-4" d="M839.08,199.13H369.23a6.38,6.38,0,1,1,0-12.75H839.08a6.38,6.38,0,0,1,0,12.75Z"/><path class="cls-4" d="M304,199.13H249.75a6.38,6.38,0,1,1,0-12.75H304a6.38,6.38,0,0,1,0,12.75Z"/><path class="cls-4" d="M965.87,252.25H249.75a6.38,6.38,0,1,1,0-12.75H965.87a6.38,6.38,0,0,1,0,12.75Z"/><path class="cls-4" d="M965.87,305.38H360.25a6.38,6.38,0,1,1,0-12.75H965.87a6.38,6.38,0,0,1,0,12.75Z"/><path class="cls-4" d="M304,305.38H249.75a6.38,6.38,0,1,1,0-12.75H304a6.38,6.38,0,0,1,0,12.75Z"/><path class="cls-4" d="M965.87,358.5H920.18a6.38,6.38,0,0,1,0-12.75h45.69a6.38,6.38,0,0,1,0,12.75Z"/><path class="cls-4" d="M874.49,358.5H249.75a6.38,6.38,0,1,1,0-12.75H874.49a6.38,6.38,0,1,1,0,12.75Z"/><path class="cls-4" d="M965.87,411.63H249.75a6.38,6.38,0,1,1,0-12.75H965.87a6.38,6.38,0,0,1,0,12.75Z"/><path class="cls-4" d="M965.87,464.75H914.3a6.38,6.38,0,0,1,0-12.75h51.57a6.38,6.38,0,0,1,0,12.75Z"/><path class="cls-4" d="M860.18,464.75H388.58a6.38,6.38,0,0,1,0-12.75h471.6a6.38,6.38,0,1,1,0,12.75Z"/><path class="cls-4" d="M310.66,464.75H249.75a6.38,6.38,0,1,1,0-12.75h60.91a6.38,6.38,0,1,1,0,12.75Z"/><path class="cls-4" d="M965.87,517.88h-115a6.38,6.38,0,0,1,0-12.75h115a6.38,6.38,0,0,1,0,12.75Z"/><path class="cls-4" d="M761.16,517.88H249.75a6.38,6.38,0,1,1,0-12.75H761.16a6.38,6.38,0,1,1,0,12.75Z"/><g class="cls-5"><path class="cls-6" d="M149.92,1037.47c151.13,39,749,39,900.16,0,14-3.61,10.57-19.8-4.16-19.8H154.08C139.35,1017.67,135.94,1033.86,149.92,1037.47Z"/></g><path class="cls-6" d="M192.23,1015.51c17-3.32,34-4.2,51-4.56s34-.22,51,0,34,.25,51,.22H931.31c8.5,0,17-.29,25.49-.43,17-.08,34,.12,51,4.75a2.23,2.23,0,0,1,1.57,2.75,2.21,2.21,0,0,1-1.57,1.56c-17,4.64-34,4.83-51,4.75-8.49-.13-17-.43-25.49-.42H345.14q-25.49,0-51,.21c-17,.26-34,.5-51,0s-34-1.25-51-4.57a2.19,2.19,0,0,1,0-4.31Z"/><path class="cls-7" d="M810.16,971.6l2.69-.32A128.77,128.77,0,0,0,923.79,817.52L895.67,680.45A134.47,134.47,0,0,0,763.94,573H441.27A134.47,134.47,0,0,0,309.54,680.45L281.41,817.52a128.78,128.78,0,0,0,111,153.76l2.68.32Z"/><path class="cls-6" d="M810.23,972.62H395.05l-2.81-.32a129.81,129.81,0,0,1-111.83-155l28.12-137.07A136,136,0,0,1,441.27,572H763.94A136,136,0,0,1,896.68,680.24L924.8,817.31A129.81,129.81,0,0,1,813,972.3ZM441.27,574A133.91,133.91,0,0,0,310.55,680.66L282.42,817.72A127.76,127.76,0,0,0,392.48,970.26l2.69.31H810.1l2.63-.31A127.76,127.76,0,0,0,922.79,817.72L894.66,680.66A133.92,133.92,0,0,0,763.94,574Z"/><g class="cls-5"><path class="cls-6" d="M812.85,971.29l-2.68.31H395.05l-2.68-.31a128.74,128.74,0,0,1-103.49-77.84,128.09,128.09,0,0,0,70.78,32l2.68.31H777.47l2.68-.31c74.86-8.9,126.11-79.91,110.94-153.75L863,634.62a135.64,135.64,0,0,0-8.32-26.39,133.91,133.91,0,0,1,41,72.21l28.13,137.07C938.94,891.35,887.7,962.39,812.85,971.29Z"/></g><g class="cls-8"><path class="cls-9" d="M830.3,590.52A134,134,0,0,0,781,581.19H458.38A134.45,134.45,0,0,0,326.65,688.63L298.52,825.7a128.79,128.79,0,0,0,62.22,137.71,128.88,128.88,0,0,1-79.34-145.9l28.14-137.07A134.47,134.47,0,0,1,441.27,573H763.93A134,134,0,0,1,830.3,590.52Z"/></g><path class="cls-6" d="M810.16,978.29H395.05a6.84,6.84,0,0,1-.79,0l-2.69-.32A135.45,135.45,0,0,1,274.86,816.17L303,679.1c13.41-65.35,71.57-112.79,138.29-112.79H763.94c66.71,0,124.87,47.44,138.29,112.79l28.12,137.07A135.47,135.47,0,0,1,813.64,977.92l-2.69.32A6.84,6.84,0,0,1,810.16,978.29ZM395.44,964.9H809.77l2.29-.27A122.08,122.08,0,0,0,917.24,818.86L889.11,681.79A128.24,128.24,0,0,0,763.94,579.7H441.27A128.24,128.24,0,0,0,316.1,681.79L288,818.86A122.09,122.09,0,0,0,393.15,964.63Z"/><path class="cls-7" d="M840.94,471.76c-.4,1.57-.83,3.15-1.25,4.69-.34,1.18-.67,2.34-1,3.5-.13.45-.24.87-.4,1.32-.26,1-.58,1.92-.87,2.85-.38,1.23-.78,2.44-1.18,3.64l-.53,1.58q-.87,2.61-1.83,5.16c-.67,1.87-1.39,3.72-2.12,5.55s-1.48,3.68-2.26,5.51-1.56,3.64-2.38,5.42-1.59,3.46-2.41,5.18l-.34.67c-.76,1.61-1.56,3.19-2.38,4.77l-.07.14c-.89,1.76-1.81,3.48-2.75,5.22q-1.67,3.07-3.43,6.09c-.8,1.4-1.63,2.79-2.46,4.17a.2.2,0,0,0-.06.11c-1,1.7-2.08,3.37-3.15,5q-2.67,4.18-5.51,8.3c-.82,1.21-1.67,2.39-2.52,3.57-.71,1-1.43,2-2.16,3-1.1,1.5-2.21,3-3.33,4.44s-2.18,2.81-3.3,4.22c-.62.78-1.25,1.56-1.87,2.32l-1.21,1.47c-.76.89-1.49,1.78-2.25,2.68q-3.07,3.61-6.29,7.16c-1,1.16-2.1,2.3-3.17,3.43-.78.83-1.56,1.68-2.34,2.5-1.12,1.16-2.21,2.3-3.35,3.41-1.61,1.63-3.26,3.26-4.91,4.87-1.34,1.29-2.67,2.56-4,3.81-.21.2-.41.4-.61.56-1.38,1.32-2.79,2.59-4.21,3.86-2.61,2.34-5.27,4.62-8,6.87l-2,1.7c-1.36,1.11-2.74,2.23-4.15,3.34q-7.29,5.79-14.92,11.18l-.29.2a223.37,223.37,0,0,1-63.81,31.14,225.7,225.7,0,0,1-195.76-31.34l-4.82-3.46a3.59,3.59,0,0,0-.49-.35L460,617.69c-1.63-1.25-3.25-2.52-4.88-3.82h0q-2.42-1.93-4.78-3.88c-1.61-1.31-3.17-2.65-4.73-4s-3.1-2.68-4.62-4-3.05-2.74-4.55-4.15-3-2.79-4.44-4.22-2.92-2.83-4.35-4.28-2.85-2.9-4.26-4.37-2.81-3-4.21-4.51-2.66-2.94-4-4.46c-1-1.16-2-2.34-3-3.52q-4.38-5.19-8.55-10.58c-1.11-1.47-2.25-2.94-3.32-4.44a6.81,6.81,0,0,1-.42-.56c-.76-1-1.5-2-2.21-3-1.65-2.32-3.26-4.64-4.82-7-.87-1.29-1.74-2.61-2.57-3.92-1.27-2-2.52-4-3.75-6-.84-1.42-1.71-2.87-2.56-4.32-1.16-2-2.3-4.11-3.44-6.18-.82-1.56-1.65-3.13-2.45-4.69s-1.63-3.19-2.39-4.79a5.91,5.91,0,0,1-.33-.67q-2.55-5.19-4.75-10.49a1.72,1.72,0,0,1-.2-.44c-.74-1.74-1.45-3.49-2.15-5.25s-1.45-3.68-2.12-5.55-1.36-3.73-2-5.6c-.47-1.39-.94-2.79-1.38-4.2-.36-1.11-.7-2.23-1-3.34-.16-.49-.31-1-.45-1.5-.33-1.09-.64-2.16-.93-3.25-.45-1.61-.87-3.22-1.3-4.85C342.38,354,449.48,223.34,556.5,167.32a93.87,93.87,0,0,1,87,0c2.41,1.25,4.8,2.59,7.21,4l0,0C755.29,231.42,857.25,356.63,840.94,471.76Z"/><g class="cls-10"><path class="cls-6" d="M641.16,662c3-.78,6.06-1.61,9.06-2.53A223.58,223.58,0,0,0,714,628.31l.29-.2q7.63-5.39,14.93-11.18c1.4-1.11,2.79-2.23,4.15-3.35l2-1.69c2.7-2.25,5.35-4.53,8-6.87,1.43-1.27,2.83-2.55,4.22-3.86a7.68,7.68,0,0,0,.6-.56c1.36-1.25,2.7-2.52,4-3.81,1.65-1.61,3.3-3.24,4.9-4.87,1.14-1.11,2.24-2.25,3.35-3.41l2.34-2.5c1.07-1.14,2.15-2.27,3.17-3.43q3.21-3.55,6.29-7.17l2.26-2.67,1.2-1.48c.63-.75,1.25-1.54,1.87-2.32,1.12-1.4,2.21-2.78,3.31-4.21s2.23-3,3.32-4.44c.74-1,1.45-2,2.16-3,.85-1.18,1.7-2.37,2.53-3.57q2.84-4.11,5.51-8.3c1.07-1.67,2.11-3.35,3.14-5a.18.18,0,0,1,.07-.11c.82-1.39,1.65-2.77,2.45-4.17,1.18-2,2.32-4,3.44-6.09.94-1.75,1.85-3.46,2.74-5.22,0,0,.05-.09.07-.14.82-1.58,1.63-3.17,2.39-4.77l.33-.67c.83-1.72,1.63-3.44,2.41-5.18s1.63-3.61,2.39-5.42,1.54-3.66,2.25-5.51,1.45-3.68,2.12-5.55c.65-1.7,1.25-3.42,1.83-5.16.18-.51.36-1,.53-1.58.41-1.21.81-2.41,1.19-3.64.29-.94.6-1.89.87-2.85.15-.45.26-.87.4-1.32.33-1.16.67-2.32,1-3.5.43-1.54.85-3.13,1.25-4.69C841.43,361.1,742.16,237.54,639,176.61c72.6,66,127.53,158.56,115.24,245.36-.4,1.56-.83,3.15-1.25,4.69-.33,1.18-.67,2.34-1,3.5-.14.45-.25.87-.4,1.32-.27.95-.58,1.91-.87,2.85-.38,1.23-.79,2.43-1.19,3.64-.18.53-.35,1.07-.53,1.58-.58,1.74-1.18,3.46-1.83,5.15q-1,2.82-2.12,5.56c-.71,1.85-1.47,3.68-2.25,5.51s-1.57,3.64-2.39,5.42-1.59,3.46-2.41,5.18l-.34.67c-.75,1.6-1.56,3.19-2.38,4.77a.83.83,0,0,0-.07.13c-.89,1.77-1.81,3.48-2.74,5.23-1.12,2.05-2.26,4.08-3.44,6.09-.8,1.4-1.63,2.78-2.45,4.17a.18.18,0,0,0-.07.11q-1.54,2.54-3.14,5c-1.79,2.79-3.62,5.56-5.52,8.3-.82,1.2-1.67,2.39-2.52,3.57-.71,1-1.42,2-2.16,3-1.09,1.49-2.21,3-3.33,4.44s-2.18,2.81-3.3,4.21c-.62.78-1.25,1.57-1.87,2.32-.4.5-.8,1-1.21,1.48-.75.89-1.49,1.78-2.25,2.67q-3.07,3.62-6.29,7.17c-1,1.16-2.1,2.29-3.17,3.43l-2.34,2.5c-1.12,1.16-2.21,2.3-3.35,3.41-1.6,1.63-3.25,3.26-4.9,4.87-1.34,1.29-2.68,2.56-4,3.81a7.68,7.68,0,0,1-.6.56c-1.39,1.31-2.79,2.59-4.22,3.86-2.61,2.34-5.27,4.62-8,6.87-.66.56-1.33,1.11-2,1.69q-2,1.68-4.15,3.35-7.29,5.79-14.92,11.18l-.29.2a225.48,225.48,0,0,1-127.33,40.93,225.6,225.6,0,0,0,39.95-4l1.13-.23c-4.81,1.25-9.65,2.36-14.52,3.29a226.23,226.23,0,0,1-88.11-.74l-1-.79c1.6,1.26,3.19,2.51,4.79,3.74l4.73,3.55a3.59,3.59,0,0,1,.49.35l4.82,3.46A225.62,225.62,0,0,0,640,662.22c4.15-.8,8.29-1.71,12.39-2.73C648.68,660.41,644.93,661.25,641.16,662Z"/></g><g class="cls-8"><path class="cls-9" d="M689,197.67c-8.23-5.58-16.55-10.78-24.87-15.57l0,0c-2.41-1.38-4.79-2.72-7.2-4a93.89,93.89,0,0,0-87,0c-107,56-214.12,186.66-197.43,304.45q.63,2.44,1.29,4.84c.29,1.1.6,2.17.94,3.26.13.49.29,1,.44,1.5.34,1.11.67,2.23,1,3.34.45,1.41.92,2.81,1.38,4.2.63,1.87,1.3,3.75,2,5.6s1.38,3.72,2.12,5.55,1.4,3.5,2.14,5.24a2.22,2.22,0,0,0,.2.45q2.2,5.29,4.75,10.49a4.7,4.7,0,0,0,.34.67c.76,1.6,1.56,3.21,2.39,4.79s1.62,3.12,2.45,4.69c1.14,2.07,2.27,4.15,3.43,6.18.85,1.45,1.72,2.9,2.57,4.32,1.23,2,2.48,4,3.75,6,.82,1.31,1.69,2.63,2.56,3.92,1.57,2.37,3.17,4.69,4.82,7,.72,1,1.45,2,2.21,3,.13.18.27.38.42.56,1.08,1.5,2.21,3,3.33,4.44q4.15,5.39,8.54,10.57,1.51,1.78,3.06,3.53c1.32,1.52,2.63,3,4,4.46s2.81,3,4.22,4.51,2.83,2.92,4.26,4.37,2.88,2.88,4.35,4.28,2.94,2.84,4.44,4.22,3,2.77,4.55,4.15,3.06,2.7,4.62,4,3.12,2.67,4.73,4,3.16,2.59,4.77,3.88h0q2.45,2,4.89,3.82c1.45,1.09,2.92,2.18,4.39,3.3-1.85-1.21-3.68-2.45-5.51-3.75l-4.82-3.46a3.59,3.59,0,0,0-.49-.35l-4.73-3.55q-2.43-1.87-4.88-3.82h0c-1.61-1.29-3.19-2.58-4.78-3.88s-3.17-2.65-4.73-4-3.1-2.68-4.62-4-3.05-2.74-4.55-4.15-3-2.79-4.44-4.21-2.92-2.84-4.35-4.29-2.85-2.9-4.26-4.37-2.81-3-4.21-4.51-2.66-2.94-4-4.46c-1-1.16-2.06-2.34-3.06-3.52q-4.38-5.19-8.55-10.58c-1.11-1.47-2.25-2.94-3.32-4.44a6.81,6.81,0,0,1-.42-.56c-.76-1-1.5-2-2.21-3.05-1.65-2.32-3.26-4.64-4.82-7-.87-1.29-1.74-2.61-2.57-3.92-1.27-2-2.52-4-3.74-6-.85-1.43-1.72-2.88-2.57-4.33-1.16-2-2.3-4.11-3.44-6.18-.82-1.56-1.65-3.12-2.45-4.69s-1.63-3.19-2.39-4.79a5.91,5.91,0,0,1-.33-.67Q375,514,372.83,508.72a1.72,1.72,0,0,1-.2-.44c-.74-1.74-1.45-3.48-2.15-5.25s-1.45-3.68-2.11-5.55-1.37-3.73-2-5.6c-.47-1.38-.94-2.79-1.38-4.2-.36-1.11-.7-2.23-1-3.34-.16-.49-.31-1-.45-1.5-.33-1.09-.64-2.16-.93-3.25-.45-1.61-.87-3.22-1.3-4.84C344.61,357,451.71,226.31,558.73,170.29a93.87,93.87,0,0,1,87,0c2.41,1.25,4.8,2.59,7.21,4l0,0A406.31,406.31,0,0,1,689,197.67Z"/></g><path class="cls-6" d="M600,672.85a231.85,231.85,0,0,1-133.79-42.33l-4.88-3.5-.24-.19a2.75,2.75,0,0,1-.33-.23c-1.69-1.26-3.24-2.42-4.77-3.58s-3.13-2.42-4.68-3.65c-.13-.09-.26-.18-.38-.28l-4.67-3.79c-1.8-1.48-3.4-2.85-5-4.22s-3.18-2.74-4.74-4.14l-.22-.2c-1.5-1.35-3-2.68-4.44-4s-3-2.83-4.52-4.29-3-2.89-4.46-4.39-2.93-3-4.33-4.45-2.87-3-4.28-4.58-2.77-3.07-4.12-4.62c-1-1.15-2.08-2.37-3.11-3.59-3.06-3.62-6-7.26-8.74-10.81l-.74-1c-.87-1.15-1.75-2.3-2.59-3.46-.15-.2-.3-.39-.44-.59-.82-1.09-1.61-2.19-2.38-3.29-1.79-2.51-3.41-4.87-4.91-7.14-.88-1.3-1.79-2.68-2.65-4.06-1.27-2-2.55-4-3.8-6.1L380,539c-.61-1-1.23-2-1.83-3.09-1.15-2-2.25-4-3.35-6l-.17-.32c-.89-1.68-1.73-3.27-2.54-4.85s-1.61-3.15-2.38-4.76c-.18-.34-.35-.68-.5-1-1.8-3.72-3.34-7.12-4.7-10.36a8.61,8.61,0,0,1-.4-.93c-.73-1.72-1.44-3.44-2.12-5.18s-1.49-3.79-2.19-5.75-1.38-3.79-2-5.74c-.47-1.39-.95-2.84-1.41-4.28-.37-1.14-.71-2.29-1.06-3.45-.15-.48-.34-1.08-.49-1.65-.31-1-.64-2.14-.95-3.31-.44-1.56-.87-3.2-1.3-4.87a4.53,4.53,0,0,1-.15-.75c-10.11-71.33,23.5-137.34,53.47-180.16,37.87-54.11,91.63-101.91,147.48-131.15a100.52,100.52,0,0,1,93.22,0c55.85,29.24,109.61,77,147.48,131.15,30,42.82,63.58,108.83,53.48,180.16,0,.25-.09.49-.15.73-.41,1.6-.85,3.22-1.28,4.8l-1.15,4c-.1.35-.2.69-.31,1-.2.7-.42,1.41-.64,2.1l-.23.74q-.55,1.77-1.14,3.51l-.09.26c-.19.57-.38,1.14-.57,1.68-.58,1.74-1.21,3.55-1.89,5.33s-1.4,3.76-2.17,5.68-1.49,3.73-2.3,5.63-1.61,3.75-2.47,5.6-1.6,3.5-2.45,5.27l-.39.77c-.72,1.54-1.56,3.2-2.43,4.87-.95,1.87-1.89,3.64-2.85,5.43-1.16,2.14-2.34,4.24-3.56,6.31-.78,1.37-1.63,2.79-2.48,4.21l0,0-.06.11c-1,1.74-2.13,3.46-3.23,5.18-2,3.07-3.81,5.85-5.64,8.5-.84,1.22-1.72,2.44-2.59,3.66-.72,1-1.45,2-2.2,3.05-1.12,1.52-2.25,3-3.39,4.52s-2.26,2.9-3.4,4.34c-.66.82-1.3,1.63-2,2.41L793,576.69c-2.1,2.47-4.27,4.93-6.43,7.32-1,1.12-2.08,2.28-3.16,3.43L781,590.06c-1.22,1.27-2.34,2.44-3.52,3.59-1.55,1.58-3.24,3.24-4.92,4.88-1.36,1.31-2.71,2.6-4.08,3.86-.26.25-.52.49-.77.71-1.39,1.32-2.79,2.59-4.22,3.86-2.78,2.47-5.51,4.82-8.13,7l-2,1.68c-1.45,1.19-2.86,2.33-4.29,3.46-4.93,3.92-10.06,7.75-15.23,11.41l-.25.17,0,0A231.9,231.9,0,0,1,600,672.85ZM469.34,616.29c1.53,1.11,3.07,2.21,4.6,3.3a219.17,219.17,0,0,0,251.85.19h0l.28-.2c5-3.51,9.89-7.19,14.62-11q2.07-1.64,4.07-3.28l2-1.66c2.51-2.09,5.14-4.36,7.81-6.73,1.37-1.22,2.72-2.44,4.05-3.71a3.65,3.65,0,0,1,.36-.31l.12-.13.21-.2c1.32-1.21,2.61-2.44,3.91-3.69,1.6-1.56,3.22-3.16,4.79-4.75,1.16-1.14,2.2-2.22,3.25-3.31l2.34-2.5c1.08-1.14,2.07-2.2,3-3.27,2.13-2.36,4.21-4.72,6.21-7.07l3.37-4,1.83-2.27c1.08-1.36,2.15-2.71,3.22-4.11s2.17-2.86,3.24-4.32c.71-1,1.41-1.94,2.11-2.92.83-1.16,1.65-2.31,2.45-3.47,1.76-2.55,3.52-5.2,5.4-8.13,1-1.62,2.05-3.24,3.05-4.89l0-.08h0c.8-1.35,1.61-2.7,2.39-4.06,1.18-2,2.28-4,3.36-6,.9-1.66,1.79-3.33,2.66-5l.1-.21c.78-1.5,1.55-3,2.27-4.53l.41-.83c.74-1.55,1.52-3.22,2.28-4.9s1.6-3.55,2.32-5.28,1.5-3.54,2.18-5.32,1.42-3.61,2.06-5.4,1.24-3.37,1.79-5l.62-1.84c.35-1.08.71-2.15,1-3.24l.25-.8c.19-.62.39-1.25.57-1.88a3.38,3.38,0,0,1,.13-.42c.06-.19.11-.37.17-.55l1.11-3.88c.37-1.34.75-2.75,1.11-4.16,7.28-52.2-10.91-112.64-51.23-170.24-36.69-52.41-88.71-98.69-142.73-127a87.09,87.09,0,0,0-80.8,0c-54,28.28-106,74.56-142.73,127-40.31,57.6-58.5,118-51.23,170.23.38,1.47.76,2.92,1.16,4.37.29,1.09.59,2.08.89,3.09.17.6.3,1,.43,1.43.35,1.17.68,2.25,1,3.33.44,1.37.9,2.74,1.35,4.08q.92,2.75,1.91,5.41c.68,1.88,1.36,3.65,2.06,5.4s1.39,3.44,2.1,5.13l0,.09.17.38c1.32,3.15,2.82,6.47,4.6,10.15.05.09.09.18.13.27s.16.3.23.46c.73,1.52,1.49,3.05,2.27,4.56s1.63,3.11,2.44,4.65l.13.23c1.06,1.93,2.12,3.87,3.2,5.76.55.94,1.14,1.94,1.74,2.93l.77,1.3c1.17,1.94,2.39,3.87,3.63,5.81.82,1.31,1.65,2.56,2.48,3.8,1.44,2.18,3,4.41,4.72,6.86.7,1,1.39,2,2.09,2.9l.2.27-.09-.1a5.43,5.43,0,0,1,.42.53c.81,1.12,1.65,2.23,2.5,3.34l.72,1c2.58,3.35,5.39,6.83,8.32,10.29q1.46,1.73,3,3.42c1.32,1.52,2.61,3,3.91,4.39s2.74,2.94,4.14,4.43,2.69,2.77,4.06,4.17,2.87,2.87,4.29,4.22,2.91,2.8,4.37,4.15,2.83,2.61,4.26,3.89l.22.19c1.47,1.33,3,2.63,4.5,3.94s3,2.61,4.61,3.9l4.42,3.59.3.22q2.4,1.9,4.8,3.75c1.45,1.1,3,2.23,4.47,3.36A7,7,0,0,1,469.34,616.29Zm-8.43,10.4h0Zm298.2-33.88-.05,0ZM376.83,503.47h0Zm-.41-1h0Zm464.52-30.68h0Z"/><path class="cls-11" d="M787.48,505.57c-.42,1.26-.86,2.53-1.33,3.83-12.4,31.78-36.73,48.71-51.46,29.54l8.79-43.16,6-29.34C772.44,450.74,803.08,457.8,787.48,505.57Z"/><path class="cls-6" d="M749.42,547.82c-5.84,0-11.11-2.86-15.36-8.4l-.22-.28L748.74,466l.27-.19c12.54-8.57,26.67-10,35.13-3.7,5.52,4.14,13.38,15.32,4.09,43.74h0c-.41,1.26-.86,2.54-1.33,3.85-8.29,21.24-22,36.13-34.83,38A18.47,18.47,0,0,1,749.42,547.82Zm-13.88-9.08c4.48,5.67,10.1,8.19,16.3,7.31,12.31-1.75,25.49-16.25,33.57-36.94.45-1.27.9-2.54,1.31-3.79h0c6.65-20.36,5.4-35.26-3.54-42-7.86-5.9-21.09-4.46-33,3.56Z"/><g class="cls-5"><path class="cls-6" d="M787.48,505.57c-.42,1.26-.86,2.53-1.33,3.83-12.4,31.78-36.73,48.71-51.46,29.54l8.79-43.16,3.29-.25q13.4,41.91,38.93,7.45Z"/></g><path class="cls-6" d="M749.46,552.39c-7.26,0-13.92-3.54-19-10.18a5.36,5.36,0,0,1-1-4.34l14.76-72.5a5.36,5.36,0,0,1,2.24-3.36c14.33-9.79,30.71-11.15,40.74-3.37,6.72,5.21,16.19,19,4,52.59-9.05,23.2-23.78,38.83-38.49,40.93A23.9,23.9,0,0,1,749.46,552.39Zm-9-14.94c3.16,3.31,6.7,4.65,10.73,4.07,10.54-1.5,22.58-15.19,29.95-34.07,7.14-19.75,7-34.49-.56-40.32-5.88-4.56-16.49-3.45-26.32,2.59Z"/><path class="cls-11" d="M412.57,505.57c.41,1.26.86,2.53,1.32,3.83,12.41,31.78,36.73,48.71,51.47,29.54l-8.79-43.16-6-29.34C427.6,450.74,397,457.8,412.57,505.57Z"/><path class="cls-6" d="M450.63,548.14a19.06,19.06,0,0,1-2.7-.19c-13-1.85-26.75-16.82-35.07-38.14-.49-1.35-.94-2.63-1.35-3.89h0c-9.35-28.61-1.38-39.9,4.2-44.09,8.58-6.44,22.85-4.95,35.51,3.69l.37.26,15,73.43-.31.41C461.93,545.23,456.57,548.14,450.63,548.14Zm-37-42.91c.41,1.24.85,2.5,1.31,3.8,8,20.55,21.11,35,33.31,36.71,6.12.87,11.47-1.51,15.91-7.08l-14.58-71.55c-11.77-7.89-24.8-9.3-32.53-3.5-8.81,6.61-10,21.39-3.42,41.62Z"/><g class="cls-8"><path class="cls-9" d="M445.51,546.5C434.14,542.71,422.42,529,415,509.93c-.47-1.31-.91-2.58-1.33-3.83-15.6-47.78,15-54.83,38-39.13l.11.54c-20.78-7.86-41.74,3-28.28,44.26.41,1.26.86,2.53,1.32,3.83C430.09,529.15,437.56,540,445.51,546.5Z"/></g><path class="cls-6" d="M450.59,552.39a24,24,0,0,1-3.26-.23c-14.7-2.1-29.43-17.73-38.44-40.8-12.21-33.74-2.74-47.51,4-52.72,10-7.78,26.4-6.42,40.74,3.37a5.38,5.38,0,0,1,2.23,3.36l14.77,72.5a5.36,5.36,0,0,1-1,4.34C464.51,548.85,457.84,552.39,450.59,552.39Zm-21.81-88.06a15,15,0,0,0-9.32,2.8c-7.52,5.83-7.71,20.57-.52,40.45,7.33,18.75,19.36,32.44,29.91,33.94,4,.58,7.56-.76,10.72-4.07l-13.8-67.73C440,466.18,434,464.33,428.78,464.33Z"/><path class="cls-11" d="M746.22,496.87v24.81c0,42.68-20.43,83.15-55.6,107.31l-1.49,1a159.58,159.58,0,0,1-177.53,0c-.48-.34-1-.68-1.49-1-35.19-24.14-55.61-64.62-55.61-107.31V496.87s.09-1.59.27-4.45c1.32-22.65,7.32-124.25,8.29-126.84C495,279.62,814.25,300.69,746.22,496.87Z"/><path class="cls-6" d="M600.35,658.22A160.32,160.32,0,0,1,511,630.94l-1.35-.93c-35.27-24.2-56.25-64.66-56.25-108.33V496.87c0-.06.1-1.66.27-4.52C455.84,455,461,367.83,462,365.19c8.38-22.57,36.8-39.28,78-45.87,39.74-6.35,86-2,123.81,11.52s121.37,56.87,83.55,166.22v24.62c0,43.65-21,84.11-56.08,108.23l-.58.39-.9.61A160.33,160.33,0,0,1,600.35,658.22ZM577.64,318.67a236.68,236.68,0,0,0-37.31,2.86C500,328,472.2,344.18,464.1,366c-.77,2.85-4.91,69.94-8.22,126.51-.18,2.86-.27,4.45-.27,4.46v24.74c0,42.93,20.61,82.71,55.14,106.39l1.49,1a157.78,157.78,0,0,0,176.27,0l.93-.63.55-.37c34.51-23.71,55.11-63.48,55.11-106.39l.06-25.17C782.48,388.9,700.16,346.28,663,333,637,323.59,606.83,318.67,577.64,318.67Z"/><g class="cls-5"><path class="cls-6" d="M746.22,496.87v24.81c0,42.68-20.43,83.15-55.6,107.31l-1.49,1a159.58,159.58,0,0,1-177.53,0c-.48-.34-1-.68-1.49-1-1.11-.77-2.21-1.55-3.31-2.36a159.57,159.57,0,0,0,158.47-11l1.49-1c35.17-24.16,55.6-64.63,55.6-107.31l2.12-31.27c23.09-66.57-.55-106.5-40.29-135.39C738.27,367.35,773.59,417.93,746.22,496.87Z"/></g><g class="cls-5"><path class="cls-6" d="M746.22,496.87V507c-16-23.63-19.14-88.1-19.14-88.1-14,15.22-92.77,32.78-148,3.42a3.48,3.48,0,0,0-4.76,4.61c.68,1.36,1,1.82,1,1.82-7.27,4.5-41.51.12-60.09-10.69a8.56,8.56,0,0,0-12.68,6.15c-4.16,26.56-17.38,45-45.67,72.71-.7-1.48-1.38-3-2-4.45,1.32-22.65,7.32-124.25,8.29-126.84C495,279.62,814.25,300.69,746.22,496.87Z"/></g><g class="cls-8"><path class="cls-9" d="M660.89,645.05A159.64,159.64,0,0,1,511.6,630c-.48-.34-1-.68-1.49-1-35.19-24.14-55.61-64.62-55.61-107.31V496.87s7.46-128.38,8.56-131.29c6.71-18.06,26.09-31.4,51.92-39.38C495.56,334.3,481.3,346,475.73,361c-1.09,2.94-8.56,131.3-8.56,131.3V517.1c0,42.69,20.43,83.16,55.62,107.33a10.58,10.58,0,0,1,1.5,1C559.12,657,615.49,659.32,660.89,645.05Z"/></g><path class="cls-6" d="M600.36,662.49a164.52,164.52,0,0,1-91.74-28l-1.54-1c-36.29-24.9-57.95-66.68-57.95-111.75V496.87c0-.1,0-.2,0-.31,7.51-129.08,8.54-131.95,8.88-132.86h0c19.65-52.88,130.37-64.46,207.22-36.85,36.61,13.15,64.32,34,80.16,60.3,18.63,31,20.71,68.17,6.19,110.62v23.91c0,45.06-21.66,86.83-57.94,111.74l-1.53,1A164.67,164.67,0,0,1,600.36,662.49ZM459.87,497v24.65c0,41.53,19.92,80,53.29,102.89l1.43,1a153.54,153.54,0,0,0,171.55,0l1.43-1c33.36-22.91,53.28-61.37,53.28-102.89V496.87a5.55,5.55,0,0,1,.29-1.76c36.08-104-43.6-145.25-79.53-158.16-77.89-28-177-12.48-193.37,30.1C467.24,374,462.72,448.08,459.87,497Zm8.22-129.59Zm0-.1a1,1,0,0,0,0,.1A.42.42,0,0,1,468.13,367.34Zm-5.07-1.77h0Z"/><path class="cls-12" d="M744.53,313c40.28,51.46,35.27,141,1.35,188-26-14.32-27.68-82-27.68-82-61.43,16.72-123.6,6.51-180-42.05C537,395.88,553,413.58,553,413.58a75.44,75.44,0,0,1-19.58-3c-20.39-6.1-32.53-20.87-40-39.43-7.16,64.44-7.61,78.76-39,125.74C423.17,429.75,417.41,347,469.62,322.2c-72.79-25.06-45.94-75.78,16.71-30.73-30.74-44.16,8.05-61.18,16.11-12.53,45.3-82.75,244.33-53.7,271.31,40.28L744.61,313Z"/><path class="cls-6" d="M746.2,502.35l-.86-.47c-24.43-13.48-27.8-71.48-28.2-81.59-65.26,17.34-125.08,3.51-177.85-41.12.17,17.5,14.41,33.5,14.56,33.67l1.75,1.94L553,414.7a77,77,0,0,1-19.87-3.07c-17.64-5.28-30.43-17.12-39-36.14l-.39,3.53c-6.37,57.7-8.08,73.21-38.31,118.47l-1.1,1.65-.84-1.79c-31.55-67.61-36.8-148.69,13.29-175-29.41-10.68-41-25.05-41.93-35.13A12.16,12.16,0,0,1,431.22,275c8.63-4.95,26.37-4.07,51,12.32-10.34-16.92-10-29.16-6.31-34.77a8.65,8.65,0,0,1,9.37-3.9c6.28,1.35,14,9.21,17.65,27.11,24.92-41.4,85-50.55,133.7-45.14,58,6.44,123.2,36.25,138.14,88.3l.51,1.79-28.08-6c39.08,52.86,32.29,141.55-.47,186.87Zm-26.92-85,0,1.42c0,.66,1.95,65.74,26.24,80.61,32.29-45.64,38.38-134.32-1.9-185.79l-1.42-1.81,2.73.08,27.17,5.82c-15.64-50-79.13-78.62-135.71-84.9-49-5.45-109.64,3.95-133,46.65l-1.55,2.83-.53-3.19c-3.13-18.95-10.83-27.09-16.47-28.3a6.44,6.44,0,0,0-7,3c-3.69,5.55-3.44,18.58,9.42,37.06l3.72,5.35-5.29-3.8c-26.3-18.92-45.18-20.15-53.34-15.46A10.06,10.06,0,0,0,427.07,287c.88,9.22,12.64,23.69,42.92,34.11l2.59.89-2.48,1.17c-50.83,24.1-46.25,104.1-15.42,171.39,28.86-43.54,30.59-59.26,36.84-115.82l1.35-12.2,1.65,4.13c8.27,20.67,21.11,33.35,39.24,38.78a73,73,0,0,0,16.78,2.87c-4.13-5.19-14.41-19.81-13.42-35.63l.14-2.24L539,376c53,45.64,113.18,59.71,178.95,41.81Z"/><g class="cls-5"><path class="cls-6" d="M486,359.91a75.58,75.58,0,0,1,6.72,17.84c-6.5,58.87-8,73.78-38.25,119.12-3.55-7.6-6.77-15.39-9.6-23.28,24.86-38.56,27.76-60.34,33.51-112.28A4,4,0,0,1,486,359.91Z"/></g><g class="cls-8"><path class="cls-9" d="M474.49,283.83c-39.41-16.7-53.68,12.17-15.28,34.33C403.79,294,423.55,254.65,474.49,283.83Z"/></g><g class="cls-8"><path class="cls-9" d="M468.37,322.83l.11.05a7.21,7.21,0,0,1,1.84,12.17c-35.67,29.57-34.31,96.1-10.77,154.11-1.58,2.47-3.26,5-5.05,7.71C423.42,430.29,417.5,348.3,468.37,322.83Z"/></g><g class="cls-8"><path class="cls-9" d="M483.87,290.75l-.12-.06c-20.8-32-1.87-50.47,10.76-35.7-7,1-11.12,11.83-3.37,28.9C493.2,288.42,488.24,293.14,483.87,290.75Z"/></g><g class="cls-8"><path class="cls-9" d="M734.24,270.89c-34.3-15.83-80.23-26.41-121.92-26.6-6.42,12.33-28.08,11.72-37.19,3-23.45,4.21-43.3,13.08-55.69,27.89-3.54,4.24-10.47,3.95-13.26-.83a4.88,4.88,0,0,1-.43-.82C544.59,224,675.62,219.87,734.24,270.89Z"/></g><path class="cls-6" d="M745.87,506.27a5.38,5.38,0,0,1-2.59-.67c-23.68-13.06-29-61.31-30.14-79.91-61.13,14.83-117.49,2.67-167.82-36.17C549,400.91,556.9,409.87,557,410a5.37,5.37,0,0,1-4,9h-.16c-24.66-.76-43.42-10.71-56-29.65C491.2,439.94,488,456.42,459,499.86a5.37,5.37,0,0,1-9.33-.72c-30.78-66-36.72-144.63,7.67-175.95-25.39-11-35.7-25.19-36.68-35.54a16.4,16.4,0,0,1,8.48-16.35c8.12-4.67,23.06-5,43.1,5.18-4.42-12-3.26-21.07.22-26.3a12.87,12.87,0,0,1,13.8-5.7c7.89,1.7,14.44,9.38,18.48,21.26,28.4-36.46,85.62-44.56,132.45-39.36,59.4,6.6,126.28,37.41,141.76,91.35a5.38,5.38,0,0,1-6.29,6.74l-16-3.43c14.54,23.84,22.2,54.42,21.76,87.65-.48,36.5-10.75,71.25-28.17,95.36A5.36,5.36,0,0,1,745.87,506.27ZM718.2,413.48a5.36,5.36,0,0,1,5.37,5.23c.43,16.68,5.09,60,21,74.63C773.8,448,778.43,365,740.31,316.26a5.37,5.37,0,0,1,5.35-8.56L765.48,312c-18.61-43.78-77.07-69.07-129.52-74.9-59.83-6.64-110.39,10.81-128.81,44.47a5.37,5.37,0,0,1-10-1.7c-3-18.05-9.92-24.14-13.17-24.84a2.24,2.24,0,0,0-2.61,1.15c-2.21,3.33-3.1,14.35,9.37,32.27a5.37,5.37,0,0,1-7.54,7.43c-23.08-16.6-41.11-19.6-48.75-15.22a5.78,5.78,0,0,0-3.13,6c.81,8.59,13.52,21.35,40.06,30.49a5.37,5.37,0,0,1,.56,9.93c-28.09,13.31-35,43.67-35.83,66.79-1,27.4,6,60.41,19.3,91.85,24.2-37.73,25.91-53.26,31.89-107.39l.86-7.78a5.37,5.37,0,0,1,10.32-1.4c8.65,21.63,22.84,34.11,43.22,37.89-4.62-7.62-9.56-18.74-8.81-30.56a5.37,5.37,0,0,1,8.86-3.73c51.84,44.66,110.73,58.44,175,40.94A5.26,5.26,0,0,1,718.2,413.48Z"/><path class="cls-6" d="M718.2,424.22a5.37,5.37,0,0,1-1.39-10.56c6.67-1.79,13.41-4,20-6.4a5.37,5.37,0,0,1,3.73,10.07c-6.94,2.57-14,4.82-21,6.7A5.24,5.24,0,0,1,718.2,424.22Z"/><g class="cls-5"><path class="cls-6" d="M745.88,500.9c-26-14.32-27.68-82-27.68-82-61.43,16.72-123.6,6.51-180-42.05C537,395.88,553,413.58,553,413.58a75.44,75.44,0,0,1-19.58-3c-29.39-48.44-16.88-59.86,25.38-45C676.1,403.43,761.49,409.36,744.53,313,784.81,364.41,779.8,454,745.88,500.9Z"/></g><g class="cls-13"><path class="cls-14" d="M716.1,357.7c0,8.14-15.93,14.73-35.57,14.73S645,365.84,645,357.7s15.93-8.34,35.58-8.34S716.1,349.57,716.1,357.7Z"/></g><path class="cls-6" d="M619.18,596.17s-7.7,4.92-27.78,4.92c-4.35.3-16.81-.38-32.56-14.76,0,0,7.27,21,32.09,21C590.93,607.3,605.06,608.58,619.18,596.17Z"/><path class="cls-6" d="M505.21,503c1.68-5.47,5.72-10,10.69-13.13a31.76,31.76,0,0,1,16.93-4.62,32.4,32.4,0,0,1,16.79,4.82A25.62,25.62,0,0,1,560.47,503a124,124,0,0,0-14.55-4.29,66.68,66.68,0,0,0-13.2-1.52,60,60,0,0,0-13.15,1.29A89.37,89.37,0,0,0,505.21,503Z"/><path class="cls-6" d="M697.66,503a89.06,89.06,0,0,0-14.36-4.52,60,60,0,0,0-13.15-1.29,66.68,66.68,0,0,0-13.2,1.52A123.35,123.35,0,0,0,642.41,503a25.56,25.56,0,0,1,10.84-12.93,32.44,32.44,0,0,1,16.8-4.82A31.75,31.75,0,0,1,687,489.85C691.94,493,696,497.51,697.66,503Z"/><ellipse class="cls-6" cx="538.24" cy="535.69" rx="18.46" ry="24.35"/><ellipse class="cls-9" cx="542.95" cy="530.05" rx="5.58" ry="8.18"/><path class="cls-6" d="M543,539.34c-3.75,0-6.69-4.08-6.69-9.29s2.94-9.3,6.69-9.3,6.69,4.08,6.69,9.3S546.7,539.34,543,539.34ZM543,523c-2.42,0-4.46,3.24-4.46,7.07s2,7.06,4.46,7.06,4.46-3.24,4.46-7.06S545.37,523,543,523Z"/><ellipse class="cls-6" cx="665.88" cy="535.69" rx="18.46" ry="24.35"/><ellipse class="cls-9" cx="661.16" cy="530.05" rx="5.58" ry="8.18"/><path class="cls-6" d="M661.16,539.34c-3.75,0-6.69-4.08-6.69-9.29s2.94-9.3,6.69-9.3,6.69,4.08,6.69,9.3S664.91,539.34,661.16,539.34Zm0-16.36c-2.42,0-4.46,3.24-4.46,7.07s2,7.06,4.46,7.06,4.46-3.24,4.46-7.06S663.58,523,661.16,523Z"/><g class="cls-15"><polygon class="cls-16" points="819.62 982.22 390.78 982.23 243.87 432.12 965.1 438.41 819.62 982.22"/></g><path class="cls-17" d="M869.93,969a60.73,60.73,0,0,1-59.56,48.71H400A60.8,60.8,0,0,1,340.46,969Z"/><path class="cls-6" d="M810.37,1018.78H400a62.1,62.1,0,0,1-60.65-49.59l-.27-1.34H871.3l-.27,1.34a61.85,61.85,0,0,1-60.66,49.59Zm-468.53-48.7A59.86,59.86,0,0,0,400,1016.55H810.37a59.63,59.63,0,0,0,58.19-46.47Z"/><path class="cls-6" d="M810.38,1024.36H400a67.68,67.68,0,0,1-66.12-54.06,6.69,6.69,0,0,1,6.56-8H869.94a6.69,6.69,0,0,1,6.56,8A67.68,67.68,0,0,1,810.38,1024.36Zm-461.06-48.7A54.26,54.26,0,0,0,400,1011H810.38a54.28,54.28,0,0,0,50.71-35.31Z"/><g class="cls-5"><path class="cls-6" d="M869.93,969a60.73,60.73,0,0,1-59.56,48.71H556.55c41.72-2,78.7-13.49,110.52-35.44a102.82,102.82,0,0,1,7-13.27Z"/></g><path class="cls-17" d="M869.78,711.65,848.36,955.9a28.85,28.85,0,0,1-28.75,26.33H390.78A28.87,28.87,0,0,1,362,955.9l-21.4-244.25A41,41,0,0,1,381.5,667H828.89a41,41,0,0,1,40.89,44.64Z"/><path class="cls-6" d="M819.61,983.35H390.78A29.83,29.83,0,0,1,360.93,956l-21.4-244.24a42.14,42.14,0,0,1,42-45.85H828.89a42.13,42.13,0,0,1,42,45.85h0L849.47,956A29.8,29.8,0,0,1,819.61,983.35ZM381.51,668.13a39.93,39.93,0,0,0-39.76,43.42l21.4,244.25a27.6,27.6,0,0,0,27.63,25.31H819.61a27.59,27.59,0,0,0,27.64-25.31l21.42-244.25a39.91,39.91,0,0,0-39.78-43.42Z"/><g class="cls-18"><path class="cls-9" d="M863,685.14a40.63,40.63,0,0,0-17.28-3.81H398.29A41,41,0,0,0,357.42,726l21.4,244.25a28.6,28.6,0,0,0,3.06,10.6A28.88,28.88,0,0,1,362,955.9l-21.4-244.25A41,41,0,0,1,381.5,667H828.89A41,41,0,0,1,863,685.14Z"/></g><path class="cls-6" d="M819.62,988.92H390.79a35.35,35.35,0,0,1-35.41-32.44L334,712.23a47.73,47.73,0,0,1,47.55-51.9H828.9a47.73,47.73,0,0,1,47.55,51.9L855,956.47A35.35,35.35,0,0,1,819.62,988.92ZM381.51,673.71a34.35,34.35,0,0,0-34.21,37.35l21.41,244.25a22,22,0,0,0,22.08,20.22H819.62a22,22,0,0,0,22.08-20.22l21.41-244.25a34.35,34.35,0,0,0-34.21-37.35Z"/><g class="cls-5"><path class="cls-6" d="M869.78,711.65,848.36,955.9a28.85,28.85,0,0,1-28.75,26.33H432.79c238-18.73,385.3-114.9,417.44-309.21l.08,0A41,41,0,0,1,869.78,711.65Z"/></g><g class="cls-5"><rect class="cls-9" x="403.18" y="749.18" width="52.32" height="124.37" rx="12.67" transform="translate(-73.73 43.54) rotate(-5.35)"/></g><path class="cls-19" d="M642.31,878.62l-4.91,3.94L636.82,895a6.39,6.39,0,0,1-6.69,5.88h0a6.18,6.18,0,0,1-6.19-6.21l.17-5.27a1.89,1.89,0,0,0-1.9-1.91h0a1.92,1.92,0,0,0-2,1.81l-.15,5.27a6.22,6.22,0,0,1-6.54,5.87h0a6.3,6.3,0,0,1-6.3-6.2l.05-4.4a2.83,2.83,0,0,0-2.82-2.8h0a2.74,2.74,0,0,0-2.88,2.65l0,4.4a6.05,6.05,0,0,1-6.4,5.87h0a6.46,6.46,0,0,1-6.41-6.2l-.05-5.25a2,2,0,0,0-2-1.91h0a1.82,1.82,0,0,0-1.93,1.81l.08,5.25a5.9,5.9,0,0,1-6.27,5.87h0a6.61,6.61,0,0,1-6.51-6.19l-.35-12.41-4.78-4.16a61.68,61.68,0,0,1-21.09-43c-1.89-34.27,24.75-63.69,59.67-63.14,35.12.56,61.61,31.1,59,65.62a60,60,0,0,1-22.21,42.33Z"/><path class="cls-6" d="M604.52,770.67h1c35.12.55,61.61,31.1,59,65.62a60,60,0,0,1-22.21,42.33l-4.9,3.94L636.82,895a6.38,6.38,0,0,1-6.51,5.88h-.21a6.18,6.18,0,0,1-6.19-6.22l.17-5.26a1.89,1.89,0,0,0-1.9-1.91h-.06a1.92,1.92,0,0,0-2,1.82l-.15,5.27a6.2,6.2,0,0,1-6.36,5.87h-.18a6.3,6.3,0,0,1-6.3-6.2l.05-4.4a2.84,2.84,0,0,0-2.82-2.8h-.08a2.73,2.73,0,0,0-2.8,2.65l0,4.4a6,6,0,0,1-6.22,5.87h-.18a6.46,6.46,0,0,1-6.41-6.2l-.05-5.25a2,2,0,0,0-2-1.91h-.05a1.82,1.82,0,0,0-1.87,1.82l.07,5.25a5.89,5.89,0,0,1-6.09,5.87h-.21a6.61,6.61,0,0,1-6.51-6.2l-.35-12.4-4.78-4.16a61.67,61.67,0,0,1-21.09-43c-1.87-34,24.26-63.15,58.71-63.15m0-10.82h0a68.52,68.52,0,0,0-50.23,21.58,71.61,71.61,0,0,0-19.28,53A72.62,72.62,0,0,0,559.81,885l1.19,1,.22,7.66a17.35,17.35,0,0,0,17,16.7h.49a17.18,17.18,0,0,0,7.81-1.85,17.53,17.53,0,0,0,8.27,2.27h.46a17.18,17.18,0,0,0,8.77-2.4,17.22,17.22,0,0,0,9.13,2.87h.47a17.47,17.47,0,0,0,7.92-1.87,17.34,17.34,0,0,0,8.25,2.3h.48a17.15,17.15,0,0,0,17.31-16.2l.36-7.57,1.1-.89a70.88,70.88,0,0,0,26.23-49.95,72.7,72.7,0,0,0-18.74-54.26,69.85,69.85,0,0,0-50.92-23Z"/><path class="cls-20" d="M581.84,819.67a15.85,15.85,0,0,0-16,16.84A17.43,17.43,0,0,0,583,853a15.85,15.85,0,0,0,16-16.26,17.42,17.42,0,0,0-17.15-17.05Z"/><path class="cls-20" d="M628.21,819.2a17,17,0,0,0-17,16.9,16.43,16.43,0,0,0,16.33,16.53,17,17,0,0,0,17-16.32,16.4,16.4,0,0,0-16.35-17.11Z"/></g></g></svg>