<svg xmlns="http://www.w3.org/2000/svg" xmlns:xlink="http://www.w3.org/1999/xlink" viewBox="0 0 1200 1200"><defs><style>.cls-1{isolation:isolate;}.cls-2{fill:url(#New_Gradient_Swatch);}.cls-3{fill:url(#radial-gradient);}.cls-4{fill:url(#linear-gradient);}.cls-10,.cls-12,.cls-13,.cls-14,.cls-15,.cls-16,.cls-17,.cls-18,.cls-19,.cls-20,.cls-5,.cls-69{fill:#fff;}.cls-5{mix-blend-mode:soft-light;}.cls-6{fill:url(#linear-gradient-2);}.cls-7{fill:url(#linear-gradient-3);}.cls-8{fill:url(#linear-gradient-4);}.cls-9{fill:url(#linear-gradient-5);}.cls-10{opacity:0.65;}.cls-11{fill:url(#linear-gradient-6);}.cls-13{opacity:0.44;}.cls-14{opacity:0.43;}.cls-15{opacity:0.46;}.cls-16{opacity:0.38;}.cls-17{opacity:0.42;}.cls-18{opacity:0.58;}.cls-19{opacity:0.28;}.cls-20{opacity:0.47;}.cls-21{fill:url(#linear-gradient-7);}.cls-22{fill:url(#linear-gradient-8);}.cls-23{fill:url(#linear-gradient-9);}.cls-24{fill:url(#linear-gradient-10);}.cls-25{fill:url(#linear-gradient-11);}.cls-26{fill:url(#linear-gradient-12);}.cls-27{fill:url(#linear-gradient-13);}.cls-28{fill:url(#linear-gradient-14);}.cls-29{fill:url(#linear-gradient-15);}.cls-30{fill:url(#linear-gradient-16);}.cls-31{fill:url(#linear-gradient-17);}.cls-32{fill:url(#linear-gradient-18);}.cls-33{fill:url(#linear-gradient-19);}.cls-34{fill:url(#linear-gradient-20);}.cls-35{fill:url(#linear-gradient-21);}.cls-36{fill:url(#linear-gradient-22);}.cls-37{fill:url(#linear-gradient-23);}.cls-38{fill:url(#linear-gradient-24);}.cls-39{fill:url(#linear-gradient-25);}.cls-40{fill:url(#linear-gradient-26);}.cls-41{fill:url(#linear-gradient-27);}.cls-42{fill:url(#linear-gradient-28);}.cls-43{fill:url(#linear-gradient-29);}.cls-44{fill:url(#linear-gradient-30);}.cls-45{fill:url(#linear-gradient-31);}.cls-46{fill:url(#linear-gradient-32);}.cls-47{fill:url(#linear-gradient-33);}.cls-48{fill:url(#linear-gradient-34);}.cls-49{fill:url(#linear-gradient-35);}.cls-50{fill:url(#linear-gradient-36);}.cls-51{fill:url(#linear-gradient-37);}.cls-52{fill:url(#linear-gradient-38);}.cls-53{fill:url(#linear-gradient-39);}.cls-54{fill:url(#linear-gradient-40);}.cls-55{fill:url(#linear-gradient-41);}.cls-56{fill:url(#linear-gradient-42);}.cls-57{fill:url(#linear-gradient-43);}.cls-58{fill:url(#linear-gradient-44);}.cls-59{fill:url(#linear-gradient-45);}.cls-60{fill:url(#linear-gradient-46);}.cls-61{fill:url(#linear-gradient-47);}.cls-62{fill:url(#linear-gradient-48);}.cls-63{fill:url(#linear-gradient-49);}.cls-64{fill:url(#linear-gradient-50);}.cls-65{fill:url(#linear-gradient-51);}.cls-66{fill:url(#linear-gradient-52);}.cls-67{opacity:0.64;}.cls-68{fill:url(#linear-gradient-53);}.cls-69{opacity:0.56;}.cls-70{fill:url(#linear-gradient-54);}</style><linearGradient id="New_Gradient_Swatch" y1="600" x2="1200" y2="600" gradientUnits="userSpaceOnUse"><stop offset="0" stop-color="#b37cff"/><stop offset="1" stop-color="#f895e7"/></linearGradient><radialGradient id="radial-gradient" cx="625.78" cy="1080.57" r="393.89" gradientTransform="translate(0 631.64) scale(1 0.39)" gradientUnits="userSpaceOnUse"><stop offset="0"/><stop offset="0.14" stop-opacity="0.52"/><stop offset="1" stop-opacity="0.1"/></radialGradient><linearGradient id="linear-gradient" x1="6092.12" y1="289.64" x2="6469.1" y2="289.64" gradientTransform="matrix(0.92, 0.38, -0.38, 0.92, -5497.35, -2296.16)" gradientUnits="userSpaceOnUse"><stop offset="0" stop-color="#a737d5"/><stop offset="1" stop-color="#ef497a"/></linearGradient><linearGradient id="linear-gradient-2" x1="-102.16" y1="2053.93" x2="259.39" y2="2053.93" gradientTransform="translate(-1418.47 -877.04) rotate(-50.87)" gradientUnits="userSpaceOnUse"><stop offset="0" stop-color="#ce1567"/><stop offset="1" stop-color="#7a1dbc"/></linearGradient><linearGradient id="linear-gradient-3" x1="634.87" y1="1127.86" x2="621.86" y2="870.36" gradientUnits="userSpaceOnUse"><stop offset="0" stop-color="#2b3582"/><stop offset="1" stop-color="#150e42"/></linearGradient><linearGradient id="linear-gradient-4" x1="105.21" y1="595.16" x2="1105.56" y2="595.16" xlink:href="#linear-gradient-3"/><linearGradient id="linear-gradient-5" x1="772.27" y1="378.68" x2="-71.87" y2="1345.67" gradientUnits="userSpaceOnUse"><stop offset="0" stop-color="#fdf53f"/><stop offset="1" stop-color="#d93c65"/></linearGradient><linearGradient id="linear-gradient-6" x1="635.68" y1="1030.7" x2="516.03" y2="1293.41" xlink:href="#linear-gradient-3"/><linearGradient id="linear-gradient-7" x1="823.68" y1="474.71" x2="429.12" y2="1085.76" gradientUnits="userSpaceOnUse"><stop offset="0" stop-color="#cb236d"/><stop offset="1" stop-color="#4c246d"/></linearGradient><linearGradient id="linear-gradient-8" x1="999.21" y1="821.86" x2="1087.68" y2="606.86" gradientTransform="translate(-54.68 36.62) rotate(-1.08)" xlink:href="#linear-gradient-3"/><linearGradient id="linear-gradient-9" x1="880.8" y1="623.72" x2="956.97" y2="795.69" gradientUnits="userSpaceOnUse"><stop offset="0" stop-color="#f9b776"/><stop offset="1" stop-color="#f47960"/></linearGradient><linearGradient id="linear-gradient-10" x1="882.15" y1="623.12" x2="958.32" y2="795.09" xlink:href="#linear-gradient-9"/><linearGradient id="linear-gradient-11" x1="1072.11" y1="970.95" x2="1077.35" y2="1100.15" gradientUnits="userSpaceOnUse"><stop offset="0" stop-color="#53d8ff"/><stop offset="1" stop-color="#3840f7"/></linearGradient><linearGradient id="linear-gradient-12" x1="967.02" y1="1173.59" x2="1000.39" y2="783.55" xlink:href="#linear-gradient-9"/><linearGradient id="linear-gradient-13" x1="982.7" y1="960.68" x2="974.84" y2="1102.98" xlink:href="#linear-gradient-11"/><linearGradient id="linear-gradient-14" x1="1034.15" y1="1179.39" x2="1067.53" y2="789.25" xlink:href="#linear-gradient-9"/><linearGradient id="linear-gradient-15" x1="1021.69" y1="711.83" x2="920.91" y2="852.65" xlink:href="#linear-gradient-11"/><linearGradient id="linear-gradient-16" x1="1077.4" y1="781.01" x2="897.88" y2="1023.09" xlink:href="#linear-gradient-7"/><linearGradient id="linear-gradient-17" x1="963.36" y1="789.13" x2="969.63" y2="743.27" xlink:href="#linear-gradient-9"/><linearGradient id="linear-gradient-18" x1="930.22" y1="681.9" x2="924.33" y2="826.97" xlink:href="#linear-gradient-9"/><linearGradient id="linear-gradient-19" x1="864.36" y1="680.65" x2="858.87" y2="815.8" xlink:href="#linear-gradient-9"/><linearGradient id="linear-gradient-20" x1="-7520.82" y1="2329.14" x2="-7478.84" y2="2377.4" gradientTransform="matrix(0.97, 0.26, -0.26, 0.97, 8823.74, 402.87)" xlink:href="#linear-gradient-9"/><linearGradient id="linear-gradient-21" x1="954.96" y1="806.15" x2="1044.21" y2="589.23" gradientTransform="translate(-54.68 36.62) rotate(-1.08)" xlink:href="#linear-gradient-3"/><linearGradient id="linear-gradient-22" x1="-7510.33" y1="2320.01" x2="-7468.35" y2="2368.28" gradientTransform="matrix(0.97, 0.26, -0.26, 0.97, 8823.74, 402.87)" xlink:href="#linear-gradient-9"/><linearGradient id="linear-gradient-23" x1="13375.58" y1="942.3" x2="13071.35" y2="1139.51" gradientTransform="matrix(-1, 0, 0, 1, 13681.25, 0)" xlink:href="#linear-gradient-11"/><linearGradient id="linear-gradient-24" x1="401.83" y1="778.16" x2="362.55" y2="953.86" gradientTransform="matrix(1, 0, 0, 1, 0, 0)" xlink:href="#linear-gradient"/><linearGradient id="linear-gradient-25" x1="341.16" y1="967.87" x2="331.45" y2="1129.01" xlink:href="#linear-gradient-11"/><linearGradient id="linear-gradient-26" x1="135.1" y1="992.92" x2="303.6" y2="1199.31" xlink:href="#linear-gradient-11"/><linearGradient id="linear-gradient-27" x1="166.03" y1="976.9" x2="328.74" y2="1176.19" xlink:href="#linear-gradient-11"/><linearGradient id="linear-gradient-28" x1="382.35" y1="348.19" x2="339.68" y2="436.13" gradientTransform="translate(98.91 207.78) rotate(9.25)" xlink:href="#linear-gradient-3"/><linearGradient id="linear-gradient-29" x1="359.2" y1="761.85" x2="359.2" y2="951.27" xlink:href="#linear-gradient-7"/><linearGradient id="linear-gradient-30" x1="278.8" y1="785.83" x2="368.77" y2="1003.16" xlink:href="#linear-gradient-9"/><linearGradient id="linear-gradient-31" x1="-2786.42" y1="785.37" x2="-2696.45" y2="1002.69" gradientTransform="matrix(-1, 0, 0, 1, -2348.13, 0)" xlink:href="#linear-gradient-9"/><linearGradient id="linear-gradient-32" x1="358.71" y1="814.09" x2="354.05" y2="1002.82" xlink:href="#linear-gradient-3"/><linearGradient id="linear-gradient-33" x1="412.14" y1="914.9" x2="461.31" y2="914.9" gradientTransform="translate(7.61 9.81) rotate(0.44)" xlink:href="#linear-gradient-3"/><linearGradient id="linear-gradient-34" x1="445.16" y1="839.24" x2="393.27" y2="979.81" xlink:href="#linear-gradient-9"/><linearGradient id="linear-gradient-35" x1="-3312.14" y1="894.28" x2="-3262.95" y2="894.28" gradientTransform="matrix(-1, -0.02, -0.02, 1, -3000.2, -32.7)" xlink:href="#linear-gradient-3"/><linearGradient id="linear-gradient-36" x1="341.19" y1="796.88" x2="289.26" y2="937.52" xlink:href="#linear-gradient-9"/><linearGradient id="linear-gradient-37" x1="467.16" y1="836.53" x2="332.25" y2="937.87" xlink:href="#linear-gradient-11"/><linearGradient id="linear-gradient-38" x1="345.16" y1="927.43" x2="309.8" y2="837.26" xlink:href="#linear-gradient-11"/><linearGradient id="linear-gradient-39" x1="357.78" y1="803.78" x2="356.58" y2="699.62" xlink:href="#linear-gradient-9"/><linearGradient id="linear-gradient-40" x1="338.6" y1="490.11" x2="342.33" y2="399.48" gradientTransform="translate(98.91 207.78) rotate(9.25)" xlink:href="#linear-gradient-9"/><linearGradient id="linear-gradient-41" x1="382.66" y1="335.82" x2="334.66" y2="434.76" gradientTransform="translate(98.91 207.78) rotate(9.25)" xlink:href="#linear-gradient-3"/><linearGradient id="linear-gradient-42" x1="210.59" y1="891.29" x2="216.44" y2="749.26" gradientTransform="translate(15.04 -97.6) rotate(-7.64)" xlink:href="#linear-gradient-9"/><linearGradient id="linear-gradient-43" x1="358.19" y1="809.99" x2="355.16" y2="954.68" xlink:href="#linear-gradient-11"/><linearGradient id="linear-gradient-44" x1="340.69" y1="232.34" x2="156.28" y2="652.23" xlink:href="#linear-gradient-11"/><linearGradient id="linear-gradient-45" x1="369.91" y1="245.17" x2="185.5" y2="665.06" xlink:href="#linear-gradient-11"/><linearGradient id="linear-gradient-46" x1="397.94" y1="257.48" x2="213.53" y2="677.37" xlink:href="#linear-gradient-11"/><linearGradient id="linear-gradient-47" x1="431.59" y1="272.26" x2="247.18" y2="692.15" xlink:href="#linear-gradient-11"/><linearGradient id="linear-gradient-48" x1="458.63" y1="284.14" x2="274.22" y2="704.03" xlink:href="#linear-gradient-11"/><linearGradient id="linear-gradient-49" x1="481.17" y1="294.04" x2="296.76" y2="713.92" xlink:href="#linear-gradient-11"/><linearGradient id="linear-gradient-50" x1="603.91" y1="236.19" x2="482.31" y2="621.75" xlink:href="#linear-gradient-11"/><linearGradient id="linear-gradient-51" x1="637.39" y1="246.75" x2="515.79" y2="632.31" xlink:href="#linear-gradient-11"/><linearGradient id="linear-gradient-52" x1="671.18" y1="257.4" x2="549.58" y2="642.96" xlink:href="#linear-gradient-11"/><linearGradient id="linear-gradient-53" x1="565.77" y1="236.32" x2="505.72" y2="529.3" gradientTransform="translate(380.95 119.59) rotate(-9.76)" xlink:href="#linear-gradient"/><linearGradient id="linear-gradient-54" x1="435.31" y1="126.49" x2="388" y2="355.78" gradientTransform="translate(380.95 119.59) rotate(-9.76)" xlink:href="#linear-gradient"/></defs><g class="cls-1"><g id="Layer_2" data-name="Layer 2"><g id="Layer_1-2" data-name="Layer 1"><rect class="cls-2" width="1200" height="1200"/><ellipse class="cls-3" cx="625.78" cy="1058.21" rx="555.84" ry="14.4"/><path class="cls-4" d="M105.25,100.24c-.93-4,4.66-6.62,8.08-3.84C148.1,124.59,231.62,209,210.81,356.52c-26.12,185.08,18.53,252.62,74.11,293.82,0,0-76.33-19.38-124.35-87.91C42.67,394.18,121.85,170.9,105.25,100.24Z"/><path class="cls-5" d="M131.71,158.05c4.35,20.6,8.22,41.27,11.22,62s5.51,41.56,7.15,62.41,2.63,41.73,2.69,62.61-.69,41.75-1.65,62.7-1.78,42-.25,63.27,6,42.58,14.82,62.62c2.22,5,4.54,10,7.19,14.79s5.33,9.62,8.22,14.33a225.67,225.67,0,0,0,19.72,27.13,249.06,249.06,0,0,0,51.92,45.44,5.2,5.2,0,0,0,6.57-.75,3.68,3.68,0,0,0-.75-5.6h0c-4.65-3.26-9.24-6.57-13.65-10-2.24-1.7-4.38-3.49-6.57-5.24S234,610.17,232,608.3a225.81,225.81,0,0,1-56.66-77.73,182.72,182.72,0,0,1-9.82-29.51,202.23,202.23,0,0,1-4.75-30.57c-1.67-20.61-.91-41.5-.27-62.44s1.07-42,.52-63q-.37-15.78-1.39-31.54c-.3-5.25-.73-10.49-1.14-15.74s-1-10.48-1.53-15.72q-3.37-31.4-9-62.56c-3.87-20.74-8.38-41.38-13.8-61.84a1.27,1.27,0,0,0-1.5-.82A1.11,1.11,0,0,0,131.71,158.05Z"/><path class="cls-6" d="M195.31,557.26A8.76,8.76,0,0,1,181,554.82c-14.14-31.24-46.16-123.16,6.72-229.07,44.65-89.44,60.36-142.17,65.83-166.61a5.49,5.49,0,0,1,10.38-1C287.49,211.58,349.76,393.39,195.31,557.26Z"/><path class="cls-5" d="M187.56,554a2.32,2.32,0,0,1-.46,0,2.42,2.42,0,0,1-2.39-2.46c0-1.52,3-153.34,59.44-280.5a2.43,2.43,0,0,1,4.44,2c-56.06,126.23-59,277.09-59,278.6A2.43,2.43,0,0,1,187.56,554Z"/><polygon class="cls-7" points="526.18 835.53 504.58 1029.25 755.19 1029.25 722.55 835.53 526.18 835.53"/><path class="cls-8" d="M105.21,358.23V801.91a67.3,67.3,0,0,0,65.57,67.29c162,4.18,728.84,14.31,883.1,12a49.51,49.51,0,0,0,48.76-48.11c3-103.07,7.81-350.93-10.07-466A51,51,0,0,0,1043.84,324c-135.78-4.34-736.61-18.13-890.8-14.67A48.92,48.92,0,0,0,105.21,358.23Z"/><path class="cls-9" d="M133.05,356.07V777.6a39,39,0,0,0,38.41,39l860.23,10.63a38,38,0,0,0,38.52-37.81l1.44-417.76a27.75,27.75,0,0,0-27.08-27.85L163.85,326A30.06,30.06,0,0,0,133.05,356.07Z"/><path class="cls-10" d="M1076.69,844.62h0L133,828.54a1.32,1.32,0,0,1,0-2.64L1076.71,842a1.32,1.32,0,0,1,0,2.64Z"/><path class="cls-11" d="M809.17,1068.89H442.39c-10,0-17.45-7.1-15.52-14.72l4.71-18.61c1.41-5.6,7.57-9.71,14.88-9.93l353.59-11c7.64-.24,14.41,3.82,16.07,9.64l8.49,29.64C826.81,1061.58,819.29,1068.89,809.17,1068.89Z"/><path class="cls-12" d="M639.83,1030.79a1.32,1.32,0,0,1,0-2.64l15.16-.22h0a1.32,1.32,0,0,1,0,2.64l-15.16.22Z"/><path class="cls-12" d="M440.45,1058.75a.75.75,0,0,1-.21,0,1.32,1.32,0,0,1-1.1-1.51l2.16-13.53a15.24,15.24,0,0,1,14.84-12.85l160.71-2.35a1.32,1.32,0,1,1,0,2.64l-160.71,2.35a12.6,12.6,0,0,0-12.27,10.62l-2.16,13.54A1.31,1.31,0,0,1,440.45,1058.75Z"/><path class="cls-13" d="M884.28,486H788.66a10.87,10.87,0,1,1,0-21.73h95.62a10.87,10.87,0,1,1,0,21.73Z"/><path class="cls-14" d="M919.47,468.91h103.2c6.48,0,11.73,19.3,11.73,43.11V765.91c0,23.81-5.25,43.11-11.73,43.11H919.47c-6.48,0-11.73-19.3-11.73-43.11V512C907.74,488.21,913,468.91,919.47,468.91Z"/><rect class="cls-15" x="777.79" y="498.09" width="117.35" height="85.73" rx="10.87"/><path class="cls-16" d="M788.66,603h95.62c6,0,10.87,11.73,10.87,26.19V783.43c0,14.46-4.87,26.19-10.87,26.19H788.66c-6,0-10.87-11.73-10.87-26.19V629.19C777.79,614.73,782.66,603,788.66,603Z"/><path class="cls-17" d="M1033.21,450.83H176.64a18,18,0,0,1-17.95-18V361.43a17.94,17.94,0,0,1,18.4-17.94l856.57,21.66a17.94,17.94,0,0,1,17.5,17.94v49.78A18,18,0,0,1,1033.21,450.83Z"/><rect class="cls-18" x="444.87" y="472.06" width="314.94" height="272.5" rx="36.52"/><path class="cls-19" d="M759,814.13l-593.44-5a13.11,13.11,0,0,1-13-13.1V775.09A18.13,18.13,0,0,1,170.69,757H758.2a7,7,0,0,1,7,7v44A6.15,6.15,0,0,1,759,814.13Z"/><rect class="cls-20" x="152.56" y="464.28" width="274" height="274" rx="34.41"/><path class="cls-21" d="M597.21,492.63l280.67-2.52a9.87,9.87,0,0,1,10,9.92L886.6,715.41a9.84,9.84,0,0,1-10.14,9.8c-50.75-1.51-276.05-8.19-286-7.77s-4.49-172.6-3-215.29A9.86,9.86,0,0,1,597.21,492.63Z"/><path class="cls-12" d="M876.76,717.09h-.06c-40.35-1.2-243.52-7.23-280.73-7.76h-.5l-.09-.5c-3.52-19.85-3.45-100.86.18-206.4a1.74,1.74,0,0,1,1.72-1.68L878,498.24a1.72,1.72,0,0,1,1.25.51,1.68,1.68,0,0,1,.51,1.24l-1.23,215.37A1.73,1.73,0,0,1,876.76,717.09Zm-280.27-9c38.52.57,240.07,6.55,280.25,7.75h0a.51.51,0,0,0,.49-.52L878.5,500a.47.47,0,0,0-.16-.37.49.49,0,0,0-.38-.16L597.29,502a.52.52,0,0,0-.52.5C593.18,607.07,593.07,687.53,596.49,708.13Z"/><path class="cls-12" d="M631.08,689.4h184a7.4,7.4,0,0,0,6.38-11.16L748.61,554.42a7.4,7.4,0,0,0-13.12.68l-35.17,77.06a7.4,7.4,0,0,1-11.74,2.39l-14.22-13a7.41,7.41,0,0,0-11.09,1.23l-38.27,55A7.4,7.4,0,0,0,631.08,689.4Z"/><circle class="cls-12" cx="812.57" cy="550.68" r="26.45" transform="matrix(0.92, -0.38, 0.38, 0.92, -148.88, 352.88)"/><path class="cls-22" d="M1053.41,750.7c-6.46-23.89-26.42-43.51-48.65-48.47a7.5,7.5,0,0,1-5.5-9.15l0-.09c3.23-13.89-5.68-25-19.11-28.07s-26.3,2.9-29.52,16.8a30.78,30.78,0,0,0,6.78,26.75,7.48,7.48,0,0,1,.28,9.9c-13.55,15.87-19.06,40.1-13.2,61.77,8.63,31.92,38.65,46.18,68.72,38.05S1062,782.62,1053.41,750.7Z"/><path class="cls-12" d="M1044.05,781.16l-.58-.41c5.38-7.64,6.07-18.67,1.8-28.78-3.39-8-9.46-15.38-19.1-23.11-3.59-2.89-7.4-5.62-11.08-8.27-4.44-3.19-9-6.48-13.28-10.06-3.82-3.22-7.84-7.22-8.68-12.45a27.13,27.13,0,0,1,.35-8.07c.59-4.2,1.16-8.17-1.31-11.21l.56-.45c2.66,3.28,2,7.59,1.46,11.76a26.83,26.83,0,0,0-.36,7.86c.81,5,4.72,8.88,8.44,12,4.23,3.57,8.81,6.85,13.23,10,3.69,2.65,7.51,5.39,11.12,8.29,9.73,7.81,15.87,15.25,19.31,23.39C1050.3,762,1049.58,773.32,1044.05,781.16Z"/><path class="cls-12" d="M1029.76,785.77l-.67-.24c3.66-10.13,2.59-22.58-2.95-34.16s-14.45-20.83-21.65-27.69l.5-.52c7.24,6.91,16.26,16.33,21.8,27.91C1032.4,762.81,1033.49,775.46,1029.76,785.77Z"/><path class="cls-23" d="M885.55,654.73l-.25-8.25,8.63-17.12a11.17,11.17,0,0,0,0-10l-9.77-19.72s-5.64,42.81-7.12,46.37,4,10,4,10Z"/><path class="cls-24" d="M885.3,646.48s26.23,71.5,70.92,93.85c0,0-14.87,24.27-22.63,25.74,0,0-47.75-61.1-52.61-111.17Z"/><path class="cls-25" d="M1065,1076.58l1.32,10.84c1.37,5.15,8,18.14,16.52,17.29,5.24-.52,5.87-15.82,5.14-18.12-1.33-4.19-3.77-10.47-7.28-14.17h-12A3.71,3.71,0,0,0,1065,1076.58Z"/><path class="cls-26" d="M970.82,949.55l-2,12s6.8,68.86,8,96.41a21.63,21.63,0,0,1-3.19,12.27l-11.82,19.2,30-17.73.6-3.67-4.92-6.76L994,984.07A23.62,23.62,0,0,0,991.26,971L985,959.3Z"/><path class="cls-27" d="M959.81,1092.16h9.58a5.8,5.8,0,0,0,4.59-2.25c3-3.88,9.18-11.46,12.14-11.66,4-.26,3.48,13.91,3.48,13.91h2.23l2.83-17.61a10.43,10.43,0,0,0-5.47-10.9h0s-.91,6.74-5.85,9.72S963.23,1087,963.23,1087a13.51,13.51,0,0,0-3.89.1A2.54,2.54,0,0,0,959.81,1092.16Z"/><path class="cls-28" d="M1012,955.22s39.83,75.56,46.16,92.81a165.29,165.29,0,0,1,8.63,33c.14,2.13,2.78,4.17,10.08,4.17,3.77,0,5.62-1.51,6.52-3a4.25,4.25,0,0,0,.16-4.12c-2.3-4.66-9.61-19.56-12.32-26.32-3.23-8.07-10.19-44.64-14-57.35s-8.13-26.51-24.74-39.22C1032.47,955.22,1021.07,944.06,1012,955.22Z"/><path class="cls-29" d="M986.82,831.43c-5.84-24.72,0-43.35,6.19-54.83a18.52,18.52,0,0,0-7.76-25.27,143.32,143.32,0,0,0-29-11s-28.55,20.87-25.16,37.21c2,9.58,20.07,57.36,20.07,57.36S967.85,842.82,986.82,831.43Z"/><path class="cls-30" d="M1009.6,853c-4.19-12.6-22.78-21.55-22.78-21.55-19,11.39-35.69,3.47-35.69,3.47s-3.75,14.34-1.16,27.66,18.82,98.94,18.82,98.94c25.59,5.18,65-5.22,65-5.22C1017.44,927.34,1013.78,865.58,1009.6,853Z"/><path class="cls-31" d="M974.89,711.56l8.35,37.52c.8,3.3-2.21,2.76-5.55,2.13-5.47-1-12.53-3.15-14.88-7.41a4.17,4.17,0,0,1-.43-1.42l-3.59-26a4.67,4.67,0,0,1,2.74-4.92l6.92-3.07A4.68,4.68,0,0,1,974.89,711.56Z"/><path class="cls-32" d="M870.48,686.77s22,76.38,110.64,69.2a10.27,10.27,0,0,1,11.1,9.42l.24,3.06a13.67,13.67,0,0,1-14.3,14.73c-29.49-1.49-92.82-13.07-114.52-83.13Z"/><path class="cls-33" d="M863.64,700.05s-4.23-12.43-5.29-20.2,2.85-25.22,6.21-30.12,3.92,7.12,5.43,12.77-1,13.71-1,13.71l1.54,10.56Z"/><path class="cls-34" d="M957.76,680.6s-21.12,30.77-8,39.35S978,706.65,978,706.65s4.72-16.71-.65-22.25S957.76,680.6,957.76,680.6Z"/><path class="cls-35" d="M966.62,673.14s-9.19,2.36-10.4,6.56,13.24,7.8,17.27,7.91l3.57,16.8s9.3-16,5.32-25.12S966.62,673.14,966.62,673.14Z"/><path class="cls-36" d="M973.7,704.5s8.26-9.94,11.74-3.63-7.39,11.31-11.25,8.25Z"/><path class="cls-37" d="M183.6,999.46H519.87V944.85H183.6C190.79,944.85,190.79,999.46,183.6,999.46Z"/><path class="cls-38" d="M519.87,985.8v-25c0-8.81-6.65-15.95-14.85-15.95H185c-6.44,0-11.67-4.24-11.67-9.47,0-1.59,1.59-2.88,3.55-2.88H526.63c8,0,20.76,10.23,20.76,22.86v34.9c0,11.91-12.36,21.55-19.93,21.55H178.73c-3,0-5.39-1.95-5.39-4.37,0-4.4,4.4-8,9.83-8h324C514.17,999.46,519.87,993.35,519.87,985.8Z"/><path class="cls-12" d="M510.54,957.27H195.24a1.22,1.22,0,0,1,0-2.43h315.3a1.22,1.22,0,0,1,0,2.43Z"/><path class="cls-12" d="M510.54,965.38H195.24a1.22,1.22,0,0,1,0-2.43h315.3a1.22,1.22,0,0,1,0,2.43Z"/><path class="cls-12" d="M510.54,973.48H195.24a1.21,1.21,0,1,1,0-2.42h315.3a1.21,1.21,0,0,1,0,2.42Z"/><path class="cls-12" d="M510.54,981.59H195.24a1.22,1.22,0,0,1,0-2.43h315.3a1.22,1.22,0,0,1,0,2.43Z"/><path class="cls-12" d="M510.54,989.7H195.24a1.22,1.22,0,0,1,0-2.43h315.3a1.22,1.22,0,0,1,0,2.43Z"/><rect class="cls-39" x="111.32" y="1012.58" width="448.79" height="91.26" rx="21.39"/><rect class="cls-40" x="162.04" y="1023.07" width="52.72" height="70.28" rx="7.24"/><rect class="cls-41" x="222.52" y="1023.07" width="19.78" height="70.28" rx="5.89"/><path class="cls-42" d="M338.35,686.92c-.22.42-13.93,10.51-13.93,10.51s3,21.68,15.33,30.23c13.52,9.41,32.63-7.75,32.63-7.75s15.2,3.62,23.28-28c1.86-7.26-8.85-7.87-21.77-6.53C357.23,687.07,338.35,686.92,338.35,686.92Z"/><path class="cls-43" d="M312.71,760.87a57.86,57.86,0,0,1,17.59-8.18c2.36-.65,15.12,3.06,23,2.88,10.83-.25,21.85-5.18,30.77-3s16.12,5.09,20.31,8.07c12.54,8.92,19.9,25.55,24.39,42a57.51,57.51,0,0,1-19.19,12.6l-2,80.06L360.27,919.6l-54-27.13,1.94-78.25s-17.16-8-18.42-10.9S297.57,771.28,312.71,760.87Z"/><path class="cls-44" d="M290.55,803s-23,63.76,29.44,90c10.89-1.45,6.7-19.53,6.7-19.53s-22.78-5-15.94-58.22C304.45,810,290.55,803,290.55,803Z"/><path class="cls-45" d="M427.67,803s15.82,66.55-29.44,90c-10.89-1.45-6.7-19.53-6.7-19.53s18.36-9,15.94-58.22C413.77,810,427.67,803,427.67,803Z"/><rect class="cls-46" x="305.61" y="827.29" width="103.82" height="70.11" rx="8.33"/><path class="cls-47" d="M455,918.19c-11.88-2.73-39.35-1.26-39.35-1.26l-1.11,3-1.85,15s26.15,4.71,39,4.7a12.16,12.16,0,0,0,3.62-.54q.58-.52,1.14-1.11C461.93,932.06,460.35,923.29,455,918.19Z"/><path class="cls-48" d="M407.73,916.08l4.65.2a9,9,0,0,1,6.54,3.38,11,11,0,0,1,2.39,7.54,8.63,8.63,0,0,1-2.51,5.73,7,7,0,0,1-5.44,2.07l-7.12-.5Z"/><path class="cls-49" d="M251.38,916.75c11.94-2.37,39.36-.06,39.36-.06l1,3.06,1.47,15.09s-26.26,3.91-39.15,3.5a12.32,12.32,0,0,1-3.6-.65c-.38-.37-.76-.74-1.11-1.15C244.07,930.4,245.87,921.68,251.38,916.75Z"/><path class="cls-50" d="M298.64,916.09l-4.65,0a8.9,8.9,0,0,0-6.61,3.18,11,11,0,0,0-2.59,7.46,8.75,8.75,0,0,0,2.37,5.81,7.11,7.11,0,0,0,5.39,2.24l7.13-.29Z"/><path class="cls-51" d="M458.29,871.06c-5.39-12.4-18.57-14.41-29.78-8.62-.2.26-71.24,36.67-133.88,52.62a68.63,68.63,0,0,1,2.92,17.88c0,1.34,0,2.66-.07,4,48-2.47,100.18-18.49,145-32.57C456.35,899.86,464.26,884.8,458.29,871.06Z"/><path class="cls-52" d="M408.08,933.89a41.29,41.29,0,0,1,4-19.36c.08-.27.18-.54.27-.81-3.58-1.11-8.2-2.61-14.27-4.67-44.49-15.22-78.42-30.59-110.81-48.29-12.59-6.87-26.89-2.26-30.92,12.62-3.6,13.29,4.3,24.64,16.28,28.63,35.86,11.93,17.19,8.62,28.9,12.38,31.45,9.73,70.58,18.59,106.58,21C408.12,934.89,408.09,934.39,408.08,933.89Z"/><path class="cls-53" d="M330.3,752.69s4.79,20.73,28,20.3c23.66-.43,25.77-20.37,25.77-20.37l-15.45-3.31-1.3-17.22-23.24,1.72-.43,16.36Z"/><path class="cls-54" d="M347.35,683.3s-26.64,51.61,5,64.13c22.29,8.83,36.27-34.27,32.1-45.95-6.44-18.05-10.69-15.9-10.69-15.9Z"/><path class="cls-55" d="M390.82,678.61c13.16,3.61,1.91,32.16-17.9,25.41s-27.6-6.65-30.69-1.21-3.75,24.76-10.45,15.21c-7.34-10.47-11.44-31.49-2.43-38.26,8-6.06,9.92-15.44,19.58-15.12,12.81.43,22.72-5.25,28.5-1.15C384.07,668.19,381.14,676,390.82,678.61Z"/><path class="cls-56" d="M341,707.24s-5.68-6.11-6.59,1.26,2,16.86,5.43,11.66S341,707.24,341,707.24Z"/><path class="cls-57" d="M363.64,856.84c.55,3.72-1.44,7.1-5.16,7.65a6.81,6.81,0,0,1-7.73-5.74c-.55-3.72,1.15-7.41,4.87-8A7.32,7.32,0,0,1,363.64,856.84Z"/><circle class="cls-12" cx="292.23" cy="539.33" r="121.51"/><path class="cls-58" d="M192.08,533.4l25.5-13.3v5.67a2.23,2.23,0,0,1-.32,1.17,2.63,2.63,0,0,1-1.06.92l-11.69,6a9.87,9.87,0,0,1-1.56.66c-.55.18-1.13.35-1.76.5.63.15,1.21.31,1.76.5a9.87,9.87,0,0,1,1.56.66l11.69,6a2.62,2.62,0,0,1,1.06.91,2.3,2.3,0,0,1,.32,1.18v5.66l-25.5-13.32Z"/><path class="cls-59" d="M229.2,556.7V508.86h8v18.39a16.76,16.76,0,0,1,4.25-3,12.35,12.35,0,0,1,5.44-1.13,11.88,11.88,0,0,1,4.8.92,9.42,9.42,0,0,1,3.49,2.57,11.43,11.43,0,0,1,2.13,4,17,17,0,0,1,.72,5.07v21h-8v-21a7,7,0,0,0-1.4-4.68,5.17,5.17,0,0,0-4.2-1.66,8.27,8.27,0,0,0-3.86.93,13.91,13.91,0,0,0-3.42,2.55V556.7Z"/><path class="cls-60" d="M276.65,557.22a8.7,8.7,0,0,1-6.6-2.43,9.35,9.35,0,0,1-2.31-6.71V529.63h-3.35a1.53,1.53,0,0,1-1.58-1.67V524.8l5.31-.87,1.68-9a1.58,1.58,0,0,1,.59-1,1.88,1.88,0,0,1,1.18-.36h4.12V524h8.69v5.67h-8.69v17.9a3.52,3.52,0,0,0,.77,2.41,2.62,2.62,0,0,0,2.06.87,4,4,0,0,0,1.24-.17c.33-.12.62-.25.87-.37s.47-.26.66-.37a1.09,1.09,0,0,1,.58-.18.89.89,0,0,1,.58.18,2.34,2.34,0,0,1,.48.53l2.38,3.86a11.83,11.83,0,0,1-4,2.19A15,15,0,0,1,276.65,557.22Z"/><path class="cls-61" d="M290.72,556.7v-33h4.86a2,2,0,0,1,2,1.45l.52,2.45A19,19,0,0,1,300,525.8a11.51,11.51,0,0,1,2-1.39,11.2,11.2,0,0,1,2.32-.91,10.13,10.13,0,0,1,2.72-.34,7.71,7.71,0,0,1,5.14,1.69,10.23,10.23,0,0,1,3,4.49,10.2,10.2,0,0,1,1.93-2.82,10.52,10.52,0,0,1,2.54-1.91,11.62,11.62,0,0,1,2.95-1.1,14.46,14.46,0,0,1,3.14-.35,13.17,13.17,0,0,1,4.86.84,9.25,9.25,0,0,1,3.57,2.44,10.93,10.93,0,0,1,2.21,3.93,17.28,17.28,0,0,1,.75,5.31v21h-7.95v-21a7.1,7.1,0,0,0-1.38-4.75,5.11,5.11,0,0,0-4.06-1.59,6,6,0,0,0-2.27.42,5.27,5.27,0,0,0-1.83,1.21,5.35,5.35,0,0,0-1.24,2,7.66,7.66,0,0,0-.45,2.73v21h-8v-21q0-3.31-1.33-4.83a5,5,0,0,0-3.95-1.51,6.34,6.34,0,0,0-3.2.85,10.8,10.8,0,0,0-2.79,2.34V556.7Z"/><path class="cls-62" d="M353.4,508.86V556.7h-7.95V508.86Z"/><path class="cls-63" d="M365.51,549.94v-5.66a2.2,2.2,0,0,1,.32-1.18,2.55,2.55,0,0,1,1.06-.91l11.69-6a14.89,14.89,0,0,1,3.31-1.16c-.62-.15-1.2-.32-1.75-.5a9.87,9.87,0,0,1-1.56-.66l-11.69-6a2.57,2.57,0,0,1-1.06-.92,2.15,2.15,0,0,1-.32-1.17V520.1L391,533.4v3.22Z"/><circle class="cls-12" cx="570.96" cy="460.83" r="107.03"/><path class="cls-64" d="M514.37,461l30.94-16.13v6.87a2.72,2.72,0,0,1-.39,1.43,3.13,3.13,0,0,1-1.29,1.11l-14.18,7.27a13.23,13.23,0,0,1-1.89.8q-1,.33-2.13.6c.75.18,1.46.39,2.13.61a13.23,13.23,0,0,1,1.89.8l14.18,7.3a3.22,3.22,0,0,1,1.29,1.12,2.68,2.68,0,0,1,.39,1.42v6.88l-30.94-16.17Z"/><path class="cls-65" d="M562.76,489.4a5.83,5.83,0,0,1-.89,1.57,5.48,5.48,0,0,1-1.25,1.11,5.72,5.72,0,0,1-1.49.68,5.17,5.17,0,0,1-1.52.24h-4.06l22.81-58.35a5.44,5.44,0,0,1,1.91-2.52,5.07,5.07,0,0,1,3-.88h4.1Z"/><path class="cls-66" d="M593.43,481.09v-6.88a2.68,2.68,0,0,1,.38-1.42,3.22,3.22,0,0,1,1.29-1.12l14.18-7.3a19.24,19.24,0,0,1,4-1.41c-.75-.18-1.46-.38-2.12-.6a12.88,12.88,0,0,1-1.9-.8l-14.18-7.27a3.13,3.13,0,0,1-1.29-1.11,2.71,2.71,0,0,1-.38-1.43v-6.87L624.36,461v3.91Z"/><g class="cls-67"><path class="cls-12" d="M1052.06,522.85a1.21,1.21,0,0,1-.85-2.08c.72-.7,1.42-1.41,2.12-2.12a1.21,1.21,0,1,1,1.74,1.69c-.71.73-1.43,1.45-2.16,2.17A1.21,1.21,0,0,1,1052.06,522.85Z"/><path class="cls-12" d="M976.4,554.79a1.21,1.21,0,0,1,0-2.42c2,0,4-.15,5.93-.3a1.21,1.21,0,1,1,.19,2.41c-2,.16-4,.27-6.06.31Zm-6,0h0c-2-.06-4.06-.18-6.06-.34a1.22,1.22,0,0,1-1.11-1.31A1.2,1.2,0,0,1,964.5,552c2,.16,4,.28,5.93.33a1.22,1.22,0,0,1,0,2.43Zm18-.92a1.22,1.22,0,0,1-.16-2.42c1.95-.26,3.92-.57,5.86-.94a1.22,1.22,0,1,1,.45,2.39c-2,.37-4,.69-6,1Zm-29.94-.08h-.17c-2-.28-4-.61-6-1a1.21,1.21,0,1,1,.46-2.38c1.93.37,3.9.7,5.86,1a1.21,1.21,0,0,1,1,1.36A1.22,1.22,0,0,1,958.43,553.78Zm41.74-2.14a1.21,1.21,0,0,1-.29-2.39c1.91-.47,3.83-1,5.73-1.57a1.21,1.21,0,0,1,.7,2.32c-1.94.59-3.91,1.13-5.86,1.6A.9.9,0,0,1,1000.17,551.64Zm-53.53-.13-.3,0c-2-.49-3.92-1-5.84-1.62a1.21,1.21,0,1,1,.7-2.32c1.89.57,3.82,1.11,5.73,1.58a1.21,1.21,0,0,1-.29,2.39Zm65-3.35a1.21,1.21,0,0,1-.42-2.35c1.85-.67,3.71-1.4,5.54-2.17a1.21,1.21,0,1,1,.94,2.23c-1.86.79-3.76,1.54-5.65,2.22A1.22,1.22,0,0,1,1011.66,548.16Zm-76.5-.16a1.23,1.23,0,0,1-.42-.07c-1.9-.69-3.79-1.44-5.64-2.23a1.21,1.21,0,1,1,.95-2.23c1.81.77,3.67,1.5,5.52,2.18a1.21,1.21,0,0,1-.41,2.35Zm87.56-4.52a1.21,1.21,0,0,1-.53-2.3c1.77-.86,3.54-1.79,5.27-2.74a1.21,1.21,0,0,1,1.17,2.12c-1.76,1-3.57,1.92-5.38,2.8A1.24,1.24,0,0,1,1022.72,543.48Zm-98.6-.18a1.16,1.16,0,0,1-.54-.13c-1.81-.89-3.62-1.83-5.37-2.81a1.21,1.21,0,1,1,1.18-2.12c1.72,1,3.49,1.88,5.26,2.75a1.22,1.22,0,0,1-.53,2.31Zm109.1-5.63a1.21,1.21,0,0,1-.65-2.24c1.67-1,3.34-2.15,5-3.29a1.22,1.22,0,0,1,1.4,2c-1.65,1.16-3.35,2.29-5.06,3.35A1.16,1.16,0,0,1,1033.22,537.67Zm-119.58-.23a1.28,1.28,0,0,1-.65-.18c-1.7-1.08-3.4-2.22-5-3.38a1.22,1.22,0,1,1,1.41-2c1.6,1.14,3.26,2.25,4.93,3.3a1.21,1.21,0,0,1-.65,2.24Zm129.4-6.67a1.18,1.18,0,0,1-1-.47,1.2,1.2,0,0,1,.2-1.7c1.55-1.22,3.09-2.5,4.57-3.79a1.2,1.2,0,0,1,1.71.11,1.22,1.22,0,0,1-.11,1.71c-1.52,1.33-3.09,2.63-4.67,3.88A1.24,1.24,0,0,1,1043,530.77Zm-139.19-.27a1.18,1.18,0,0,1-.75-.26c-1.58-1.25-3.14-2.56-4.65-3.89a1.21,1.21,0,0,1,1.61-1.82c1.47,1.3,3,2.59,4.55,3.81a1.22,1.22,0,0,1,.19,1.71A1.2,1.2,0,0,1,903.85,530.5Zm-9-7.94a1.2,1.2,0,0,1-.85-.35c-1.44-1.41-2.85-2.88-4.21-4.37a1.21,1.21,0,0,1,1.8-1.63c1.32,1.45,2.71,2.89,4.11,4.27a1.22,1.22,0,0,1-.85,2.08Zm-8.08-8.86a1.2,1.2,0,0,1-.94-.45c-1.27-1.56-2.52-3.17-3.71-4.8a1.21,1.21,0,0,1,2-1.43c1.16,1.59,2.38,3.17,3.63,4.7a1.22,1.22,0,0,1-.94,2ZM879.71,504a1.2,1.2,0,0,1-1-.55c-1.1-1.69-2.17-3.43-3.18-5.17a1.22,1.22,0,0,1,.45-1.66,1.2,1.2,0,0,1,1.65.45c1,1.7,2,3.4,3.11,5.05a1.21,1.21,0,0,1-.35,1.68A1.14,1.14,0,0,1,879.71,504Zm-6-10.39a1.21,1.21,0,0,1-1.08-.66c-.43-.85-.86-1.7-1.27-2.56s-.91-1.94-1.35-2.92a1.21,1.21,0,0,1,2.22-1q.64,1.42,1.32,2.85c.4.85.82,1.68,1.24,2.51a1.21,1.21,0,0,1-1.08,1.76Zm-4.88-11a1.22,1.22,0,0,1-1.14-.77c-.72-1.89-1.4-3.81-2-5.73a1.21,1.21,0,1,1,2.31-.74c.61,1.87,1.27,3.76,2,5.6a1.21,1.21,0,0,1-.7,1.56A1.09,1.09,0,0,1,868.82,482.65Zm-3.7-11.42a1.22,1.22,0,0,1-1.17-.9c-.51-1.95-1-3.93-1.39-5.91a1.21,1.21,0,1,1,2.37-.49c.4,1.93.86,3.87,1.37,5.78a1.22,1.22,0,0,1-.86,1.48A1.17,1.17,0,0,1,865.12,471.23Zm-2.44-11.75a1.21,1.21,0,0,1-1.2-1c-.3-2-.56-4-.75-6a1.21,1.21,0,0,1,2.41-.23c.2,2,.44,3.94.74,5.89a1.22,1.22,0,0,1-1,1.38Zm-1.17-12a1.22,1.22,0,0,1-1.21-1.16c-.07-1.61-.1-3.25-.1-4.88V440.3a1.21,1.21,0,0,1,1.22-1.2h0a1.22,1.22,0,0,1,1.2,1.23c0,.38,0,.77,0,1.16,0,1.59,0,3.2.11,4.77a1.22,1.22,0,0,1-1.16,1.27Z"/><path class="cls-12" d="M861.65,435.46h-.08a1.2,1.2,0,0,1-1.13-1.29c.06-1,.14-2,.24-3.05A1.2,1.2,0,0,1,862,430a1.22,1.22,0,0,1,1.09,1.32c-.09,1-.17,2-.23,3A1.22,1.22,0,0,1,861.65,435.46Z"/></g><g class="cls-67"><path class="cls-12" d="M899.91,358a1.19,1.19,0,0,1-.91-.42,1.21,1.21,0,0,1,.12-1.71q1.15-1,2.34-2a1.21,1.21,0,0,1,1.54,1.87c-.77.64-1.54,1.29-2.29,1.94A1.21,1.21,0,0,1,899.91,358Z"/><path class="cls-12" d="M1085.64,448.74h-.06a1.21,1.21,0,0,1-1.15-1.27c.11-2,.17-4.09.17-6.12a1.22,1.22,0,0,1,2.43,0c0,2.08-.06,4.18-.18,6.25A1.21,1.21,0,0,1,1085.64,448.74Zm0-12.37a1.21,1.21,0,0,1-1.21-1.14c-.11-2-.28-4.09-.5-6.1a1.21,1.21,0,0,1,1.07-1.34,1.23,1.23,0,0,1,1.34,1.07c.23,2.06.4,4.15.52,6.23a1.22,1.22,0,0,1-1.15,1.28Zm-1.37-12.28a1.21,1.21,0,0,1-1.19-1c-.34-2-.73-4-1.18-6a1.21,1.21,0,0,1,.92-1.45,1.23,1.23,0,0,1,1.45.92c.45,2,.86,4.09,1.2,6.13a1.21,1.21,0,0,1-1,1.4ZM1081.55,412a1.21,1.21,0,0,1-1.16-.88c-.56-1.95-1.17-3.91-1.84-5.84a1.21,1.21,0,1,1,2.29-.79c.68,2,1.31,4,1.88,6a1.21,1.21,0,0,1-.83,1.5A1.4,1.4,0,0,1,1081.55,412Zm-4-11.69a1.2,1.2,0,0,1-1.12-.75c-.77-1.88-1.6-3.77-2.47-5.6a1.21,1.21,0,1,1,2.19-1c.89,1.88,1.74,3.8,2.52,5.72a1.21,1.21,0,0,1-.66,1.58A1.25,1.25,0,0,1,1077.52,400.34Zm-5.29-11.18a1.2,1.2,0,0,1-1.06-.63c-1-1.79-2-3.58-3.06-5.3a1.21,1.21,0,0,1,2.07-1.27c1.08,1.76,2.13,3.58,3.12,5.41a1.22,1.22,0,0,1-.49,1.65A1.18,1.18,0,0,1,1072.23,389.16Zm-6.46-10.53a1.2,1.2,0,0,1-1-.52c-1.16-1.67-2.37-3.33-3.62-4.93a1.21,1.21,0,0,1,1.91-1.49c1.28,1.64,2.52,3.33,3.7,5a1.22,1.22,0,0,1-.3,1.69A1.29,1.29,0,0,1,1065.77,378.63Zm-7.59-9.75a1.21,1.21,0,0,1-.91-.41c-1.33-1.53-2.73-3-4.14-4.5a1.21,1.21,0,1,1,1.73-1.69c1.45,1.49,2.88,3,4.24,4.59a1.22,1.22,0,0,1-.92,2Zm-8.62-8.85a1.2,1.2,0,0,1-.82-.32c-1.48-1.36-3-2.71-4.61-4a1.21,1.21,0,1,1,1.54-1.87c1.61,1.32,3.19,2.7,4.72,4.1a1.21,1.21,0,0,1-.83,2.1Zm-142.45-7.76a1.24,1.24,0,0,1-1-.5,1.22,1.22,0,0,1,.26-1.7c1.67-1.22,3.4-2.42,5.14-3.55a1.21,1.21,0,1,1,1.32,2c-1.7,1.11-3.39,2.28-5,3.48A1.22,1.22,0,0,1,907.11,352.27Zm132.91-.08a1.28,1.28,0,0,1-.72-.23c-1.63-1.2-3.32-2.37-5-3.48a1.21,1.21,0,0,1,1.33-2c1.74,1.13,3.47,2.33,5.14,3.55a1.21,1.21,0,0,1-.72,2.19Zm-122.56-6.68a1.21,1.21,0,0,1-.61-2.26c1.8-1,3.65-2,5.5-3a1.22,1.22,0,0,1,1.1,2.17c-1.82.91-3.62,1.89-5.38,2.91A1.21,1.21,0,0,1,917.46,345.51Zm112.2-.06a1.21,1.21,0,0,1-.6-.17c-1.75-1-3.56-2-5.38-2.9a1.21,1.21,0,0,1,1.09-2.17c1.86.94,3.71,1.94,5.5,3a1.22,1.22,0,0,1-.61,2.27Zm-101.17-5.52a1.22,1.22,0,0,1-.49-2.33c1.9-.84,3.85-1.63,5.79-2.36a1.21,1.21,0,0,1,.85,2.27c-1.89.71-3.8,1.49-5.66,2.31A1.24,1.24,0,0,1,928.49,339.93Zm90.14-.05a1.33,1.33,0,0,1-.48-.1c-1.86-.82-3.77-1.59-5.67-2.3a1.21,1.21,0,0,1,.85-2.27c1.95.72,3.89,1.51,5.79,2.34a1.22,1.22,0,0,1,.62,1.6A1.2,1.2,0,0,1,1018.63,339.88Zm-78.57-4.31a1.23,1.23,0,0,1-1.16-.85,1.21,1.21,0,0,1,.8-1.52c2-.62,4-1.2,6-1.71a1.21,1.21,0,0,1,.6,2.35c-2,.5-3.95,1.07-5.88,1.67A1.24,1.24,0,0,1,940.06,335.57Zm67,0a1.13,1.13,0,0,1-.36-.06c-1.93-.6-3.91-1.16-5.89-1.66a1.21,1.21,0,0,1,.6-2.35c2,.51,4,1.08,6,1.7a1.21,1.21,0,0,1-.37,2.37Zm-55-3a1.22,1.22,0,0,1-.23-2.41c2-.4,4.11-.75,6.16-1a1.21,1.21,0,1,1,.34,2.4c-2,.28-4,.62-6,1A.85.85,0,0,1,952,332.52Zm43,0a.86.86,0,0,1-.23,0c-2-.39-4-.73-6-1a1.21,1.21,0,0,1,.34-2.4c2.05.28,4.12.63,6.16,1a1.21,1.21,0,0,1-.23,2.4Zm-12.25-1.7h-.1c-2-.17-4.07-.29-6.11-.34a1.22,1.22,0,0,1-1.18-1.25,1.18,1.18,0,0,1,1.25-1.18c2.08.06,4.18.18,6.24.35a1.21,1.21,0,0,1-.1,2.42Zm-18.54,0a1.21,1.21,0,0,1-.1-2.42c2.08-.18,4.18-.29,6.24-.35a1.22,1.22,0,1,1,.07,2.43c-2,0-4.08.17-6.11.33Z"/><path class="cls-12" d="M1084.75,458h-.17a1.21,1.21,0,0,1-1-1.37c.14-1,.27-2,.38-3a1.2,1.2,0,0,1,1.34-1.07,1.21,1.21,0,0,1,1.07,1.34c-.12,1-.24,2-.38,3A1.22,1.22,0,0,1,1084.75,458Z"/></g><path class="cls-68" d="M1070.05,467.45a1.55,1.55,0,0,0-.44-1.76l-14.5-12.27a83,83,0,0,0-.58-26.8l13.93-12.9a1.55,1.55,0,0,0,.36-1.77l-9.18-20.85a1.56,1.56,0,0,0-1.56-.93l-18.91,1.57a82.82,82.82,0,0,0-19.38-18.53l.73-19a1.56,1.56,0,0,0-1-1.51l-21.23-8.25a1.56,1.56,0,0,0-1.76.44l-12.27,14.5a83,83,0,0,0-26.81.58l-12.89-13.93a1.58,1.58,0,0,0-1.78-.36l-20.85,9.18a1.57,1.57,0,0,0-.93,1.56l1.57,18.91a82.78,82.78,0,0,0-18.52,19.38l-19-.73a1.58,1.58,0,0,0-1.52,1l-8.25,21.23a1.57,1.57,0,0,0,.45,1.76l14.49,12.28a82.72,82.72,0,0,0,.59,26.8L876.9,470a1.57,1.57,0,0,0-.37,1.78l9.18,20.85a1.58,1.58,0,0,0,1.56.93L906.19,492a82.78,82.78,0,0,0,19.38,18.52l-.73,19a1.55,1.55,0,0,0,1,1.52l21.24,8.25a1.57,1.57,0,0,0,1.76-.45l12.27-14.49a82.71,82.71,0,0,0,26.8-.59l12.9,13.93a1.55,1.55,0,0,0,1.77.37l20.86-9.18a1.57,1.57,0,0,0,.92-1.56l-1.57-18.92A82.82,82.82,0,0,0,1041.31,489l19,.73a1.55,1.55,0,0,0,1.51-1Z"/><path class="cls-69" d="M972.7,463.28a21.43,21.43,0,1,1,13.16-4.52A21.45,21.45,0,0,1,972.7,463.28Zm-.06-40.46A19.12,19.12,0,1,0,975,423,19.13,19.13,0,0,0,972.64,422.82Z"/><path class="cls-69" d="M972.29,497.9a56.15,56.15,0,1,1,55-67.45,1.1,1.1,0,0,1,0,.25,1.21,1.21,0,0,1-2.4.24,53.74,53.74,0,1,0-8.82,41.87,1.21,1.21,0,0,1,1.69-.29,1.22,1.22,0,0,1,.51,1,1.21,1.21,0,0,1-.22.7,56.25,56.25,0,0,1-45.77,23.69Z"/><g class="cls-67"><path class="cls-12" d="M889.55,382.46a1.17,1.17,0,0,1-.87-.37,1.22,1.22,0,0,1,0-1.72c.72-.69,1.42-1.39,2.11-2.11a1.22,1.22,0,1,1,1.75,1.69c-.71.73-1.44,1.46-2.18,2.17A1.19,1.19,0,0,1,889.55,382.46Z"/><path class="cls-12" d="M827.34,407.6c-1.64,0-3.31-.05-5-.14a1.21,1.21,0,1,1,.13-2.42c2,.11,4,.15,6.05.12a1.22,1.22,0,0,1,0,2.43Zm7.38-.31a1.21,1.21,0,0,1-.1-2.42c2-.17,4-.41,6-.71a1.21,1.21,0,0,1,.37,2.4c-2,.31-4.12.56-6.18.73Zm-18.38-.37h-.15c-2.05-.25-4.11-.58-6.14-1a1.22,1.22,0,0,1,.46-2.39c2,.39,4,.71,6,.95a1.21,1.21,0,0,1-.15,2.42Zm30.5-1.48a1.22,1.22,0,0,1-1.18-.95,1.21,1.21,0,0,1,.92-1.45c2-.44,3.93-1,5.86-1.53a1.22,1.22,0,1,1,.69,2.33c-2,.59-4,1.11-6,1.57Zm-42.54-.85a1.76,1.76,0,0,1-.31,0c-2-.53-4-1.14-6-1.8a1.23,1.23,0,0,1-.76-1.54,1.21,1.21,0,0,1,1.54-.76c1.91.65,3.85,1.24,5.79,1.75a1.21,1.21,0,0,1-.31,2.39Zm54.3-2.66a1.21,1.21,0,0,1-.42-2.35c1.87-.7,3.75-1.47,5.59-2.31a1.21,1.21,0,0,1,1.61.6,1.23,1.23,0,0,1-.61,1.61c-1.89.86-3.82,1.66-5.75,2.38A1.23,1.23,0,0,1,858.6,401.93Zm-65.91-1.29a1.35,1.35,0,0,1-.47-.09c-1.9-.8-3.8-1.67-5.65-2.59a1.21,1.21,0,0,1,1.09-2.17c1.8.9,3.65,1.75,5.5,2.52a1.21,1.21,0,0,1-.47,2.33Zm77.08-3.77a1.21,1.21,0,0,1-.57-2.28c1.77-.95,3.53-2,5.23-3a1.22,1.22,0,0,1,1.29,2.06c-1.74,1.1-3.55,2.15-5.37,3.12A1.22,1.22,0,0,1,869.77,396.87Zm-88-1.71a1.22,1.22,0,0,1-.61-.17c-1.78-1.05-3.55-2.17-5.25-3.34a1.21,1.21,0,1,1,1.37-2c1.66,1.13,3.37,2.23,5.11,3.25a1.21,1.21,0,0,1,.43,1.66A1.23,1.23,0,0,1,781.72,395.16Zm98.44-4.82a1.18,1.18,0,0,1-1-.5,1.2,1.2,0,0,1,.26-1.69c1.63-1.18,3.23-2.44,4.77-3.73a1.21,1.21,0,0,1,1.56,1.86c-1.58,1.33-3.23,2.62-4.9,3.83A1.16,1.16,0,0,1,880.16,390.34ZM771.6,388.23a1.26,1.26,0,0,1-.75-.26c-1.62-1.28-3.21-2.63-4.74-4a1.21,1.21,0,0,1,1.63-1.8c1.49,1.35,3,2.67,4.62,3.91a1.22,1.22,0,0,1-.76,2.17ZM762.53,380a1.21,1.21,0,0,1-.88-.37c-1.43-1.49-2.82-3.05-4.14-4.63a1.21,1.21,0,1,1,1.86-1.56c1.29,1.54,2.64,3.06,4,4.51a1.23,1.23,0,0,1,0,1.72A1.24,1.24,0,0,1,762.53,380Zm-7.85-9.41a1.24,1.24,0,0,1-1-.5c-1.2-1.67-2.37-3.41-3.47-5.16a1.22,1.22,0,0,1,2.06-1.29c1.07,1.71,2.2,3.4,3.38,5a1.23,1.23,0,0,1-.27,1.7A1.27,1.27,0,0,1,754.68,370.57Zm-6.5-10.4a1.22,1.22,0,0,1-1.07-.65c-.62-1.17-1.23-2.37-1.8-3.56-.32-.67-.63-1.35-.94-2a1.22,1.22,0,0,1,2.22-1c.29.65.59,1.31.91,2,.55,1.16,1.14,2.33,1.75,3.47a1.2,1.2,0,0,1-.5,1.64A1.16,1.16,0,0,1,748.18,360.17Zm-5-11.19a1.23,1.23,0,0,1-1.14-.79c-.72-1.94-1.37-3.93-2-5.91a1.21,1.21,0,0,1,2.33-.68c.57,1.92,1.21,3.85,1.91,5.74a1.22,1.22,0,0,1-.72,1.56A1.25,1.25,0,0,1,743.15,349Zm-3.47-11.77a1.21,1.21,0,0,1-1.18-.95c-.45-2-.83-4.07-1.13-6.11a1.21,1.21,0,1,1,2.39-.36c.3,2,.67,4,1.11,5.95a1.21,1.21,0,0,1-.92,1.44Zm-1.82-12.13a1.21,1.21,0,0,1-1.2-1.11c-.17-2.06-.26-4.15-.29-6.22a1.21,1.21,0,0,1,1.2-1.22h0a1.21,1.21,0,0,1,1.21,1.2c0,2,.11,4,.27,6a1.21,1.21,0,0,1-1.11,1.31Z"/><path class="cls-12" d="M737.73,312.78h-.07a1.22,1.22,0,0,1-1.14-1.28c.06-1,.14-2.05.23-3.07a1.22,1.22,0,0,1,2.42.22c-.09,1-.17,2-.23,3A1.21,1.21,0,0,1,737.73,312.78Z"/></g><g class="cls-67"><path class="cls-12" d="M768.36,250.27a1.21,1.21,0,0,1-.8-2.13c.77-.67,1.56-1.33,2.35-2a1.22,1.22,0,0,1,1.53,1.89q-1.16.94-2.28,1.92A1.23,1.23,0,0,1,768.36,250.27Z"/><path class="cls-12" d="M916.91,321.11h0a1.19,1.19,0,0,1-1.16-1.25c0-1.08,0-2.15,0-3.23,0-.91,0-1.82,0-2.73a1.22,1.22,0,0,1,2.43-.07c0,.93,0,1.87,0,2.8,0,1.11,0,2.21-.06,3.32A1.2,1.2,0,0,1,916.91,321.11Zm-.38-12.06a1.21,1.21,0,0,1-1.2-1.09c-.2-2-.46-4-.79-5.91a1.21,1.21,0,0,1,2.39-.4c.34,2,.61,4.05.81,6.07a1.21,1.21,0,0,1-1.09,1.33Zm-2-11.9a1.22,1.22,0,0,1-1.18-.93c-.46-1.93-1-3.86-1.58-5.75a1.21,1.21,0,0,1,2.32-.72c.6,1.94,1.15,3.93,1.62,5.9a1.22,1.22,0,0,1-.9,1.47A1.33,1.33,0,0,1,914.53,297.15Zm-3.59-11.53a1.21,1.21,0,0,1-1.13-.77c-.71-1.84-1.5-3.69-2.34-5.48a1.22,1.22,0,0,1,.59-1.62,1.21,1.21,0,0,1,1.61.59c.86,1.85,1.67,3.74,2.4,5.63a1.22,1.22,0,0,1-.69,1.57A1.14,1.14,0,0,1,910.94,285.62Zm-5.09-10.94a1.22,1.22,0,0,1-1.07-.63c-.95-1.74-2-3.46-3-5.12a1.22,1.22,0,0,1,2-1.31c1.09,1.71,2.14,3.48,3.12,5.26a1.21,1.21,0,0,1-.48,1.65A1.25,1.25,0,0,1,905.85,274.68Zm-6.51-10.17a1.19,1.19,0,0,1-1-.49c-1.18-1.59-2.43-3.16-3.7-4.66a1.21,1.21,0,1,1,1.85-1.57c1.31,1.54,2.59,3.15,3.8,4.79a1.22,1.22,0,0,1-.26,1.7A1.19,1.19,0,0,1,899.34,264.51Zm-7.81-9.19a1.19,1.19,0,0,1-.87-.37c-1.37-1.41-2.82-2.8-4.3-4.12A1.21,1.21,0,0,1,888,249c1.52,1.36,3,2.79,4.42,4.24a1.22,1.22,0,0,1,0,1.72A1.28,1.28,0,0,1,891.53,255.32Zm-9-8a1.22,1.22,0,0,1-.75-.26c-1.56-1.22-3.17-2.4-4.81-3.51a1.21,1.21,0,1,1,1.36-2c1.68,1.15,3.35,2.36,4.94,3.61a1.21,1.21,0,0,1,.21,1.7A1.19,1.19,0,0,1,882.55,247.27Zm-107.06-2.59a1.21,1.21,0,0,1-1-.52,1.22,1.22,0,0,1,.29-1.69c1.66-1.17,3.38-2.3,5.12-3.36a1.22,1.22,0,0,1,1.26,2.08c-1.69,1-3.36,2.13-5,3.26A1.2,1.2,0,0,1,775.49,244.68Zm97.07-4.19a1.21,1.21,0,0,1-.61-.16c-1.71-1-3.47-2-5.25-2.83a1.21,1.21,0,0,1,1.08-2.17c1.83.9,3.64,1.88,5.39,2.9a1.21,1.21,0,0,1-.61,2.26ZM785.8,238.4a1.21,1.21,0,0,1-.56-2.29c.91-.48,1.84-.94,2.77-1.39s1.83-.85,2.75-1.26a1.21,1.21,0,1,1,1,2.22l-2.67,1.23q-1.37.66-2.7,1.35A1.25,1.25,0,0,1,785.8,238.4Zm76-3.28a1.25,1.25,0,0,1-.46-.09c-1.83-.76-3.7-1.47-5.58-2.1a1.23,1.23,0,0,1-.76-1.54,1.21,1.21,0,0,1,1.54-.76c1.93.65,3.86,1.38,5.73,2.16a1.21,1.21,0,0,1-.47,2.33Zm-64.9-1.58a1.21,1.21,0,0,1-.41-2.35c1.91-.69,3.87-1.33,5.82-1.89a1.21,1.21,0,0,1,.67,2.33c-1.9.55-3.8,1.17-5.66,1.84A1.23,1.23,0,0,1,796.85,233.54Zm53.47-2.3a1.15,1.15,0,0,1-.31,0c-1.91-.51-3.86-1-5.8-1.34a1.21,1.21,0,0,1,.46-2.38c2,.39,4,.85,6,1.38a1.21,1.21,0,0,1,.86,1.48A1.23,1.23,0,0,1,850.32,231.24Zm-41.87-1a1.21,1.21,0,0,1-.25-2.4c2-.43,4-.8,6-1.09a1.21,1.21,0,1,1,.35,2.4c-2,.29-3.93.64-5.86,1.06A1.15,1.15,0,0,1,808.45,230.21Zm30-1.29h-.15c-2-.25-4-.43-5.93-.55a1.21,1.21,0,0,1,.14-2.42c2,.12,4.07.31,6.09.57a1.21,1.21,0,0,1-.15,2.41Zm-18.08-.45a1.21,1.21,0,0,1-.09-2.42c2-.16,4.08-.24,6.11-.26h0a1.21,1.21,0,0,1,0,2.42c-2,0-4,.11-6,.26Z"/><path class="cls-12" d="M916.11,330.18H916a1.22,1.22,0,0,1-1-1.37q.21-1.49.36-3a1.22,1.22,0,1,1,2.42.26c-.11,1-.23,2-.38,3A1.21,1.21,0,0,1,916.11,330.18Z"/></g><path class="cls-70" d="M904.37,337.51a1.26,1.26,0,0,0-.36-1.41l-11.59-9.81a66,66,0,0,0-.46-21.43l11.13-10.31a1.25,1.25,0,0,0,.3-1.41l-7.34-16.67a1.25,1.25,0,0,0-1.25-.74L879.68,277a66.29,66.29,0,0,0-15.49-14.81l.58-15.17a1.25,1.25,0,0,0-.79-1.21l-17-6.6a1.26,1.26,0,0,0-1.41.36l-9.81,11.59a65.93,65.93,0,0,0-21.42.46l-10.31-11.13a1.24,1.24,0,0,0-1.42-.29L786,247.52a1.23,1.23,0,0,0-.74,1.24l1.25,15.12a65.9,65.9,0,0,0-14.8,15.5l-15.18-.59a1.25,1.25,0,0,0-1.21.8l-6.6,17A1.27,1.27,0,0,0,749,298l11.59,9.81a66.28,66.28,0,0,0,.47,21.43L750,339.51a1.25,1.25,0,0,0-.29,1.42L757,357.6a1.23,1.23,0,0,0,1.24.74l15.13-1.25a66.1,66.1,0,0,0,15.49,14.81l-.59,15.17a1.25,1.25,0,0,0,.8,1.21l17,6.6a1.24,1.24,0,0,0,1.4-.36l9.81-11.59a65.72,65.72,0,0,0,21.43-.47L849,393.6a1.24,1.24,0,0,0,1.42.29l16.66-7.34a1.25,1.25,0,0,0,.75-1.24l-1.26-15.13a66.1,66.1,0,0,0,14.81-15.49l15.17.59a1.25,1.25,0,0,0,1.21-.8Z"/><path class="cls-69" d="M826.55,334.41a17.38,17.38,0,1,1,13.69-28.06h0a17.37,17.37,0,0,1-13.69,28.06Zm0-32.34a15,15,0,1,0,11.83,5.77h0a15.07,15.07,0,0,0-11.83-5.77Z"/><path class="cls-69" d="M826.22,362.09a45.17,45.17,0,1,1,41.27-63.37q.53,1.2,1,2.43a47.14,47.14,0,0,1,1.65,5.43v.05c0,.06,0,.12,0,.17.08.36.16.72.23,1.08a1,1,0,0,1,0,.25,1.21,1.21,0,0,1-2.4.24,43.11,43.11,0,0,0-2.77-8.67h0A42.73,42.73,0,1,0,861,341.65a1.21,1.21,0,1,1,2,1.4,45.16,45.16,0,0,1-36.78,19Z"/></g></g></g></svg>