<svg xmlns="http://www.w3.org/2000/svg" xmlns:xlink="http://www.w3.org/1999/xlink" viewBox="0 0 251.9 36"><defs><style>.cls-1{fill:url(#linear-gradient);}.cls-2{fill:url(#linear-gradient-2);}.cls-3{fill:url(#linear-gradient-3);}.cls-4{fill:url(#linear-gradient-4);}.cls-5{fill:url(#linear-gradient-5);}.cls-6{fill:url(#linear-gradient-6);}.cls-7{fill:#fff;}</style><linearGradient id="linear-gradient" y1="18" x2="251.89" y2="18" gradientUnits="userSpaceOnUse"><stop offset="0" stop-color="#2c73d2"/><stop offset="1" stop-color="#009ce9"/></linearGradient><linearGradient id="linear-gradient-2" x2="251.91" xlink:href="#linear-gradient"/><linearGradient id="linear-gradient-3" x2="251.89" xlink:href="#linear-gradient"/><linearGradient id="linear-gradient-4" x1="-0.01" x2="251.9" xlink:href="#linear-gradient"/><linearGradient id="linear-gradient-5" x2="251.9" xlink:href="#linear-gradient"/><linearGradient id="linear-gradient-6" x1="0.01" x2="251.9" xlink:href="#linear-gradient"/></defs><g id="Layer_2" data-name="Layer 2"><g id="Layer_1-2" data-name="Layer 1"><path class="cls-1" d="M7,19.71Q4.76,24.24,2,29.88l-.23.46h8.58l5.27-10.63ZM28.92,7.26H13.17c-.53,1.05-1.11,2.22-1.75,3.51q-1.53,3.08-3.53,7.12h8.63l.86-1.74q2.06-4.93,3.45-4.94h.46q.57,0,1.44,1.08.68,1.25,2.85,5.6h8.6ZM42,33.94c-.07-.19-.35-.78-.83-1.78H32.67l0,.09c.93,2.5,2.21,3.75,3.86,3.75h3.8c1,0,1.61-.43,1.75-1.29v-.25A1.67,1.67,0,0,0,42,33.94ZM38,25.53c-.83-1.68-1.78-3.63-2.87-5.82H26.49q2.09,4.17,5.28,10.63h8.54ZM26.74,2.88Q25.66,0,23.14,0H19a3.22,3.22,0,0,0-2.93,1.54c-.42.82-1.08,2.11-2,3.9H28C27.6,4.61,27.18,3.75,26.74,2.88ZM.85,32.16A7.63,7.63,0,0,0,0,34.46v.25l.05.36a1.73,1.73,0,0,0,1.7.93H5.5a3.35,3.35,0,0,0,2.83-1.6l1.11-2.24Z"/><path class="cls-2" d="M69.73,7.26,57.34,13a3.52,3.52,0,0,0-2.11,3.55v1.33H66.72a2.4,2.4,0,0,1,1-1.43q.51-.27,4.29-2T82.9,9.67c1.72-.56,2.8-1.37,3.23-2.41ZM86,1a1.24,1.24,0,0,0-1-.49,2.79,2.79,0,0,0-.57.05c-.31.11-2.69,1.19-7.17,3.24L73.66,5.44H86.35V2.26A2,2,0,0,0,86,1ZM77,32.16l1.86.86c3.5,1.71,5.5,2.57,6,2.57H85a1.64,1.64,0,0,0,1.34-1.8V32.16Zm7.78-4.9L80.72,25.4,71,21.08a15.45,15.45,0,0,1-3-1.37H55.24a3.46,3.46,0,0,0,1.33,2.87q1,.51,6.51,3.11c2.56,1.2,5.9,2.76,10,4.65H86.35v-.41A3.1,3.1,0,0,0,84.81,27.26Zm0,0L80.72,25.4,71,21.08a15.45,15.45,0,0,1-3-1.37H55.24a3.46,3.46,0,0,0,1.33,2.87q1,.51,6.51,3.11c2.56,1.2,5.9,2.76,10,4.65H86.35v-.41A3.1,3.1,0,0,0,84.81,27.26ZM51.89,2.16q0-2-2.28-2.16H46.87a2.16,2.16,0,0,0-1.71.64,2.36,2.36,0,0,0-.57,1.62V5.44h7.3Zm0,7.71c0-.87,0-1.75,0-2.61H44.59V17.89H52C52,15.14,51.93,12.47,51.92,9.87Zm-7.33,9.84V30.34H51.9c0-1.37,0-2.75,0-4.16q0-3.16.06-6.47Zm40.22,7.55L80.72,25.4,71,21.08a15.45,15.45,0,0,1-3-1.37H55.24a3.46,3.46,0,0,0,1.33,2.87q1,.51,6.51,3.11c2.56,1.2,5.9,2.76,10,4.65H86.35v-.41A3.1,3.1,0,0,0,84.81,27.26Zm-40.22,4.9v1.58a2.09,2.09,0,0,0,.65,1.69,2.37,2.37,0,0,0,1.63.57h2.74a2.15,2.15,0,0,0,1.68-.64,2.1,2.1,0,0,0,.6-1.47V32.16Z"/><path class="cls-3" d="M130.24.59A2.32,2.32,0,0,0,128.62,0h-30a10.54,10.54,0,0,0-3.91.67,9.64,9.64,0,0,0-5,4.77h41.12a2.73,2.73,0,0,0,0-.5V2.31A2.22,2.22,0,0,0,130.24.59Zm-11,11.86h-16a25.88,25.88,0,0,1-3.44-.16c-1.92-.31-2.88-1.11-2.88-2.42a2,2,0,0,1,.72-1.64c.31-.58,1.71-.91,4.22-1H89.13a11.24,11.24,0,0,0-.26,2.51v.1a12.54,12.54,0,0,0,.31,2.78,10.14,10.14,0,0,0,3.56,5.24H129.2A10.94,10.94,0,0,0,119.21,12.45Zm10.92,7.26H116.39a10.67,10.67,0,0,1,3.64.4c2.17.93,3.24,2.29,3.24,4.09a4.24,4.24,0,0,1-2.21,3.62q-.77.93-6.07.93H91.29a2.23,2.23,0,0,0-1.73.64,2.09,2.09,0,0,0-.51.95h40.32a11.87,11.87,0,0,0,1.52-6.07v-.15A12.44,12.44,0,0,0,130.13,19.71ZM89,32.16V33.7a2.19,2.19,0,0,0,.64,1.71,2.41,2.41,0,0,0,1.68.59h28.13a11.51,11.51,0,0,0,5.71-1.44,13.47,13.47,0,0,0,2.92-2.4Z"/><path class="cls-4" d="M164.11,19.71a5.66,5.66,0,0,1,2.57.5c.93.31,1.39,1.66,1.39,4.06v6.07h7.2V19.71Zm4,12.45v1.52a2.26,2.26,0,0,0,.62,1.75,2.31,2.31,0,0,0,1.64.57H173a2.18,2.18,0,0,0,1.73-.67,2.4,2.4,0,0,0,.59-1.65V32.16Zm0-24.9v.56a6.74,6.74,0,0,1-.52,3.24c-.3.92-1.68,1.39-4.11,1.39H145.29a7.21,7.21,0,0,1-3.24-.52c-.9-.31-1.34-1.68-1.34-4.11V7.26H133.4V17.89h41.87V7.26ZM174.63.59A2.41,2.41,0,0,0,173,0h-2.62a2.07,2.07,0,0,0-1.69.67,2.43,2.43,0,0,0-.57,1.64V5.44h7.2V2.31A2.21,2.21,0,0,0,174.63.59ZM133.4,32.16v1.52a2.24,2.24,0,0,0,.65,1.73,2.38,2.38,0,0,0,1.67.59h2.68a2.17,2.17,0,0,0,1.72-.67,2.4,2.4,0,0,0,.59-1.65V32.16Zm0-12.45V30.34h7.31V24.27a15.86,15.86,0,0,1,.1-2,3.16,3.16,0,0,1,.36-1.21c.28-.83,1.43-1.29,3.46-1.37ZM140.07.59A2.4,2.4,0,0,0,138.4,0h-2.68A2.2,2.2,0,0,0,134,.64a2.36,2.36,0,0,0-.6,1.67V5.44h7.31V2.31A2.25,2.25,0,0,0,140.07.59Z"/><path class="cls-5" d="M178.59,32.16a7.63,7.63,0,0,0-.85,2.3v.25l0,.36a1.72,1.72,0,0,0,1.7.93h3.75a3.37,3.37,0,0,0,2.83-1.6l1.11-2.24Zm6.15-12.45q-2.24,4.53-5,10.17l-.24.46h8.58l5.28-10.63Zm30.95,5.82-2.87-5.82h-8.59q2.09,4.17,5.27,10.63h8.55Zm-9-18.27H190.91l-1.76,3.51q-1.53,3.08-3.52,7.12h8.63l.86-1.74q2.06-4.93,3.45-4.94H199c.38,0,.85.36,1.44,1.08.44.83,1.4,2.7,2.85,5.6h8.6Zm-2.18-4.38Q203.4,0,200.88,0h-4.17a3.23,3.23,0,0,0-2.93,1.54c-.41.82-1.07,2.11-2,3.9h13.93Zm15.27,31.06c-.06-.19-.34-.78-.82-1.78H210.4l0,.09c.92,2.5,2.21,3.75,3.85,3.75h3.81c1,0,1.61-.43,1.75-1.29v-.25A1.73,1.73,0,0,0,219.75,33.94Z"/><path class="cls-6" d="M227.32,33.68a2.2,2.2,0,0,0,.64,1.75,2.42,2.42,0,0,0,1.67.57h2.67a2.18,2.18,0,0,0,1.73-.67,2.4,2.4,0,0,0,.59-1.65V32.16h-7.3Zm0-14V30.34h7.3V19.71ZM223.41,7.26a5.66,5.66,0,0,1,2.57.5c.89.31,1.34,1.68,1.34,4.12v6h7.3v-6a16.38,16.38,0,0,1,.1-2,3.16,3.16,0,0,1,.36-1.23c.28-.84,1.43-1.3,3.46-1.38ZM251.26.59A2.41,2.41,0,0,0,249.58,0H212.35a2.2,2.2,0,0,0-1.72.64,2.36,2.36,0,0,0-.6,1.67V4.94a4,4,0,0,0,0,.5h41.78a2.73,2.73,0,0,0,.05-.5V2.31A2.25,2.25,0,0,0,251.26.59Z"/><path class="cls-7" d="M164.11,19.71h0Z"/></g></g></svg>